G04 ================== begin FILE IDENTIFICATION RECORD ==================*
G04 Layout Name:  steppernug_interface.brd*
G04 Film Name:    BOTTOM*
G04 File Format:  Gerber RS274X*
G04 File Origin:  Cadence Allegro 16.3-S027*
G04 Origin Date:  Fri Jul 27 14:03:25 2012*
G04 *
G04 Layer:  ETCH/BOTTOM*
G04 Layer:  PIN/BOTTOM*
G04 Layer:  VIA CLASS/BOTTOM*
G04 *
G04 Offset:    (0.00 0.00)*
G04 Mirror:    No*
G04 Mode:      Positive*
G04 Rotation:  0*
G04 FullContactRelief:  No*
G04 UndefLineWidth:     8.00*
G04 ================== end FILE IDENTIFICATION RECORD ====================*
%FSLAX55Y55*MOIN*%
%IR0*IPPOS*OFA0.00000B0.00000*MIA0B0*SFA1.00000B1.00000*%
%ADD13C,.05*%
%ADD16C,.06*%
%ADD11C,.024*%
%ADD10C,.09*%
%ADD15R,.05X.05*%
%ADD17R,.06X.06*%
%ADD18R,.032X.036*%
%ADD14C,.15*%
%ADD12C,.25*%
%ADD19C,.02*%
%ADD20C,.016*%
%ADD21C,.008*%
%ADD22C,.06004*%
%ADD26C,.07004*%
%ADD24C,.10004*%
%ADD23C,.16004*%
%ADD25R,.06004X.06004*%
%ADD27R,.07004X.07004*%
G75*
%LPD*%
G75*
G36*
G01X497000Y10000D02*
X3000D01*
Y15000D01*
X474500D01*
Y20500D01*
X478500Y24500D01*
X483500D01*
X487500Y20500D01*
Y15000D01*
X497000D01*
Y10000D01*
G37*
G36*
G01X3000Y16000D02*
Y276000D01*
X266500D01*
X273000Y270500D01*
Y246000D01*
X263500Y236500D01*
X104500D01*
X104341Y236659D01*
G03X104000Y236517I-141J-142D01*
G01Y79000D01*
X109000Y74000D01*
X255500D01*
X256500Y75000D01*
X263000Y68500D01*
Y61000D01*
X262500Y60500D01*
X102500D01*
X102374Y60371D01*
G02X101688Y60650I-286J279D01*
G01Y63577D01*
X101102Y64163D01*
Y65424D01*
X101113Y65456D01*
G03X97887I-1613J544D01*
G01X97898Y65424D01*
Y62837D01*
X98484Y62251D01*
Y60302D01*
X79834Y41652D01*
Y23991D01*
G03X79865Y23680I1602J3D01*
G01X79900Y23503D01*
X79905Y23481D01*
Y23478D01*
X79910Y23453D01*
Y23209D01*
X78303Y21602D01*
X69039D01*
G03Y18398I-2539J-1602D01*
G01X79629D01*
X82317Y21086D01*
G02X83000Y20804I283J-283D01*
G01Y16000D01*
X3000D01*
G37*
G36*
G01X436574Y274647D02*
G02X436924Y275198I370J151D01*
G01X497740D01*
X497975Y274963D01*
X497983Y274944D01*
X497998Y274870D01*
Y241202D01*
X495413D01*
X495384Y241367D01*
G03Y238633I-7884J-1367D01*
G01X495413Y238798D01*
X497998D01*
Y17000D01*
X496500Y15502D01*
X488002D01*
Y20708D01*
X483708Y25002D01*
X480569D01*
G03X480431I-69J-5002D01*
G01X478292D01*
X473998Y20708D01*
Y15502D01*
X406702D01*
Y16087D01*
X406867Y16116D01*
G03X404133I-1367J7884D01*
G01X404298Y16087D01*
Y15502D01*
X83502D01*
Y40296D01*
X102711Y59998D01*
X262708D01*
X263502Y60792D01*
Y68708D01*
X256500Y75709D01*
X255292Y74502D01*
X109208D01*
X104502Y79208D01*
Y235998D01*
X263708D01*
X273502Y245792D01*
Y270733D01*
X268110Y275295D01*
G02X268368Y276000I258J305D01*
G01X283852D01*
G02X283994Y275659I0J-200D01*
G01X283898Y275563D01*
Y265502D01*
X282498D01*
Y259498D01*
X288502D01*
Y265502D01*
X287102D01*
Y274237D01*
X287763Y274898D01*
X391398D01*
Y265502D01*
X389998D01*
Y259498D01*
X396002D01*
Y265502D01*
X394602D01*
Y274898D01*
X432978D01*
G02X433347Y274404I-20J-400D01*
G03X433798Y272795I1653J-404D01*
G01Y270002D01*
X440203Y263598D01*
X440162Y263479D01*
G03X442021Y265338I2838J-979D01*
G01X441902Y265297D01*
X436202Y270998D01*
Y272795D01*
G03X436574Y274647I-1202J1205D01*
G37*
%LPC*%
G75*
G36*
G01X126927Y65385D02*
X127005Y65389D01*
X127284Y65668D01*
Y65983D01*
X130203Y68902D01*
X130162Y69021D01*
G02X132021Y67162I2838J979D01*
G01X131902Y67203D01*
X129686Y64987D01*
Y64672D01*
X128704Y63690D01*
X128700Y63612D01*
G02X126927Y65385I-1700J73D01*
G37*
G36*
G01X72654Y84548D02*
Y83155D01*
G02X70198Y83101I-1202J-1205D01*
G01X70250Y83158D01*
Y83552D01*
X69298Y84504D01*
Y88795D01*
G02X71702I1202J1205D01*
G01Y85500D01*
X72654Y84548D01*
G37*
G36*
G01X49202Y86205D02*
G02X46798I-1202J-1205D01*
G01Y91295D01*
G02X49202I1202J1205D01*
G01Y86205D01*
G37*
G36*
G01X84298Y93705D02*
Y98452D01*
X79455Y103296D01*
X79377Y103300D01*
G02X81150Y105073I73J1700D01*
G01X81154Y104995D01*
X86702Y99448D01*
Y93705D01*
G02X84298I-1202J-1205D01*
G37*
G36*
G01X26898Y97998D02*
X25751D01*
G02X25564Y100762I-2751J1202D01*
G03X26188Y100687I342J208D01*
G01X26702Y101202D01*
X36795D01*
G02Y98798I1205J-1202D01*
G01X27698D01*
X26898Y97998D01*
G37*
G36*
G01X96795Y112798D02*
X96002D01*
X85505Y123296D01*
X85427Y123300D01*
G02X83929Y124344I72J1700D01*
G03X83278Y124473I-369J-154D01*
G01X82086Y123281D01*
Y121162D01*
G02X78482I-1802J0D01*
G01Y124773D01*
X83511Y129802D01*
X87489D01*
X92989Y124302D01*
X100500D01*
G02Y120698I0J-1802D01*
G01X92466D01*
G03X92183Y120016I0J-400D01*
G01X96894Y115305D01*
X97032Y115400D01*
G02X96795Y112798I968J-1400D01*
G37*
G36*
G01X73398Y126298D02*
X72204Y125105D01*
X72200Y125027D01*
G02X70427Y126800I-1700J73D01*
G01X70505Y126804D01*
X72402Y128702D01*
X74295D01*
G02X74298Y128705I1205J-1202D01*
G01Y130239D01*
G03X73616Y130522I-400J0D01*
G01X71993Y128898D01*
X70798D01*
X70683Y128784D01*
X70603D01*
X70103Y128284D01*
X69483D01*
X69204Y128005D01*
X69200Y127927D01*
G02X67427Y129700I-1700J73D01*
G01X67505Y129704D01*
X68487Y130686D01*
X69107D01*
X69509Y131088D01*
X69364Y131233D01*
X69360Y131236D01*
G02X69295Y131298I1142J1262D01*
G01X63498D01*
X60704Y128505D01*
X60700Y128427D01*
G02X58927Y130200I-1700J73D01*
G01X59005Y130204D01*
X62502Y133702D01*
X69295D01*
G02X69298Y133705I1205J-1202D01*
G01Y142002D01*
X67654Y143647D01*
Y145732D01*
G02X67558Y148039I1201J1205D01*
G03X67254Y148698I-304J259D01*
G01X66705D01*
G02Y151102I-1205J1202D01*
G01X69785D01*
X71427Y149459D01*
G03X72057Y149542I283J283D01*
G02X75232Y148766I1475J-849D01*
G01X75236Y148688D01*
X76702Y147223D01*
Y128705D01*
G02X74295Y126298I-1202J-1205D01*
G01X73398D01*
G37*
G36*
G01X19702Y141202D02*
X20203Y141702D01*
X20162Y141821D01*
G02X22021Y139962I2838J979D01*
G01X21902Y140003D01*
X20698Y138798D01*
X9205D01*
G02Y141202I-1205J1202D01*
G01X19702D01*
G37*
G36*
G01X33201Y189108D02*
X33082Y189149D01*
X32832Y188898D01*
X25678D01*
G03X25363Y188252I0J-400D01*
G02X20571Y188164I-2363J-1852D01*
G03X20247Y188798I-324J234D01*
G01X16705D01*
G02Y191202I-1205J1202D01*
G01X20869D01*
X20969Y191302D01*
X30787D01*
G03X31186Y191730I0J400D01*
G02X33201Y189108I2994J216D01*
G37*
G36*
G01X81135Y191001D02*
X81213Y191005D01*
X81492Y191284D01*
Y191691D01*
X81798Y191998D01*
Y198795D01*
G02X84202I1202J1205D01*
G01Y191002D01*
X83894Y190695D01*
Y190288D01*
X82912Y189306D01*
X82908Y189228D01*
G02X81135Y191001I-1700J73D01*
G37*
G36*
G01X74746Y190651D02*
X74798Y190708D01*
X74799Y191117D01*
G03X74457Y191258I-200J0D01*
G01X73204Y190005D01*
X73200Y189927D01*
G02X71427Y191700I-1700J73D01*
G01X71505Y191704D01*
X72398Y192598D01*
Y193359D01*
G03X71904Y193748I-400J0D01*
G02X70246Y196552I-404J1653D01*
G01X70298Y196609D01*
Y197003D01*
X69298Y198003D01*
Y202402D01*
X68798Y202902D01*
Y204295D01*
G02X71254Y204349I1202J1205D01*
G01X71202Y204292D01*
Y203898D01*
X71702Y203398D01*
Y198999D01*
X72702Y197999D01*
Y196606D01*
G02X73180Y195672I-1202J-1205D01*
G03X73858Y195452I395J63D01*
G01X74298Y195893D01*
Y206295D01*
G02X76702I1202J1205D01*
G01Y203383D01*
G03X77043Y203242I200J1D01*
G01X77296Y203495D01*
X77300Y203573D01*
G02X79073Y201800I1700J-73D01*
G01X78995Y201796D01*
X78716Y201517D01*
Y193517D01*
X77202Y192002D01*
Y190705D01*
G02X74746Y190651I-1202J-1205D01*
G37*
G36*
G01X20162Y198279D02*
X20203Y198398D01*
X17287Y201314D01*
G03X16718Y201311I-283J-283D01*
G02X14295Y201298I-1218J1189D01*
G01X11607D01*
X9398Y203507D01*
Y206493D01*
X11507Y208602D01*
X16756D01*
X21310Y204048D01*
X31429D01*
G02Y201644I2751J-1202D01*
G01X21320D01*
G03X21037Y200962I0J-400D01*
G01X21902Y200097D01*
X22021Y200138D01*
G02X20162Y198279I979J-2838D01*
G37*
G36*
G01X65128Y196910D02*
X65185Y196963D01*
G02X65131Y194508I1151J-1253D01*
G01X63738D01*
X63447Y194798D01*
X56502D01*
X38756Y212544D01*
X36931D01*
G02X32328Y211383I-2751J1202D01*
G03X31682Y211068I-246J-315D01*
G01Y209482D01*
X29704Y207505D01*
X29700Y207427D01*
G02X26425Y206855I-1700J73D01*
G03X25696Y206879I-370J-152D01*
G02X20162Y209179I-2696J1320D01*
G01X20203Y209298D01*
X11798Y217702D01*
Y221295D01*
G02X14202I1202J1205D01*
G01Y218698D01*
X21902Y210997D01*
X22021Y211038D01*
G02X25955Y208730I979J-2838D01*
G03X26663Y208553I394J70D01*
G02X27927Y209200I1337J-1053D01*
G01X28005Y209204D01*
X29278Y210478D01*
Y215777D01*
X32149Y218648D01*
X36211D01*
X36796Y218062D01*
X37381Y218648D01*
X37448D01*
X75575Y256775D01*
G03X75493Y257403I-283J282D01*
G02X79917Y260709I1507J2597D01*
G03X80589Y260521I389J94D01*
G01X86569Y266502D01*
X213431D01*
X218731Y261202D01*
X220249D01*
G02X222639Y262980I2751J-1202D01*
G03X222874Y263660I-48J397D01*
G01X219035Y267498D01*
X67495D01*
G03X67281Y266761I0J-400D01*
G02X56239Y255719I-4281J-6761D01*
G03X55502Y255505I-337J-214D01*
G01Y244268D01*
X36977Y225744D01*
X37018Y225625D01*
G02X35159Y227484I-2838J-979D01*
G01X35278Y227443D01*
X53098Y245264D01*
Y264102D01*
X58898Y269902D01*
X220031D01*
X227902Y262031D01*
Y257969D01*
X225031Y255098D01*
X216202D01*
X214098Y257203D01*
X213979Y257162D01*
G02X212639Y262980I-979J2838D01*
G03X212874Y263660I-48J397D01*
G01X212435Y264098D01*
X130799D01*
G03X130516Y263416I0J-400D01*
G01X131902Y262031D01*
Y261565D01*
X133340Y260126D01*
G03X134020Y260361I283J283D01*
G02X139363Y258148I2980J-361D01*
G03X139678Y257502I315J-246D01*
G01X144322D01*
G03X144637Y258148I0J400D01*
G02X149363I2363J1852D01*
G03X149678Y257502I315J-246D01*
G01X154322D01*
G03X154637Y258148I0J400D01*
G02X159363I2363J1852D01*
G03X159678Y257502I315J-246D01*
G01X164322D01*
G03X164637Y258148I0J400D01*
G02X169363I2363J1852D01*
G03X169678Y257502I315J-246D01*
G01X180322D01*
G03X180637Y258148I0J400D01*
G02X185363I2363J1852D01*
G03X185678Y257502I315J-246D01*
G01X190322D01*
G03X190637Y258148I0J400D01*
G02X195363I2363J1852D01*
G03X195678Y257502I315J-246D01*
G01X198802D01*
X200203Y258902D01*
X200162Y259021D01*
G02X202021Y257162I2838J979D01*
G01X201902Y257203D01*
X199798Y255098D01*
X134969D01*
X130589Y259479D01*
G03X129917Y259291I-283J-282D01*
G02X126021Y257162I-2917J709D01*
G01X125902Y257203D01*
X122198Y253498D01*
X103697D01*
X103497Y253698D01*
X102503D01*
X100197Y251393D01*
G03X100198Y251109I141J-142D01*
G02X99073Y248200I-1198J-1209D01*
G01X98995Y248196D01*
X98716Y247917D01*
Y247915D01*
X97618Y246816D01*
G03X97634Y246235I282J-283D01*
G02X95349Y243712I-1134J-1269D01*
G01X95292Y243764D01*
X95033D01*
G03X94871Y243448I0J-200D01*
G02X92285Y241252I-1381J-994D01*
G01X88913D01*
G03X88630Y240569I0J-400D01*
G01X90495Y238704D01*
X90573Y238700D01*
G02X88800Y236927I-73J-1700D01*
G01X88796Y237005D01*
X87002Y238798D01*
X84393D01*
X81993Y236398D01*
X78598D01*
X77204Y235005D01*
X77200Y234927D01*
G02X75427Y236700I-1700J73D01*
G01X75505Y236704D01*
X77602Y238802D01*
X78556D01*
G03X78926Y239353I0J400D01*
G02X80427Y241700I1574J647D01*
G01X80505Y241704D01*
X82455Y243654D01*
X83660D01*
G03X84011Y244246I0J400D01*
G02X83819Y245287I1495J814D01*
G01X83833Y245386D01*
X83621Y245597D01*
X83308Y245284D01*
X82483D01*
X82204Y245005D01*
X82200Y244927D01*
G02X80427Y246700I-1700J73D01*
G01X80505Y246704D01*
X81487Y247686D01*
X82312D01*
X83694Y249069D01*
Y249070D01*
X84924Y250299D01*
G03X84804Y250947I-283J283D01*
G02X86705Y253702I696J1553D01*
G01X99107D01*
X100022Y254616D01*
G03X99739Y255299I-283J283D01*
G01X99231D01*
X99031Y255098D01*
X81295D01*
X79695Y253498D01*
X77961D01*
X39810Y215348D01*
Y214889D01*
X57498Y197202D01*
X64443D01*
X64734Y196910D01*
X65128D01*
G37*
G36*
G01X427708Y140498D02*
X408792D01*
X405498Y143792D01*
Y165708D01*
X408292Y168502D01*
X429208D01*
X431502Y166208D01*
Y144292D01*
X427708Y140498D01*
G37*
G36*
G01X381812Y271739D02*
X381816Y271661D01*
X384202Y269276D01*
Y264205D01*
G02X381798I-1202J-1205D01*
G01Y268280D01*
X380117Y269962D01*
X380039Y269966D01*
G02X381812Y271739I73J1700D01*
G37*
G36*
G01X450162Y263479D02*
X450203Y263598D01*
X445784Y268017D01*
Y268517D01*
X445505Y268796D01*
X445427Y268800D01*
G02X447200Y270573I73J1700D01*
G01X447204Y270495D01*
X448186Y269513D01*
Y269013D01*
X451902Y265297D01*
X452021Y265338D01*
G02X455597Y260994I979J-2838D01*
G02X454506Y259903I-1197J106D01*
G02X450162Y263479I-1506J2597D01*
G37*
G36*
G01X332662D02*
X332703Y263598D01*
X330987Y265314D01*
X328987D01*
X328005Y266296D01*
X327927Y266300D01*
G02X329700Y268073I73J1700D01*
G01X329704Y267995D01*
X329983Y267716D01*
X331983D01*
X334402Y265297D01*
X334521Y265338D01*
G02X332662Y263479I979J-2838D01*
G37*
G36*
G01X462021Y259662D02*
X461902Y259703D01*
X460189Y257990D01*
X460185Y257912D01*
G02X458412Y259685I-1700J73D01*
G01X458490Y259689D01*
X460203Y261402D01*
X460162Y261521D01*
G02X462021Y259662I2838J979D01*
G37*
G36*
G01X433632Y231568D02*
X428963Y226898D01*
X426377D01*
X426346Y226888D01*
G02X425254I-546J1612D01*
G01X425223Y226898D01*
X423963D01*
X422963Y225898D01*
X390777D01*
X390746Y225888D01*
G02Y229112I-546J1612D01*
G01X390777Y229102D01*
X421637D01*
X422637Y230102D01*
X425223D01*
X425254Y230112D01*
G02X426346I546J-1612D01*
G01X426377Y230102D01*
X427637D01*
X431368Y233832D01*
G02X433632Y231568I1132J-1132D01*
G37*
G36*
G01X318888Y228046D02*
X318898Y228077D01*
Y247923D01*
X318888Y247954D01*
G02X322112I1612J546D01*
G01X322102Y247923D01*
Y228077D01*
X322112Y228046D01*
G02X318888I-1612J-546D01*
G37*
G36*
G01X455329Y227323D02*
G03X454948Y227799I-393J76D01*
G02X453746Y230651I52J1701D01*
G01X453798Y230708D01*
Y231169D01*
X453490D01*
X453430Y231078D01*
G02X450798Y233205I-1431J922D01*
G01Y234904D01*
X450300Y235402D01*
Y236795D01*
G02X452149Y239574I1202J1205D01*
G03X452700Y239944I151J370D01*
G01Y239993D01*
X453298Y240591D01*
Y241295D01*
G02X455702I1202J1205D01*
G01Y240592D01*
G03X456140Y240194I400J0D01*
G02X457785Y239334I162J-1694D01*
G03X458483I349J197D01*
G02X461168Y237295I1484J-834D01*
G01Y233600D01*
X460766Y233199D01*
Y232740D01*
X460819Y232683D01*
G02X459109Y229892I-1254J-1151D01*
G03X458602Y229507I-107J-385D01*
G01Y228007D01*
X458468Y227874D01*
X458530Y227745D01*
G02X455329Y227323I-1530J-745D01*
G37*
G36*
G01X136573Y206300D02*
X136495Y206296D01*
X134998Y204798D01*
X130289D01*
G02Y207202I-3289J1202D01*
G01X134002D01*
X134796Y207995D01*
X134800Y208073D01*
G02X136573Y206300I1700J-73D01*
G37*
G36*
G01X459573Y208800D02*
X459495Y208796D01*
X458402Y207702D01*
Y196202D01*
X456176Y193976D01*
G02X454355Y195729I-3176J-1476D01*
G01X454478Y195678D01*
X455998Y197198D01*
Y198998D01*
X449498D01*
Y206002D01*
X455998D01*
Y208698D01*
X457796Y210495D01*
X457800Y210573D01*
G02X459573Y208800I1700J-73D01*
G37*
G36*
G01X375573Y207300D02*
X375495Y207296D01*
X375002Y206802D01*
Y206002D01*
X381502D01*
Y198998D01*
X375002D01*
Y197198D01*
X376522Y195678D01*
X376645Y195729D01*
G02X374824Y193976I1355J-3229D01*
G01X372598Y196202D01*
Y207798D01*
X373796Y208995D01*
X373800Y209073D01*
G02X375573Y207300I1700J-73D01*
G37*
G36*
G01X379355Y145729D02*
X379478Y145678D01*
X381502Y147702D01*
X383795D01*
G02Y145298I1205J-1202D01*
G01X382498D01*
X381178Y143978D01*
X381229Y143855D01*
G02X379355Y145729I-3229J-1355D01*
G37*
G36*
G01X147300Y138927D02*
X147296Y139005D01*
X144298Y142002D01*
Y145058D01*
G02X146702I1202J1205D01*
G01Y142998D01*
X148995Y140704D01*
X149073Y140700D01*
G02X147300Y138927I-73J-1700D01*
G37*
G36*
G01X212746Y137526D02*
X212776Y137541D01*
X214898Y139663D01*
Y142423D01*
X214888Y142454D01*
G02X218112I1612J546D01*
G01X218102Y142423D01*
Y138337D01*
X215041Y135276D01*
X215026Y135246D01*
G02X212746Y137526I-1526J754D01*
G37*
G36*
G01X463573Y146800D02*
X463495Y146796D01*
X457998Y141298D01*
X456289D01*
G02Y143702I-3289J1202D01*
G01X457002D01*
X461796Y148495D01*
X461800Y148573D01*
G02X462543Y149908I1700J-72D01*
G03X462639Y150479I-224J331D01*
G02X465700Y151573I1361J1022D01*
G01X465704Y151495D01*
X467102Y150098D01*
Y144902D01*
X456176Y133976D01*
G02X454355Y135729I-3176J-1476D01*
G01X454478Y135678D01*
X464698Y145898D01*
Y146556D01*
G03X464147Y146926I-400J0D01*
G02X463573Y146800I-646J1574D01*
G37*
G36*
G01X379202Y89211D02*
Y85998D01*
X383495Y81704D01*
X383573Y81700D01*
G02X381800Y79927I-73J-1700D01*
G01X381796Y80005D01*
X376798Y85002D01*
Y89211D01*
G02X379202I1202J3289D01*
G37*
G36*
G01X269249Y66654D02*
X269306Y66602D01*
X269700D01*
X270698Y67600D01*
Y70997D01*
X270236Y71460D01*
Y71670D01*
X269734Y72172D01*
X269599Y72088D01*
G02X267000Y73460I-899J1445D01*
G01X266996Y73538D01*
X262035Y78498D01*
X258234D01*
X254458Y82274D01*
X253526D01*
X252502Y83298D01*
X249002D01*
X245798Y86502D01*
Y88795D01*
G02X245429Y89344I1201J1206D01*
G03X244777Y89473I-369J-154D01*
G01X244205Y88900D01*
X241205D01*
G02Y91304I-1205J1202D01*
G01X243209D01*
X245507Y93602D01*
X248493D01*
X250602Y91493D01*
Y88493D01*
X251793Y87302D01*
X254161D01*
X255185Y86278D01*
X255283D01*
G03X255650Y86836I0J400D01*
G02X265224Y82313I7350J3164D01*
G03X265053Y81646I112J-384D01*
G01X269498Y77202D01*
X270998D01*
X271158Y77041D01*
G03X271499Y77182I141J142D01*
G01X271500Y79630D01*
X272868Y80998D01*
Y85295D01*
G02X275270I1201J1205D01*
G01Y84652D01*
G03X275918Y84338I400J0D01*
G02X278224Y81849I1052J-1338D01*
G01X278172Y81792D01*
Y81336D01*
G03X278854Y81053I400J0D01*
G01X279296Y81495D01*
X279300Y81573D01*
G02X281073Y79800I1700J-73D01*
G01X280995Y79796D01*
X280716Y79517D01*
Y79407D01*
G03X281285Y79044I400J0D01*
G02X283202Y76295I715J-1544D01*
G01Y74998D01*
X285495Y72704D01*
X285573Y72700D01*
G02X283800Y70927I-73J-1700D01*
G01X283796Y71005D01*
X283380Y71421D01*
G03X282698Y71112I-283J-283D01*
G02X279300Y70927I-1698J-112D01*
G01X279296Y71005D01*
X278324Y71977D01*
X278182Y71835D01*
G02X275439Y72287I-1212J1195D01*
G03X274778Y72376I-360J-175D01*
G02X273501Y71798I-1278J1124D01*
G03X273102Y71398I1J-400D01*
G01Y66604D01*
X270696Y64198D01*
X269303D01*
G02X269249Y66654I-1205J1202D01*
G37*
G36*
G01X366917Y229557D02*
G02X364298Y231705I-1417J943D01*
G01Y259749D01*
G02X366702I1202J2751D01*
G01Y231705D01*
G02X366917Y231443I-1202J-1205D01*
G03X367583I333J221D01*
G02X368927Y232200I1417J-943D01*
G01X369005Y232204D01*
X374298Y237498D01*
Y259749D01*
G02X376702I1202J2751D01*
G01Y236502D01*
X370704Y230505D01*
X370700Y230427D01*
G02X367583Y229557I-1700J73D01*
G03X366917I-333J-221D01*
G37*
G36*
G01X150705Y149202D02*
X152888D01*
G03X153156Y149899I0J400D01*
G02X156976Y155676I2345J2601D01*
G01X162098Y160798D01*
Y164762D01*
G03X161375Y164997I-400J0D01*
G02X161202Y164795I-1375J1003D01*
G01Y160562D01*
X157738Y157098D01*
X153262D01*
X151384Y158977D01*
G03X150702Y158694I-282J-283D01*
G01Y157705D01*
G02X148298I-1202J-1205D01*
G01Y158902D01*
X143798Y163402D01*
Y164795D01*
G02X143426Y166647I1202J1205D01*
G03X143056Y167198I-370J151D01*
G01X141719D01*
G03X141440Y166512I0J-400D01*
G02X142176Y162524I-2440J-2512D01*
G01X145495Y159204D01*
X145573Y159200D01*
G02X143800Y157427I-73J-1700D01*
G01X143796Y157505D01*
X140476Y160824D01*
G02X136560Y166512I-1476J3176D01*
G03X136281Y167198I-279J286D01*
G01X134102D01*
X128802Y172498D01*
X123498D01*
Y179502D01*
X130502D01*
Y174198D01*
X135098Y169602D01*
X140734D01*
G03X141017Y170284I0J400D01*
G01X140476Y170824D01*
G02X142176Y172524I-1476J3176D01*
G01X143498Y171202D01*
X147997D01*
X149697Y169502D01*
X152589D01*
G03X152888Y170168I0J400D01*
G02X157793Y169853I2612J2332D01*
G01X157723Y169793D01*
Y169502D01*
X158407D01*
X158507Y169602D01*
X160402D01*
X160796Y169995D01*
X160800Y170073D01*
G02X163147Y171574I1700J-73D01*
G03X163698Y171944I151J370D01*
G01Y172102D01*
X161505Y174296D01*
X161427Y174300D01*
G02X163200Y176073I73J1700D01*
G01X163204Y175995D01*
X164616Y174583D01*
G03X165298Y174866I282J283D01*
G01Y203502D01*
X165005Y203796D01*
X164927Y203800D01*
X164918D01*
G03X164538Y203229I-19J-400D01*
G02X161795Y201298I-1538J-729D01*
G01X159002D01*
Y198998D01*
X152002D01*
Y194872D01*
G03X152719Y194628I400J0D01*
G02X154366Y189187I2781J-2128D01*
G01X154335Y189197D01*
X154102D01*
Y188658D01*
X156202Y186558D01*
Y185935D01*
X156353Y185897D01*
G02X152007Y182243I-853J-3397D01*
G03X151398Y182554I-399J-29D01*
G02X149295Y182798I-898J1446D01*
G01X145438D01*
X141238Y178598D01*
X132702D01*
X128476Y182824D01*
G02X130176Y184524I-1476J3176D01*
G01X133698Y181002D01*
X136089D01*
G03X136388Y181668I0J400D01*
G02X140476Y187176I2612J2332D01*
G01X142002Y188702D01*
X149295D01*
G02X149844Y189071I1206J-1201D01*
G03X149973Y189723I-154J369D01*
G01X149598Y190097D01*
Y201702D01*
X128476Y222824D01*
G02X130229Y224645I-1476J3176D01*
G01X130178Y224522D01*
X151316Y203383D01*
G03X151999Y203666I283J283D01*
G01X151998Y206002D01*
X159002D01*
Y203702D01*
X161795D01*
G02X163082Y204200I1205J-1202D01*
G03X163462Y204771I19J400D01*
G02X166213Y206694I1538J729D01*
G03X166898Y206974I285J280D01*
G01Y207098D01*
X167296Y207495D01*
X167300Y207573D01*
G02X169449Y205858I1700J-73D01*
G01X169302Y205818D01*
Y167181D01*
X167702Y165581D01*
Y157705D01*
G02X164820Y156225I-1202J-1205D01*
G03X164143Y156444I-395J-64D01*
G01X160902Y153202D01*
Y150262D01*
X157438Y146798D01*
X150705D01*
G02Y149202I-1205J1202D01*
G37*
G54D22*
X233000Y260000D03*
X243000D03*
X253000D03*
Y70000D03*
X243000D03*
X233000D03*
X223000D03*
X213000D03*
X203000D03*
X183000D03*
X153000D03*
X143000D03*
X123000D03*
X113000D03*
X66500Y30000D03*
X23000Y230000D03*
Y219100D03*
Y175500D03*
Y164600D03*
Y153700D03*
Y131900D03*
Y121000D03*
Y110100D03*
X131500Y24000D03*
X121500D03*
X179000D03*
X169000D03*
X226000D03*
X216000D03*
X273000D03*
X263000D03*
X310000D03*
X315500Y262500D03*
X305500D03*
X320000Y24000D03*
X345500Y262500D03*
X325500D03*
X367000Y24000D03*
X357000D03*
X355500Y262500D03*
X433000D03*
X423000D03*
X413000D03*
X438000Y217000D03*
Y229000D03*
X483000Y262500D03*
X473000D03*
G54D26*
X127000Y108000D03*
Y98000D03*
Y138000D03*
Y128000D03*
Y118000D03*
Y196000D03*
Y216000D03*
X155500Y92500D03*
Y102500D03*
X139000Y144000D03*
X155500Y122500D03*
Y132500D03*
Y142500D03*
X139000Y154000D03*
X228000Y92500D03*
Y102500D03*
Y122500D03*
Y132500D03*
Y142500D03*
Y152500D03*
Y162500D03*
Y172500D03*
Y182500D03*
Y192500D03*
X303000Y92500D03*
Y102500D03*
Y122500D03*
Y132500D03*
Y142500D03*
Y152500D03*
Y162500D03*
Y172500D03*
Y182500D03*
Y192500D03*
X378000Y102500D03*
Y122500D03*
Y132500D03*
Y152500D03*
Y162500D03*
Y172500D03*
Y182500D03*
X453000Y92500D03*
Y102500D03*
Y122500D03*
Y152500D03*
Y162500D03*
Y172500D03*
Y182500D03*
G54D24*
X15000Y39780D03*
X480500Y50000D03*
G54D23*
X58000Y70000D03*
X263000Y200000D03*
G54D25*
X101500Y24000D03*
X149000D03*
X196000D03*
X243000D03*
X290000D03*
X337000D03*
G54D27*
X127000Y88000D03*
X139000Y134000D03*
X228000Y202500D03*
X303000D03*
%LPD*%
G75*
G36*
G01X100645Y258204D02*
G02X100271Y258747I0J400D01*
G03X99011Y262869I-3272J1254D01*
G02X99240Y263596I229J327D01*
G01X104759D01*
G02X104989Y262869I0J-400D01*
G03X103729Y258747I2011J-2868D01*
G02X103355Y258204I-374J-143D01*
G01X100645D01*
G37*
G36*
G01X90562Y258004D02*
G02X90197Y258567I0J400D01*
G03X89011Y262869I-3197J1433D01*
G02X89240Y263596I230J327D01*
G01X94759D01*
G02X94989Y262869I0J-400D01*
G03X93803Y258567I2011J-2869D01*
G02X93438Y258004I-365J-163D01*
G01X90562D01*
G37*
G36*
G01X119011Y257131D02*
G03X120197Y261433I-2011J2869D01*
G02X120562Y261996I365J163D01*
G01X123438D01*
G02X123803Y261433I0J-400D01*
G03X123602Y259147I3197J-1433D01*
G01X123629Y259038D01*
X120994Y256404D01*
X119240D01*
G02X119011Y257131I1J400D01*
G37*
G36*
G01X151321Y162438D02*
X148800Y164959D01*
Y167098D01*
X158017D01*
G02X158395Y166566I1J-400D01*
G03X158746Y164849I1605J-566D01*
G01X158798Y164792D01*
Y164326D01*
X158490D01*
X158431Y164416D01*
G03X152004Y162698I-2931J-1916D01*
G02X151321Y162438I-400J22D01*
G37*
G36*
G01X143179Y183938D02*
G02X142496Y184198I-283J282D01*
G03X142176Y185476I-3496J-196D01*
G01X142998Y186298D01*
X149295D01*
G03X149557Y186083I1205J1202D01*
G02Y185417I-221J-333D01*
G03X149295Y185202I943J-1417D01*
G01X144442D01*
X143179Y183938D01*
G37*
G36*
G01X275768Y74235D02*
G03X275692Y74154I1203J-1204D01*
G02X275031Y74243I-301J264D01*
G03X274690Y74717I-1532J-742D01*
G01X274653Y74753D01*
X274641Y74789D01*
X274605Y74962D01*
G03X274429Y75384I-1178J-243D01*
G01X274361Y75486D01*
X273904Y75943D01*
Y77997D01*
X273902Y78000D01*
Y78634D01*
X275270Y80002D01*
Y81830D01*
G02X275628Y81953I200J0D01*
G03X275768Y81795I1341J1048D01*
G01Y74235D01*
G37*
G36*
G01X406000Y144000D02*
Y165500D01*
X408500Y168000D01*
X429000D01*
X431000Y166000D01*
Y144500D01*
X427500Y141000D01*
X409000D01*
X406000Y144000D01*
G37*
G54D10*
X15000Y39780D03*
Y26000D03*
X480500Y20000D03*
Y35000D03*
Y50000D03*
G54D20*
G01X99500Y66000D02*
Y63500D01*
X100086Y62914D01*
Y59639D01*
X81436Y40989D01*
Y23991D01*
X81471Y23814D01*
X81512Y23722D01*
Y22546D01*
X78966Y20000D01*
X66500D01*
G01X216500Y143000D02*
Y139000D01*
X213500Y136000D01*
G01X393000Y276500D02*
X287100D01*
X285500Y274900D01*
Y262500D01*
G01X320500Y227500D02*
Y248500D01*
G01X425800Y228500D02*
X423300D01*
X422300Y227500D01*
X390200D01*
G01X499600Y240000D02*
Y275030D01*
X499523Y275412D01*
X499373Y275776D01*
X499265Y275939D01*
X498712Y276492D01*
X498547Y276601D01*
X498183Y276752D01*
X497949Y276800D01*
X433840D01*
X433540Y276500D01*
X393000D01*
G01Y262500D02*
Y276500D01*
G01X432500Y232700D02*
X428300Y228500D01*
X425800D01*
G01X496500Y11000D02*
Y13237D01*
G01D02*
X499600Y16337D01*
Y240000D01*
G54D11*
X8000Y140000D03*
X13000Y222500D03*
Y205000D03*
X25000Y22300D03*
X34500Y53500D03*
X38000Y100000D03*
X15500Y190000D03*
Y202500D03*
X28000Y207500D03*
X61500Y17000D03*
X71452Y81950D03*
X70500Y90000D03*
X48000Y85000D03*
Y92500D03*
X62000Y90000D03*
X70500Y125100D03*
X67500Y128000D03*
X59000Y128500D03*
X70500Y132500D03*
X73532Y148693D03*
X65500Y149900D03*
X68855Y146937D03*
X71500Y190000D03*
X66336Y195709D03*
X71500Y195401D03*
X70000Y205500D03*
X101500Y12500D03*
X99500Y66000D03*
X86000Y80500D03*
X79450Y105000D03*
X85500Y92500D03*
X84500Y104000D03*
X75500Y127500D03*
X100500Y122500D03*
X80284Y121162D03*
X85500Y125000D03*
X98000Y114000D03*
X97500Y117000D03*
X97000Y126000D03*
X82000Y150500D03*
X96000Y166500D03*
X76000Y189500D03*
X81208Y189301D03*
X83000Y200000D03*
X79000Y203500D03*
X75500Y207500D03*
X95250Y209250D03*
X80500Y240000D03*
X93490Y242453D03*
X80500Y245000D03*
X95294Y250015D03*
X85506Y245059D03*
X96500Y244966D03*
X99000Y249900D03*
X87296Y247577D03*
X85500Y252500D03*
X75500Y235000D03*
X90500Y237000D03*
X105000Y239500D03*
X129500Y36300D03*
X109500Y79000D03*
X127000Y63685D03*
X113630Y121244D03*
X119500Y168470D03*
X126500Y164000D03*
X110500Y213000D03*
X122000Y233000D03*
X149000Y13500D03*
Y139000D03*
X162000Y117500D03*
X160000Y166000D03*
X149500Y148000D03*
X145500Y146263D03*
Y157500D03*
X145000Y166000D03*
X149500Y156500D03*
X162500Y170000D03*
X150500Y184000D03*
Y187500D03*
X161500Y176000D03*
X165000Y205500D03*
X136500Y208000D03*
X163000Y202500D03*
X177200Y36500D03*
X181000Y129500D03*
X191500D03*
X181000Y120500D03*
X192000D03*
X166500Y156500D03*
X182500Y142500D03*
X169000Y207500D03*
X196000Y11500D03*
X224000Y36300D03*
X213500Y136000D03*
X216500Y143000D03*
X243000Y12000D03*
X240000Y90102D03*
X247000Y90000D03*
X243500Y120500D03*
X253000Y122000D03*
Y130500D03*
X269000Y38500D03*
X268098Y65400D03*
X273500Y73500D03*
X276970Y73030D03*
X282000Y77500D03*
X281000Y71000D03*
Y81500D03*
X268700Y73533D03*
X274069Y86500D03*
X276970Y83000D03*
X263000Y122000D03*
Y130500D03*
X284000Y248500D03*
X283500Y235500D03*
X290000Y12000D03*
X285500Y71000D03*
X295000Y248000D03*
Y235500D03*
X337000Y11500D03*
X316500Y37500D03*
X317500Y116000D03*
X339500Y120500D03*
X327000D03*
X327500Y129500D03*
X338500D03*
X320500Y227500D03*
X329500Y253500D03*
X320500Y248500D03*
X328000Y268000D03*
X361500Y37000D03*
X369000Y230500D03*
X365500D03*
X383500Y11500D03*
Y80000D03*
X393000Y117500D03*
X401500Y119500D03*
X402000Y128500D03*
X385000Y146500D03*
X375500Y209000D03*
X390200Y227500D03*
X403500Y246000D03*
X397400Y245900D03*
X387250Y246500D03*
X386500Y241500D03*
X383000Y263000D03*
X380112Y271666D03*
X429200Y55500D03*
X413500Y119500D03*
X414000Y128500D03*
X426000Y166500D03*
X421000D03*
X417000D03*
X412500Y166000D03*
X408500D03*
X427500Y143000D03*
X424000D03*
X420000D03*
X416000Y142500D03*
X411500Y143000D03*
X423000Y209500D03*
X425800Y228500D03*
X421500Y253500D03*
X435000Y274000D03*
X452000Y19000D03*
X461000Y56000D03*
X464000Y151500D03*
X439000Y166500D03*
X463500Y148500D03*
X459565Y231532D03*
X459500Y210500D03*
X457000Y227000D03*
X455000Y229500D03*
X452000Y232000D03*
X445125Y211375D03*
X459966Y238500D03*
X458485Y257985D03*
X456302Y238500D03*
X454500Y242500D03*
X451502Y238000D03*
X445500Y270500D03*
X467000Y117000D03*
X488000Y120000D03*
X478500D03*
X489000Y129000D03*
X478500D03*
G54D21*
G01X8000Y140000D02*
X20200D01*
X23000Y142800D01*
G01X13000Y222500D02*
Y218200D01*
X23000Y208200D01*
G01X13000Y205000D02*
X16395D01*
X17900Y203495D01*
Y202400D01*
X23000Y197300D01*
G01X15500Y202500D02*
X12105D01*
X10600Y204005D01*
Y205995D01*
X12005Y207400D01*
X16258D01*
X20812Y202846D01*
X34180D01*
G01X38000Y100000D02*
X27200D01*
X26400Y99200D01*
X23000D01*
G01X34180Y191946D02*
X32334Y190100D01*
X21467D01*
X21367Y190000D01*
X15500D01*
G01X34180Y224646D02*
X54300Y244766D01*
Y263604D01*
X59396Y268700D01*
X219533D01*
X226700Y261533D01*
Y258467D01*
X224533Y256300D01*
X216700D01*
X213000Y260000D01*
G01X37580Y213746D02*
X38609Y214775D01*
Y215846D01*
X77463Y254700D01*
X79197D01*
X80797Y256300D01*
X98533D01*
X98733Y256500D01*
X105267D01*
X105467Y256300D01*
X108533D01*
X113300Y261067D01*
Y261533D01*
X115467Y263700D01*
X128533D01*
X130700Y261533D01*
Y261067D01*
X135467Y256300D01*
X199300D01*
X203000Y260000D01*
G01X37580Y213746D02*
X34180D01*
G01X37580D02*
X39254D01*
X57000Y196000D01*
X63945D01*
X64236Y195709D01*
X66336D01*
G01X28000Y207500D02*
X30480Y209980D01*
Y215279D01*
X32647Y217446D01*
X35713D01*
X36796Y216363D01*
X37879Y217446D01*
X37946D01*
X76800Y256300D01*
X78533D01*
X80700Y258467D01*
Y258933D01*
X87067Y265300D01*
X212933D01*
X218233Y260000D01*
X223000D01*
G01X70500Y90000D02*
Y85002D01*
X71452Y84050D01*
Y81950D01*
G01X48000Y92500D02*
Y85000D01*
G01X75500Y127500D02*
X72900D01*
X70500Y125100D01*
G01X67500Y128000D02*
X68985Y129485D01*
X69605D01*
X70105Y129985D01*
X70185D01*
X70300Y130100D01*
X71495D01*
X72900Y131505D01*
Y145100D01*
X71255Y146745D01*
Y147932D01*
X69287Y149900D01*
X65500D01*
G01X70500Y132500D02*
Y142500D01*
X68855Y144145D01*
Y146937D01*
G01X70500Y132500D02*
X63000D01*
X59000Y128500D01*
G01X73532Y148693D02*
X75500Y146725D01*
Y127500D01*
G01X71500Y190000D02*
X73600Y192100D01*
Y193495D01*
X75500Y195395D01*
Y207500D01*
G01X70000Y205500D02*
Y203400D01*
X70500Y202900D01*
Y198501D01*
X71500Y197501D01*
Y195401D01*
G01X85500Y92500D02*
Y98950D01*
X79450Y105000D01*
G01X98000Y114000D02*
X96500D01*
X85500Y125000D01*
G01X79000Y203500D02*
X77515Y202015D01*
Y194015D01*
X76000Y192500D01*
Y189500D01*
G01X83000Y200000D02*
Y191500D01*
X82693Y191193D01*
Y190786D01*
X81208Y189301D01*
G01X93490Y242453D02*
X82953D01*
X80500Y240000D01*
G01X95294Y250015D02*
X93194D01*
X93179Y250000D01*
X89247D01*
X88781Y250466D01*
X86791D01*
X86302Y249977D01*
X86301D01*
X84896Y248572D01*
Y248571D01*
X82810Y246485D01*
X81985D01*
X80500Y245000D01*
G01X96500Y244966D02*
X93179D01*
X93145Y245000D01*
X87665D01*
X87606Y245059D01*
X85506D01*
G01X99000Y249900D02*
X97515Y248415D01*
Y248413D01*
X96602Y247500D01*
X89473D01*
X89396Y247577D01*
X87296D01*
G01X127000Y260000D02*
X121700Y254700D01*
X104195D01*
X103995Y254900D01*
X102005D01*
X99605Y252500D01*
X85500D01*
G01X90500Y237000D02*
X87500Y240000D01*
X83895D01*
X81495Y237600D01*
X78100D01*
X75500Y235000D01*
G01X133000Y70000D02*
X128485Y65485D01*
Y65170D01*
X127000Y63685D01*
G01X160000Y166000D02*
Y161060D01*
X157240Y158300D01*
X153760D01*
X147599Y164461D01*
Y166796D01*
X145995Y168400D01*
X134600D01*
X127000Y176000D01*
G01X150500Y184000D02*
X144940D01*
X140740Y179800D01*
X133200D01*
X127000Y186000D01*
G01X136500Y208000D02*
X134500Y206000D01*
X127000D01*
G01Y226000D02*
X150800Y202200D01*
Y190595D01*
X152900Y188495D01*
Y188160D01*
X155000Y186060D01*
Y182000D01*
G01X145500Y146263D02*
Y142500D01*
X149000Y139000D01*
G01X165000Y205500D02*
X166500Y204000D01*
Y168342D01*
X164900Y166742D01*
Y158900D01*
X159700Y153700D01*
Y150760D01*
X156940Y148000D01*
X149500D01*
G01X139000Y164000D02*
X145500Y157500D01*
G01X149500Y156500D02*
Y159400D01*
X145000Y163900D01*
Y166000D01*
G01X162500Y170000D02*
X160900Y168400D01*
X159005D01*
X158905Y168300D01*
X149199D01*
X147499Y170000D01*
X143000D01*
X139000Y174000D01*
G01X161500Y176000D02*
X164900Y172600D01*
Y169005D01*
X163300Y167405D01*
Y160300D01*
X155500Y152500D01*
G01X150500Y187500D02*
X142500D01*
X139000Y184000D01*
G01X155500Y202500D02*
X163000D01*
G01X166500Y156500D02*
Y166079D01*
X168100Y167679D01*
Y206600D01*
X169000Y207500D01*
G01X268098Y65400D02*
X270198D01*
X271900Y67102D01*
Y71495D01*
X271437Y71958D01*
Y72168D01*
X271100Y72505D01*
Y75400D01*
X270500Y76000D01*
X269000D01*
X263700Y81300D01*
X259395D01*
X255619Y85076D01*
X254687D01*
X253663Y86100D01*
X251295D01*
X249400Y87995D01*
Y90995D01*
X247995Y92400D01*
X246005D01*
X243707Y90102D01*
X240000D01*
G01X268700Y73533D02*
X262533Y79700D01*
X258732D01*
X254956Y83476D01*
X254024D01*
X253000Y84500D01*
X249500D01*
X247000Y87000D01*
Y90000D01*
G01X258000Y129500D02*
X257000Y130500D01*
X253000D01*
G01X272701Y77500D02*
Y79132D01*
X274069Y80500D01*
Y86500D01*
G01X272701Y75736D02*
Y77500D01*
G01X273500Y73500D02*
Y74410D01*
X273477Y74482D01*
X273428Y74717D01*
X273426Y74720D01*
X272702Y75445D01*
Y77499D01*
X272701Y77500D01*
G01X276970Y83000D02*
Y73030D01*
G01X282000Y77500D02*
Y74500D01*
X285500Y71000D01*
G01X281000D02*
X279515Y72485D01*
Y80015D01*
X281000Y81500D01*
G01X328000Y268000D02*
X329485Y266515D01*
X331485D01*
X335500Y262500D01*
G01X375500D02*
Y237000D01*
X369000Y230500D01*
G01X365500Y262500D02*
Y230500D01*
G01X378000Y92500D02*
Y85500D01*
X383500Y80000D01*
G01X385000Y146500D02*
X382000D01*
X378000Y142500D01*
G01X375500Y209000D02*
X373800Y207300D01*
Y196700D01*
X378000Y192500D01*
G01X380112Y271666D02*
X383000Y268778D01*
Y263000D01*
G01X405000Y14000D02*
X405500Y14500D01*
G01D02*
Y24000D01*
G01X464000Y151500D02*
X465900Y149600D01*
Y145400D01*
X453000Y132500D01*
G01X463500Y148500D02*
X457500Y142500D01*
X453000D01*
G01X459500Y210500D02*
X457200Y208200D01*
Y196700D01*
X453000Y192500D01*
G01X457000Y227000D02*
Y228105D01*
X457400Y228505D01*
Y230495D01*
X456600Y231295D01*
Y237070D01*
X456500Y237170D01*
Y238698D01*
X456302Y238500D01*
G01X455000Y229500D02*
Y236191D01*
X453902Y237289D01*
Y239495D01*
X454500Y240093D01*
Y242500D01*
G01X459966Y238500D02*
Y234098D01*
X459565Y233697D01*
Y231532D01*
G01X463000Y262500D02*
X458485Y257985D01*
G01X452000Y232000D02*
Y235402D01*
X451502Y235900D01*
Y238000D01*
G01X445500Y270500D02*
X446985Y269015D01*
Y268515D01*
X453000Y262500D01*
G01X454400Y261100D02*
X453000Y262500D01*
G01X435000Y274000D02*
Y270500D01*
X443000Y262500D01*
G01X480500Y20000D02*
Y14500D01*
G01X487500Y240000D02*
X499600D01*
G54D12*
X29000Y71800D03*
Y257000D03*
G54D13*
X34180Y104746D03*
X23000Y99200D03*
Y110100D03*
X34180Y115646D03*
Y126546D03*
Y137446D03*
X23000Y121000D03*
Y131900D03*
Y142800D03*
X34180Y148346D03*
Y159246D03*
Y170146D03*
X23000Y153700D03*
Y164600D03*
X34180Y181046D03*
Y191946D03*
Y202846D03*
X23000Y175500D03*
Y186400D03*
Y197300D03*
X34180Y213746D03*
Y224646D03*
X23000Y208200D03*
Y219100D03*
Y230000D03*
X66500Y20000D03*
Y30000D03*
X97000Y260000D03*
X87000D03*
X77000D03*
X131500Y24000D03*
X121500D03*
X111500D03*
X113000Y70000D03*
X123000D03*
X133000D03*
X127000Y260000D03*
X117000D03*
X107000D03*
X159000Y24000D03*
X143000Y70000D03*
X153000D03*
X163000D03*
X157000Y260000D03*
X147000D03*
X137000D03*
X179000Y24000D03*
X169000D03*
X173000Y70000D03*
X183000D03*
X193000Y260000D03*
X183000D03*
X167000D03*
X226000Y24000D03*
X216000D03*
X206000D03*
X203000Y70000D03*
X213000D03*
X223000D03*
Y260000D03*
X213000D03*
X203000D03*
X253000Y24000D03*
X233000Y70000D03*
X243000D03*
X253000D03*
Y260000D03*
X243000D03*
X233000D03*
X273000Y24000D03*
X263000D03*
X310000D03*
X300000D03*
X315500Y262500D03*
X305500D03*
X295500D03*
X320000Y24000D03*
X345500Y262500D03*
X335500D03*
X325500D03*
X367000Y24000D03*
X357000D03*
X347000D03*
X375500Y262500D03*
X365500D03*
X355500D03*
X403000D03*
X433000D03*
X423000D03*
X413000D03*
X448000Y217000D03*
X438000D03*
X448000Y229000D03*
X438000D03*
X463000Y262500D03*
X453000D03*
X443000D03*
X483000D03*
X473000D03*
G54D14*
X58000Y70000D03*
X63000Y260000D03*
X263000Y90000D03*
Y200000D03*
X405500Y24000D03*
X487500Y240000D03*
G54D15*
X101500Y24000D03*
X149000D03*
X196000D03*
X243000D03*
X285500Y262500D03*
X290000Y24000D03*
X337000D03*
X393000Y262500D03*
G54D16*
X127000Y108000D03*
Y98000D03*
Y138000D03*
Y128000D03*
Y118000D03*
Y196000D03*
Y186000D03*
Y226000D03*
Y216000D03*
Y206000D03*
X155500Y92500D03*
Y102500D03*
Y112500D03*
X139000Y144000D03*
X155500Y122500D03*
Y132500D03*
Y142500D03*
X139000Y174000D03*
Y164000D03*
Y154000D03*
X155500Y152500D03*
Y162500D03*
Y172500D03*
X139000Y184000D03*
X155500Y182500D03*
Y192500D03*
X228000Y92500D03*
Y102500D03*
Y112500D03*
Y122500D03*
Y132500D03*
Y142500D03*
Y152500D03*
Y162500D03*
Y172500D03*
Y182500D03*
Y192500D03*
X303000Y92500D03*
Y102500D03*
Y112500D03*
Y122500D03*
Y132500D03*
Y142500D03*
Y152500D03*
Y162500D03*
Y172500D03*
Y182500D03*
Y192500D03*
X378000Y92500D03*
Y102500D03*
Y112500D03*
Y122500D03*
Y132500D03*
Y142500D03*
Y152500D03*
Y162500D03*
Y172500D03*
Y182500D03*
Y192500D03*
X453000Y92500D03*
Y102500D03*
Y112500D03*
Y122500D03*
Y132500D03*
Y142500D03*
Y152500D03*
Y162500D03*
Y172500D03*
Y182500D03*
Y192500D03*
G54D17*
X127000Y88000D03*
Y176000D03*
X139000Y134000D03*
X155500Y202500D03*
X228000D03*
X303000D03*
X378000D03*
X453000D03*
G54D18*
X468000Y19500D03*
Y12500D03*
G54D19*
G01X80284Y121162D02*
Y124027D01*
X84257Y128000D01*
X86743D01*
X92243Y122500D01*
X100500D01*
M02*
