M48
INCH
T01C.013
T02C.032
T03C.036
T04C.038
T05C.07
T06C.13
;LEADER: 12 
;HEADER: 
;CODE  : ASCII 
;FILE  : steppernug_interface-1-2.drl for board steppernug_interface.brd ... layers TOP and BOTTOM
;T01 Holesize 1. = 13.000000 Tolerance = +0.000000/-0.000000 PLATED MILS Quantity = 186
;T02 Holesize 2. = 32.000000 Tolerance = +0.000000/-0.000000 PLATED MILS Quantity = 82
;T03 Holesize 3. = 36.000000 Tolerance = +0.000000/-0.000000 PLATED MILS Quantity = 78
;T04 Holesize 4. = 38.000000 Tolerance = +0.000000/-0.000000 PLATED MILS Quantity = 25
;T05 Holesize 5. = 70.000000 Tolerance = +0.000000/-0.000000 PLATED MILS Quantity = 5
;T06 Holesize 6. = 130.000000 Tolerance = +0.000000/-0.000000 PLATED MILS Quantity = 8
%
G90
T01
X0161500Y0176000
X0096000Y0166500
X0082000Y0150500
X0062000Y0090000
X0061500Y0017000
X0025000Y0022300
X0034500Y0053500
X0086000Y0080500
X0084500Y0104000
X0097000Y0126000
X0095250Y0209250
X0105000Y0239500
X0097500Y0117000
X0008000Y0140000
X0127000Y0063685
X0098000Y0114000
X0090500Y0237000
X0075500Y0235000
X0070000Y0205500
X0071500Y0195401
X0068855Y0146937
X0070500Y0132500
X0059000Y0128500
X0085500Y0125000
X0268700Y0073533
X0247000Y0090000
X0038000Y0100000
X0281000Y0081500
X0281000Y0071000
X0411500Y0143000
X0416000Y0142500
X0420000Y0143000
X0424000Y0143000
X0427500Y0143000
X0408500Y0166000
X0412500Y0166000
X0417000Y0166500
X0421000Y0166500
X0426000Y0166500
X0282000Y0077500
X0285500Y0071000
X0162500Y0170000
X0463500Y0148500
X0216500Y0143000
X0213500Y0136000
X0320500Y0227500
X0320500Y0248500
X0390200Y0227500
X0425800Y0228500
X0028000Y0207500
X0015500Y0190000
X0048000Y0092500
X0048000Y0085000
X0015500Y0202500
X0276970Y0083000
X0276970Y0073030
X0085500Y0252500
X0013000Y0205000
X0070500Y0090000
X0071452Y0081950
X0101500Y0012500
X0149000Y0013500
X0196000Y0011500
X0243000Y0012000
X0290000Y0012000
X0337000Y0011500
X0383500Y0080000
X0383500Y0011500
X0385000Y0146500
X0452000Y0019000
X0129500Y0036300
X0177200Y0036500
X0224000Y0036300
X0269000Y0038500
X0316500Y0037500
X0361500Y0037000
X0109500Y0079000
X0429200Y0055500
X0461000Y0056000
X0113630Y0121244
X0162000Y0117500
X0192000Y0120500
X0181000Y0120500
X0191500Y0129500
X0181000Y0129500
X0253000Y0130500
X0263000Y0130500
X0253000Y0122000
X0263000Y0122000
X0243500Y0120500
X0338500Y0129500
X0327500Y0129500
X0327000Y0120500
X0339500Y0120500
X0317500Y0116000
X0402000Y0128500
X0414000Y0128500
X0401500Y0119500
X0413500Y0119500
X0393000Y0117500
X0478500Y0129000
X0489000Y0129000
X0478500Y0120000
X0488000Y0120000
X0467000Y0117000
X0126500Y0164000
X0119500Y0168470
X0182500Y0142500
X0439000Y0166500
X0110500Y0213000
X0423000Y0209500
X0445125Y0211375
X0122000Y0233000
X0295000Y0235500
X0295000Y0248000
X0283500Y0235500
X0284000Y0248500
X0329500Y0253500
X0386500Y0241500
X0387250Y0246500
X0397400Y0245900
X0403500Y0246000
X0421500Y0253500
X0365500Y0230500
X0163000Y0202500
X0452000Y0232000
X0451502Y0238000
X0087296Y0247577
X0099000Y0249900
X0099500Y0066000
X0080284Y0121162
X0100500Y0122500
X0149500Y0156500
X0145000Y0166000
X0066336Y0195709
X0065500Y0149900
X0067500Y0128000
X0085500Y0092500
X0079450Y0105000
X0096500Y0244966
X0085506Y0245059
X0083000Y0200000
X0081208Y0189301
X0166500Y0156500
X0169000Y0207500
X0328000Y0268000
X0435000Y0274000
X0136500Y0208000
X0445500Y0270500
X0454500Y0242500
X0455000Y0229500
X0145500Y0157500
X0145500Y0146263
X0149000Y0139000
X0464000Y0151500
X0456302Y0238500
X0457000Y0227000
X0458485Y0257985
X0149500Y0148000
X0165000Y0205500
X0380112Y0271666
X0383000Y0263000
X0095294Y0250015
X0080500Y0245000
X0075500Y0207500
X0071500Y0190000
X0073532Y0148693
X0075500Y0127500
X0070500Y0125100
X0160000Y0166000
X0093490Y0242453
X0080500Y0240000
X0079000Y0203500
X0076000Y0189500
X0150500Y0187500
X0273500Y0073500
X0274069Y0086500
X0150500Y0184000
X0369000Y0230500
X0375500Y0209000
X0459500Y0210500
X0459565Y0231532
X0459966Y0238500
X0013000Y0222500
X0240000Y0090102
X0268098Y0065400
T02
X0066500Y0030000
X0066500Y0020000
X0077000Y0260000
R09X0010000
X0183000Y0260000
R07X0010000
X0253000Y0070000
R05X-0010000
X0183000Y0070000
R07X-0010000
X0149000Y0024000
R03X0010000
X0101500Y0024000
R03X0010000
X0196000Y0024000
R03X0010000
X0243000Y0024000
R03X0010000
X0285500Y0262500
R09X0010000
X0290000Y0024000
R03X0010000
X0337000Y0024000
R03X0010000
X0438000Y0217000
X0448000Y0217000
X0393000Y0262500
R09X0010000
X0438000Y0229000
X0448000Y0229000
T03
X0155500Y0202500
R11Y-0010000
X0127000Y0176000
R05Y0010000
X0139000Y0134000
R05Y0010000
X0127000Y0088000
R05Y0010000
X0228000Y0202500
R11Y-0010000
X0378000Y0202500
R11Y-0010000
X0303000Y0202500
R11Y-0010000
X0453000Y0202500
R11Y-0010000
T04
X0023000Y0230000
R12Y-0010900
X0034180Y0224646
R11Y-0010900
T05
X0015000Y0026000
X0015000Y0039780
X0480500Y0050000
R02Y-0015000
T06
X0063000Y0260000
X0263000Y0200000
X0263000Y0090000
X0058000Y0070000
X0029000Y0257000
X0029000Y0071800
X0405500Y0024000
X0487500Y0240000
M30
