G04 ================== begin FILE IDENTIFICATION RECORD ==================*
G04 Layout Name:  steppernug_interface.brd*
G04 Film Name:    TOP*
G04 File Format:  Gerber RS274X*
G04 File Origin:  Cadence Allegro 16.3-S027*
G04 Origin Date:  Fri Jul 27 13:40:14 2012*
G04 *
G04 Layer:  ETCH/TOP*
G04 Layer:  PIN/TOP*
G04 Layer:  VIA CLASS/TOP*
G04 *
G04 Offset:    (0.00 0.00)*
G04 Mirror:    No*
G04 Mode:      Positive*
G04 Rotation:  0*
G04 FullContactRelief:  No*
G04 UndefLineWidth:     6.00*
G04 ================== end FILE IDENTIFICATION RECORD ====================*
%FSLAX55Y55*MOIN*%
%IR0*IPPOS*OFA0.00000B0.00000*MIA0B0*SFA1.00000B1.00000*%
%ADD24R,.145X.042*%
%ADD22R,.042X.145*%
%ADD16C,.05*%
%ADD20C,.06*%
%ADD11C,.024*%
%ADD10C,.09*%
%ADD18R,.05X.05*%
%ADD21R,.06X.06*%
%ADD23R,.017X.02*%
%ADD27R,.051X.041*%
%ADD26R,.025X.05*%
%ADD25R,.041X.051*%
%ADD13R,.05X.025*%
%ADD19R,.06X.025*%
%ADD14R,.032X.036*%
%ADD17C,.15*%
%ADD12R,.036X.032*%
%ADD15C,.25*%
%ADD28C,.02*%
%ADD29C,.016*%
%ADD30C,.008*%
%ADD31C,.07004*%
G75*
%LPD*%
G75*
G36*
G01X9500Y32500D02*
Y44500D01*
X10500Y45500D01*
X22500D01*
X24317Y47317D01*
G02X24848Y47348I283J-283D01*
G01X28000Y50500D01*
X33500D01*
X34000Y50000D01*
Y38002D01*
X27292D01*
X25998Y36708D01*
Y32500D01*
X9500D01*
G37*
G36*
G01X55000Y23000D02*
X53252Y24748D01*
Y26752D01*
X53000D01*
Y27500D01*
X27000D01*
X26500Y28000D01*
Y36500D01*
X27500Y37500D01*
X59500D01*
X60500Y36500D01*
Y23500D01*
X60000Y23000D01*
X55000D01*
G37*
G36*
G01X316102Y120837D02*
X324168Y128904D01*
X324235Y128913D01*
G03X324520Y128980I-222J1586D01*
G01X324562Y128994D01*
G03X324805Y129098I-506J1519D01*
G01X324822Y129107D01*
G03X325107Y129299I-747J1416D01*
G01X325222Y129397D01*
X325461Y129635D01*
X325647Y129765D01*
X325798Y129550D01*
Y129488D01*
G03X328705Y128298I1702J12D01*
G01X330398D01*
Y121702D01*
X328205D01*
G03Y119298I-1205J-1202D01*
G01X330398D01*
Y117348D01*
X335602D01*
Y119298D01*
X338295D01*
G03Y121702I1205J1202D01*
G01X335602D01*
Y128298D01*
X337295D01*
G03Y130702I1205J1202D01*
G01X335602D01*
Y132852D01*
X330398D01*
Y130702D01*
X328705D01*
G03X327864Y131163I-1206J-1202D01*
G02X327667Y131836I86J390D01*
G01X329703Y133872D01*
X363791D01*
X368765Y128898D01*
X369337D01*
X374664Y123571D01*
X374632Y123458D01*
G03X380990Y120677I3368J-958D01*
G01X381015Y120718D01*
X381128Y120789D01*
X381202Y120817D01*
X381278Y120830D01*
X381358Y120828D01*
X381434Y120811D01*
X381508Y120778D01*
X381550Y120749D01*
X381676Y120622D01*
X381681Y120616D01*
G03X381773Y120517I1218J1040D01*
G01X382391Y119898D01*
X386398D01*
Y119198D01*
X390602D01*
Y123802D01*
X390102D01*
Y129229D01*
X388932Y130399D01*
Y130582D01*
X391148Y132798D01*
X398146D01*
X401351Y136000D01*
X402500D01*
X410981Y144480D01*
X428019D01*
X435500Y137000D01*
Y136000D01*
X436663D01*
X443765Y128898D01*
X444337D01*
X449664Y123571D01*
X449632Y123458D01*
G03X455204Y119778I3368J-958D01*
G01X455344Y119892D01*
X456337Y118898D01*
X459898D01*
Y118198D01*
X464102D01*
Y120537D01*
X475413Y131848D01*
X481398D01*
Y130202D01*
X479705D01*
G03Y127798I-1205J-1202D01*
G01X481398D01*
Y121202D01*
X479705D01*
G03Y118798I-1205J-1202D01*
G01X481398D01*
Y116848D01*
X486602D01*
Y118150D01*
G02X487191Y118502I400J0D01*
G03Y121498I809J1498D01*
G02X486602Y121850I-189J352D01*
G01Y127798D01*
X487795D01*
G03Y130202I1205J1202D01*
G01X486602D01*
Y131848D01*
X492287D01*
X493384Y130752D01*
Y40384D01*
X487000Y34000D01*
X485869D01*
G02X485471Y34444I0J400D01*
G03X475529I-4971J556D01*
G02X475131Y34000I-398J-44D01*
G01X474500D01*
X464000Y44500D01*
Y85500D01*
X456461Y93039D01*
X456450Y93102D01*
G03X449711Y93702I-3450J-602D01*
G01X381289D01*
G03X374711I-3289J-1202D01*
G01X306289D01*
G03X299711I-3289J-1202D01*
G01X274502D01*
Y94766D01*
X267766Y101502D01*
X258234D01*
X251498Y94766D01*
Y93821D01*
X251379Y93702D01*
X241893D01*
X241891Y93704D01*
X238109D01*
X238107Y93702D01*
X236589D01*
X236587Y93704D01*
X231289D01*
G03X224711Y93702I-3289J-1204D01*
G01X158789D01*
G03X152061Y93162I-3289J-1202D01*
G01X152030Y93000D01*
X147807D01*
X147504Y93304D01*
Y115136D01*
X147500Y115139D01*
Y134500D01*
X149000Y136000D01*
X153150D01*
X153221Y135990D01*
X153599Y135862D01*
X153774D01*
Y135549D01*
X153678Y135491D01*
G03X158789Y131298I1822J-2991D01*
G01X173070D01*
G02X173353Y130616I0J-400D01*
G01X168539Y125802D01*
X164398D01*
Y124102D01*
X158614D01*
G03Y120898I-3114J-1602D01*
G01X168165D01*
X168465Y121198D01*
X168602D01*
Y121335D01*
X181643Y134376D01*
X212988D01*
X213016Y134368D01*
G03X213776Y134320I485J1632D01*
G01X213877Y134337D01*
X214633Y133581D01*
X214817Y133138D01*
X215362Y132316D01*
X218778Y128900D01*
X219335D01*
X224664Y123571D01*
X224632Y123458D01*
G03X231114Y120898I3368J-957D01*
G01X236663D01*
X237463Y121698D01*
X239602D01*
Y124037D01*
X244463Y128898D01*
X244669D01*
X251745Y135974D01*
X287255D01*
X291498Y131732D01*
X291501D01*
X293977Y129257D01*
X293980Y129255D01*
X299664Y123571D01*
X299632Y123458D01*
G03X306114Y120898I3368J-957D01*
G01X311898D01*
Y119698D01*
X316102D01*
Y120837D01*
G37*
G36*
G01X419500Y253000D02*
X427500Y245000D01*
Y230102D01*
X426377D01*
X426346Y230112D01*
G03Y226888I-546J-1612D01*
G01X426377Y226898D01*
X427500D01*
Y224802D01*
X424898D01*
Y220198D01*
X427500D01*
Y217802D01*
X424898D01*
Y213198D01*
X427402D01*
X427500Y213101D01*
Y211802D01*
X424898D01*
Y210702D01*
X424208D01*
X424151Y210754D01*
G03Y208246I-1151J-1254D01*
G01X424208Y208298D01*
X424898D01*
Y207198D01*
X426334D01*
G02X426617Y206516I0J-400D01*
G01X425798Y205698D01*
Y204802D01*
X424898D01*
Y203702D01*
X424002D01*
X422348Y202048D01*
Y193254D01*
X423756Y191846D01*
X426477D01*
X426596Y191727D01*
Y180402D01*
X427248Y179750D01*
Y173802D01*
X428704Y172346D01*
X432373D01*
G03X432500Y172318I322J1158D01*
G01Y166000D01*
X431121Y164622D01*
X406588D01*
X388500Y182709D01*
Y225898D01*
X389623D01*
X389654Y225888D01*
G03Y229112I546J1612D01*
G01X389623Y229102D01*
X388500D01*
Y232500D01*
X373225D01*
X370823Y234902D01*
X328637D01*
X326235Y232500D01*
X295500D01*
X294683Y231683D01*
G02X294000Y231966I-283J283D01*
G01Y233485D01*
G02X294514Y233869I400J1D01*
G03Y237131I486J1631D01*
G02X294000Y237515I-114J383D01*
G01Y238898D01*
X298152D01*
Y244102D01*
X294000D01*
Y245985D01*
G02X294514Y246369I400J1D01*
G03Y249631I486J1631D01*
G02X294000Y250015I-114J383D01*
G01Y259281D01*
G02X294529Y259659I400J0D01*
G03X297858Y264358I971J2841D01*
G01X301980Y268480D01*
X305520D01*
X312789Y261211D01*
G03X314211Y259789I2711J1289D01*
G01X318198Y255802D01*
Y251398D01*
X318898D01*
Y249077D01*
X318888Y249046D01*
G03X322112I1612J-546D01*
G01X322102Y249077D01*
Y251398D01*
X322601D01*
X324000Y250000D01*
X402000D01*
X407000Y255000D01*
Y265500D01*
X408776Y267276D01*
X416224D01*
X419500Y264000D01*
Y253000D01*
G37*
G36*
G01X381947Y124017D02*
X381149Y124037D01*
X381094Y124141D01*
G03X379593Y125619I-3094J-1641D01*
G02X379493Y126258I182J356D01*
G01X379865Y126630D01*
G02X382642Y125543I1176J-1087D01*
G01Y124878D01*
X382038Y124273D01*
G03X381984Y124176I141J-142D01*
G01X381947Y124017D01*
G37*
G36*
G01X430500Y33000D02*
X429500Y34000D01*
Y47000D01*
X430000Y47500D01*
X435000D01*
X436748Y45752D01*
Y43748D01*
X437000D01*
Y43000D01*
X463000D01*
X463500Y42500D01*
Y34000D01*
X462500Y33000D01*
X430500D01*
G37*
G36*
G01X429000Y226935D02*
X434565Y232500D01*
X441000D01*
Y203000D01*
X438500Y200500D01*
Y174000D01*
X434374D01*
X434025Y174350D01*
G03X433390Y174682I-849J-850D01*
G01X433272Y174704D01*
X433078D01*
X433053Y174710D01*
G03X432748Y174750I-307J-1162D01*
G01X429700D01*
X429652Y174798D01*
Y180746D01*
X429000Y181397D01*
Y200198D01*
X429102D01*
Y204802D01*
X429000D01*
Y205298D01*
X429596D01*
X431002Y206704D01*
Y212296D01*
X430438Y212859D01*
Y213561D01*
X429102Y214898D01*
Y217802D01*
X429000D01*
Y226935D01*
G37*
G36*
G01X456500Y20000D02*
X456000Y20500D01*
Y32498D01*
X462708D01*
X464002Y33792D01*
Y40502D01*
X476000Y52500D01*
X486000D01*
X488500Y50000D01*
Y37500D01*
X486000Y35000D01*
X485506D01*
X485498Y35192D01*
G03X475502I-4998J-192D01*
G01X475494Y35000D01*
X473500D01*
X465000Y26500D01*
Y23000D01*
X462000Y20000D01*
X456500D01*
G37*
%LPC*%
G75*
G36*
G01X260602Y120798D02*
Y119848D01*
X255398D01*
Y120798D01*
X254205D01*
G02Y123202I-1205J1202D01*
G01X255398D01*
Y129298D01*
X254205D01*
G02Y131702I-1205J1202D01*
G01X255398D01*
Y135352D01*
X260602D01*
Y131702D01*
X261795D01*
G02Y129298I1205J-1202D01*
G01X260602D01*
Y123202D01*
X261795D01*
G02Y120798I1205J-1202D01*
G01X260602D01*
G37*
G36*
G01X188602Y119298D02*
Y117348D01*
X183398D01*
Y119298D01*
X182205D01*
G02Y121702I-1205J1202D01*
G01X183398D01*
Y128298D01*
X182205D01*
G02Y130702I-1205J1202D01*
G01X183398D01*
Y132852D01*
X188602D01*
Y130702D01*
X190295D01*
G02Y128298I1205J-1202D01*
G01X188602D01*
Y121702D01*
X190795D01*
G02Y119298I1205J-1202D01*
G01X188602D01*
G37*
G36*
G01X410102Y118298D02*
Y116348D01*
X404898D01*
Y118298D01*
X402705D01*
G02Y120702I-1205J1202D01*
G01X404898D01*
Y127298D01*
X403205D01*
G02Y129702I-1205J1202D01*
G01X404898D01*
Y131852D01*
X410102D01*
Y129702D01*
X412795D01*
G02Y127298I1205J-1202D01*
G01X410102D01*
Y120702D01*
X412295D01*
G02Y118298I1205J-1202D01*
G01X410102D01*
G37*
G36*
G01X243573Y118800D02*
X243495Y118796D01*
X241498Y116798D01*
X239602D01*
Y115698D01*
X235398D01*
Y120302D01*
X239602D01*
Y119202D01*
X240502D01*
X241796Y120495D01*
X241800Y120573D01*
G02X243573Y118800I1700J-73D01*
G37*
G36*
G01X168602Y119802D02*
Y115198D01*
X164398D01*
Y116298D01*
X163205D01*
G02Y118702I-1205J1202D01*
G01X164398D01*
Y119802D01*
X168602D01*
G37*
G36*
G01X316102Y114150D02*
Y113698D01*
X311898D01*
Y118302D01*
X316102D01*
Y117850D01*
G03X316691Y117498I400J0D01*
G02Y114502I809J-1498D01*
G03X316102Y114150I-189J-352D01*
G37*
G36*
G01X393073Y115800D02*
X392995Y115796D01*
X391498Y114298D01*
X390602D01*
Y113198D01*
X386398D01*
Y117802D01*
X390602D01*
Y117283D01*
G03X390943Y117142I200J1D01*
G01X391296Y117495D01*
X391300Y117573D01*
G02X393073Y115800I1700J-73D01*
G37*
G36*
G01X467073Y115300D02*
X466995Y115296D01*
X464998Y113298D01*
X464102D01*
Y112198D01*
X459898D01*
Y116802D01*
X464101D01*
Y116766D01*
G03X464784Y116483I400J0D01*
G01X465296Y116995D01*
X465300Y117073D01*
G02X467073Y115300I1700J-73D01*
G37*
G36*
G01X388667Y243384D02*
X387255Y244796D01*
X387177Y244800D01*
G02X388950Y246573I73J1700D01*
G01X388954Y246495D01*
X391348Y244102D01*
X396198D01*
Y244692D01*
X396146Y244749D01*
G02X398654I1254J1151D01*
G01X398602Y244692D01*
Y244102D01*
X399902D01*
X401796Y245995D01*
X401800Y246073D01*
G02X404694Y244787I1700J-73D01*
G03X404974Y244102I280J-285D01*
G01X405152D01*
Y238898D01*
X389648D01*
Y240298D01*
X387705D01*
G02Y242702I-1205J1202D01*
G01X388384D01*
G03X388667Y243384I0J400D01*
G37*
G54D31*
X155500Y112500D03*
X228000D03*
X303000D03*
X378000D03*
X453000D03*
%LPD*%
G75*
G54D10*
X15000Y39780D03*
Y26000D03*
X480500Y20000D03*
Y35000D03*
Y50000D03*
G54D11*
X8000Y140000D03*
X13000Y222500D03*
Y205000D03*
X25000Y22300D03*
X34500Y53500D03*
X38000Y100000D03*
X15500Y190000D03*
Y202500D03*
X28000Y207500D03*
X61500Y17000D03*
X71452Y81950D03*
X70500Y90000D03*
X48000Y85000D03*
Y92500D03*
X62000Y90000D03*
X70500Y125100D03*
X67500Y128000D03*
X59000Y128500D03*
X70500Y132500D03*
X73532Y148693D03*
X65500Y149900D03*
X68855Y146937D03*
X71500Y190000D03*
X66336Y195709D03*
X71500Y195401D03*
X70000Y205500D03*
X101500Y12500D03*
X99500Y66000D03*
X86000Y80500D03*
X79450Y105000D03*
X85500Y92500D03*
X84500Y104000D03*
X75500Y127500D03*
X100500Y122500D03*
X80284Y121162D03*
X85500Y125000D03*
X98000Y114000D03*
X97500Y117000D03*
X97000Y126000D03*
X82000Y150500D03*
X96000Y166500D03*
X76000Y189500D03*
X81208Y189301D03*
X83000Y200000D03*
X79000Y203500D03*
X75500Y207500D03*
X95250Y209250D03*
X80500Y240000D03*
X93490Y242453D03*
X80500Y245000D03*
X98000Y250000D03*
X85506Y245059D03*
X98100Y245000D03*
X103000Y252500D03*
X78000Y247500D03*
X85500Y252500D03*
X75500Y235000D03*
X90500Y237000D03*
X105000Y239500D03*
X129500Y36300D03*
X109500Y79000D03*
X127000Y63685D03*
X113630Y121244D03*
X119500Y168470D03*
X126500Y164000D03*
X110500Y213000D03*
X122000Y233000D03*
X149000Y13500D03*
Y139000D03*
X162000Y117500D03*
X160000Y166000D03*
X149500Y148000D03*
X145500Y146263D03*
Y157500D03*
X145000Y166000D03*
X149500Y156500D03*
X162500Y170000D03*
X150500Y184000D03*
Y187500D03*
X161500Y176000D03*
X165000Y205500D03*
X136500Y208000D03*
X163000Y202500D03*
X177200Y36500D03*
X181000Y129500D03*
X191500D03*
X181000Y120500D03*
X192000D03*
X166500Y156500D03*
X182500Y142500D03*
X169000Y207500D03*
X196000Y11500D03*
X224000Y36300D03*
X213500Y136000D03*
X216500Y143000D03*
X243000Y12000D03*
X240000Y90102D03*
X247000Y90000D03*
X243500Y120500D03*
X253000Y122000D03*
Y130500D03*
X269000Y38500D03*
X268098Y65400D03*
X273500Y73500D03*
X276970Y73030D03*
X282000Y77500D03*
X281000Y71000D03*
Y81500D03*
X268700Y73533D03*
X274069Y86500D03*
X276970Y83000D03*
X263000Y122000D03*
Y130500D03*
X284000Y248500D03*
X283500Y235500D03*
X290000Y12000D03*
X285500Y71000D03*
X295000Y248000D03*
Y235500D03*
X337000Y11500D03*
X316500Y37500D03*
X317500Y116000D03*
X339500Y120500D03*
X327000D03*
X327500Y129500D03*
X338500D03*
X320500Y227500D03*
X329500Y253500D03*
X320500Y248500D03*
X328000Y268000D03*
X361500Y37000D03*
X369000Y230500D03*
X365500D03*
X383500Y11500D03*
Y80000D03*
X393000Y117500D03*
X401500Y119500D03*
X402000Y128500D03*
X385000Y146500D03*
X375500Y209000D03*
X390200Y227500D03*
X403500Y246000D03*
X397400Y245900D03*
X387250Y246500D03*
X386500Y241500D03*
X383000Y263000D03*
X380112Y271666D03*
X429200Y55500D03*
X413500Y119500D03*
X414000Y128500D03*
X426000Y166500D03*
X421000D03*
X417000D03*
X412500Y166000D03*
X408500D03*
X427500Y143000D03*
X424000D03*
X420000D03*
X416000Y142500D03*
X411500Y143000D03*
X423000Y209500D03*
X425800Y228500D03*
X421500Y253500D03*
X435000Y274000D03*
X452000Y19000D03*
X461000Y56000D03*
X464000Y151500D03*
X439000Y166500D03*
X463500Y148500D03*
X459565Y231532D03*
X459500Y210500D03*
X457000Y227000D03*
X455000Y229500D03*
X452000Y232000D03*
X445125Y211375D03*
X459966Y238500D03*
X458485Y257985D03*
X456302Y238500D03*
X454500Y242500D03*
X451502Y238000D03*
X445500Y270500D03*
X467000Y117000D03*
X488000Y120000D03*
X478500D03*
X489000Y129000D03*
X478500D03*
G54D20*
X127000Y108000D03*
Y98000D03*
Y138000D03*
Y128000D03*
Y118000D03*
Y196000D03*
Y186000D03*
Y226000D03*
Y216000D03*
Y206000D03*
X155500Y92500D03*
Y102500D03*
Y112500D03*
X139000Y144000D03*
X155500Y122500D03*
Y132500D03*
Y142500D03*
X139000Y174000D03*
Y164000D03*
Y154000D03*
X155500Y152500D03*
Y162500D03*
Y172500D03*
X139000Y184000D03*
X155500Y182500D03*
Y192500D03*
X228000Y92500D03*
Y102500D03*
Y112500D03*
Y122500D03*
Y132500D03*
Y142500D03*
Y152500D03*
Y162500D03*
Y172500D03*
Y182500D03*
Y192500D03*
X303000Y92500D03*
Y102500D03*
Y112500D03*
Y122500D03*
Y132500D03*
Y142500D03*
Y152500D03*
Y162500D03*
Y172500D03*
Y182500D03*
Y192500D03*
X378000Y92500D03*
Y102500D03*
Y112500D03*
Y122500D03*
Y132500D03*
Y142500D03*
Y152500D03*
Y162500D03*
Y172500D03*
Y182500D03*
Y192500D03*
X453000Y92500D03*
Y102500D03*
Y112500D03*
Y122500D03*
Y132500D03*
Y142500D03*
Y152500D03*
Y162500D03*
Y172500D03*
Y182500D03*
Y192500D03*
G54D30*
G01X233000Y260000D02*
X221100Y271900D01*
X24525D01*
X5600Y252975D01*
Y106841D01*
X24941Y87500D01*
X32676D01*
X40676Y79500D01*
X53595D01*
X56095Y82000D01*
X69302D01*
X69352Y81950D01*
X71452D01*
G01X48000Y85000D02*
X39702D01*
X34001Y90701D01*
X31351D01*
X31350Y90700D01*
X26267D01*
X13000Y103967D01*
Y194763D01*
G01X126815Y63500D02*
X123415Y60100D01*
X94005D01*
X92600Y61505D01*
Y64899D01*
X74505Y82995D01*
X73900D01*
X72545Y84350D01*
X70455D01*
X69705Y83600D01*
X55331D01*
X52831Y81100D01*
X41339D01*
X33339Y89100D01*
X25604D01*
X8000Y106704D01*
Y140000D01*
G01X13000Y194763D02*
X15363Y192400D01*
X16495D01*
X17900Y190995D01*
Y189005D01*
X17700Y188805D01*
Y140604D01*
X21104Y137200D01*
X25196D01*
X28650Y133746D01*
X54062D01*
X56116Y135800D01*
X56277D01*
X56977Y136500D01*
X74210D01*
X74809Y137099D01*
X80191D01*
X82790Y134500D01*
X92370D01*
G01X13000Y194763D02*
Y200000D01*
X15500Y202500D01*
G01X13000Y222500D02*
X17700Y227200D01*
Y232196D01*
X22104Y236600D01*
X30238D01*
X44300Y250662D01*
Y253604D01*
X59396Y268700D01*
X128300D01*
X137000Y260000D01*
G01X147000D02*
X143000D01*
X132700Y270300D01*
X58733D01*
X42700Y254267D01*
Y251325D01*
X34675Y243300D01*
X26541D01*
X10600Y227359D01*
Y207400D01*
X13000Y205000D01*
G01X43000Y18500D02*
X36000D01*
G01X30750Y25000D02*
X33563Y22187D01*
Y20737D01*
X35800Y18500D01*
X36000D01*
G01X29000D02*
X28800D01*
X25000Y22300D01*
G01X43000Y28500D02*
X46550Y24950D01*
Y21750D01*
X49800Y18500D01*
X50000D01*
G01X30500Y53500D02*
X34500D01*
G01X40134Y112867D02*
X43001Y110000D01*
X55750D01*
G01X23000Y110100D02*
X43000Y90100D01*
X50402D01*
X52752Y92450D01*
X78934D01*
X84505Y98021D01*
X86141D01*
X90620Y102500D01*
G01X23000Y99200D02*
X27765D01*
X39415Y87550D01*
X69129D01*
X69179Y87600D01*
X72202D01*
X72252Y87550D01*
X78248D01*
X83100Y92402D01*
Y93495D01*
X86026Y96421D01*
X87158D01*
X88237Y97500D01*
X92370D01*
G01X55750Y105000D02*
X43000D01*
X38000Y100000D01*
G01X92370Y107500D02*
X90620D01*
X88100Y110020D01*
Y119261D01*
X85761Y121600D01*
X85505D01*
X77205Y129900D01*
X71400D01*
X71200Y130100D01*
X69505D01*
X68705Y130900D01*
X66804D01*
X66704Y131000D01*
X58105D01*
X48100Y120995D01*
Y120833D01*
X40134Y112867D01*
G01D02*
X39213Y111946D01*
X32054D01*
X23000Y121000D01*
G01X92370Y139500D02*
X81453D01*
X80653Y138700D01*
X74147D01*
X73584Y138137D01*
X62417D01*
X59407Y141146D01*
X32647D01*
X30601Y139100D01*
X21467D01*
X19300Y141267D01*
Y188142D01*
X19500Y188342D01*
Y191658D01*
X19300Y191858D01*
Y209766D01*
X34180Y224646D01*
G01X15500Y190000D02*
Y140541D01*
X20441Y135600D01*
X24533D01*
X27987Y132146D01*
X54725D01*
X56779Y134200D01*
X56940D01*
X57640Y134900D01*
X74873D01*
X75472Y135499D01*
X79527D01*
X85526Y129500D01*
X92370D01*
G01X70500Y132500D02*
X67467D01*
X67367Y132600D01*
X57442D01*
X47688Y122846D01*
X32054D01*
X23000Y131900D01*
G01Y164600D02*
X45142D01*
X66805Y142937D01*
X71437D01*
X72000Y143500D01*
X78663D01*
X89663Y154500D01*
X92370D01*
G01X23000Y153700D02*
X53779D01*
X66142Y141337D01*
X72258D01*
X72821Y141900D01*
X79326D01*
X86926Y149500D01*
X92370D01*
G01X23000Y175500D02*
X24654Y173846D01*
X38159D01*
X67468Y144537D01*
X69837D01*
X70400Y145100D01*
X73334D01*
X79000Y150766D01*
Y162030D01*
X88470Y171500D01*
X90620D01*
G01X23000Y142800D02*
X60017D01*
X60800Y142017D01*
X63081Y139737D01*
X72921D01*
X73484Y140300D01*
X79990D01*
X84190Y144500D01*
X92370D01*
G01Y186500D02*
X88470D01*
X85500Y189470D01*
Y191658D01*
X83858Y193300D01*
X81964D01*
X81492Y193772D01*
X80966D01*
X77100Y197635D01*
Y197722D01*
X76700Y198122D01*
Y198142D01*
X73841Y201001D01*
X68841D01*
X68242Y201600D01*
X64179D01*
X60900Y198321D01*
Y198194D01*
X59606Y196900D01*
X45359D01*
X32359Y209900D01*
X24700D01*
X23000Y208200D01*
G01Y186400D02*
X23246Y186646D01*
X36376D01*
X42130Y192400D01*
X60726D01*
X63900Y195574D01*
Y195663D01*
X63936Y195699D01*
Y196704D01*
X65341Y198109D01*
X67206D01*
X67515Y197800D01*
X70504D01*
X70505Y197801D01*
X72495D01*
X73900Y196396D01*
Y196307D01*
X79640Y190572D01*
X79937D01*
X81208Y189301D01*
G01X92370Y181500D02*
X90620D01*
X83900Y188220D01*
Y190995D01*
X83195Y191700D01*
X81301D01*
X80829Y192172D01*
X80303D01*
X75500Y196971D01*
Y197059D01*
X75100Y197459D01*
Y197479D01*
X73178Y199401D01*
X69842D01*
X69841Y199400D01*
X68179D01*
X67579Y200000D01*
X64842D01*
X62500Y197658D01*
Y197531D01*
X62336Y197367D01*
Y196362D01*
X62300Y196326D01*
Y196237D01*
X60063Y194000D01*
X41467D01*
X35713Y188246D01*
X32054D01*
X23000Y197300D01*
G01X28000Y207500D02*
Y198126D01*
X34180Y191946D01*
G01X23000Y230000D02*
X60500D01*
X78000Y247500D01*
G01X92370Y191500D02*
X87921D01*
X84521Y194900D01*
X83100D01*
X82628Y195372D01*
X81629D01*
X78700Y198299D01*
Y198385D01*
X78301Y198784D01*
Y198804D01*
X78300Y198805D01*
Y198806D01*
X77005Y200101D01*
X77004D01*
X76378Y200727D01*
Y200728D01*
X74505Y202601D01*
X74504D01*
X74405Y202700D01*
X71595D01*
X71496Y202601D01*
X69504D01*
X68904Y203201D01*
X66254D01*
X66253Y203200D01*
X60858D01*
X35713Y228346D01*
X32647D01*
G01D02*
X32246D01*
X25405Y221505D01*
G01X85500Y252500D02*
X82900Y249900D01*
X77005D01*
X62105Y235000D01*
X22767D01*
X19300Y231533D01*
Y228467D01*
X23000Y224767D01*
Y219100D01*
G01X25405Y221505D02*
X23000Y219100D01*
G01X25405Y221505D02*
X27244D01*
X30480Y224741D01*
Y226179D01*
X32647Y228346D01*
G01X56500Y19500D02*
X59000D01*
X61500Y17000D01*
G01X56500Y25500D02*
Y25700D01*
G01D02*
X60800Y30000D01*
X66500D01*
G01X75250Y100000D02*
X74000D01*
X69802Y95802D01*
Y95000D01*
X55750D01*
G01X75250Y90000D02*
X70500D01*
G01X92370Y87500D02*
X80463D01*
X78863Y85900D01*
X73258D01*
X73208Y85950D01*
X71589D01*
X71539Y86000D01*
X69842D01*
X69742Y85900D01*
X53900D01*
X53000Y85000D01*
X48000D01*
G01X55750Y100000D02*
X54500D01*
X52050Y97550D01*
Y96550D01*
X48000Y92500D01*
G01X55750Y90000D02*
X62000D01*
G01X70500Y125100D02*
X67900Y122500D01*
X64500D01*
X57000Y115000D01*
X55750D01*
G01X67500Y128000D02*
X70000D01*
X70500Y127500D01*
X71495D01*
X72900Y126095D01*
Y124105D01*
X70363Y121568D01*
Y118637D01*
X74000Y115000D01*
X75250D01*
G01X85500Y125000D02*
Y127263D01*
X80263Y132500D01*
X70500D01*
G01X59000Y128500D02*
X55750Y125250D01*
Y120000D01*
G01X71500Y190000D02*
X73000Y188500D01*
Y151325D01*
X73532Y150793D01*
Y148693D01*
G01X66336Y195709D02*
Y193609D01*
X65500Y192773D01*
Y149900D01*
G01X71500Y195401D02*
X69100Y193001D01*
Y188600D01*
X68855Y188355D01*
Y146937D01*
G01X70000Y205500D02*
X71485Y206985D01*
X72485D01*
X73100Y207600D01*
Y208495D01*
X75500Y210895D01*
Y235000D01*
G01X101500Y24000D02*
Y12500D01*
G01X90500Y77500D02*
X87800D01*
X86000Y79300D01*
Y80500D01*
G01X90620Y102500D02*
X89306D01*
X86900Y104906D01*
Y104995D01*
X86500Y105395D01*
Y118598D01*
X85598Y119500D01*
X85342D01*
X77342Y127500D01*
X75500D01*
G01X90620Y102500D02*
X92370D01*
G01X75250Y115000D02*
X75698D01*
X78950Y111748D01*
Y105800D01*
X79450Y105300D01*
Y105000D01*
G01X92370Y92500D02*
X85500D01*
G01X75250Y95000D02*
X76500D01*
X81850Y100350D01*
Y105995D01*
X80550Y107295D01*
Y112411D01*
X78950Y114011D01*
Y116748D01*
X78248Y117450D01*
X77800D01*
X77400Y117850D01*
G01X75250Y110000D02*
Y105000D01*
G01X92370Y87500D02*
X93329D01*
G01X83500Y110500D02*
Y105000D01*
X84500Y104000D01*
G01X96570Y131248D02*
X95868Y131950D01*
X94920D01*
X92370Y134500D01*
G01Y112500D02*
X96500D01*
X98000Y114000D01*
G01X89700Y118500D02*
X91370D01*
X92370Y117500D01*
G01Y124500D02*
Y117500D01*
G01Y124500D02*
X96270D01*
X97000Y125230D01*
Y126000D01*
G01X92370Y117500D02*
X97000D01*
X97500Y117000D01*
G01X85500Y155500D02*
Y152800D01*
X83200Y150500D01*
X82000D01*
G01X92370Y166500D02*
X96000D01*
G01X90620Y171500D02*
X92370D01*
G01X76000Y189500D02*
X78100Y187400D01*
Y184020D01*
X90620Y171500D01*
G01X85506Y245059D02*
X84021Y243574D01*
Y243521D01*
X83000Y242500D01*
Y200000D01*
G01X92370Y176500D02*
X90620D01*
X88170Y178950D01*
Y179830D01*
X81500Y186500D01*
Y186909D01*
X81208Y187201D01*
Y189301D01*
G01X92370Y196500D02*
X90620D01*
X85700Y201420D01*
Y214298D01*
X86852Y215450D01*
X98148D01*
X98950Y216252D01*
Y224748D01*
X98248Y225450D01*
X92352D01*
X91090Y226712D01*
Y233015D01*
X88100Y236005D01*
Y237995D01*
X91090Y240985D01*
Y243448D01*
X91600Y243958D01*
Y249367D01*
X103300Y261067D01*
Y261533D01*
X105467Y263700D01*
X113300D01*
X117000Y260000D01*
G01X94120Y191500D02*
X92370D01*
G01X95250Y223000D02*
X91600D01*
X89490Y225110D01*
Y232352D01*
X86500Y235342D01*
Y238658D01*
X89490Y241648D01*
Y244112D01*
X90000Y244622D01*
Y246658D01*
X89500Y247158D01*
Y254158D01*
X87000Y256658D01*
Y260000D01*
G01X77000D02*
X79405Y257595D01*
X83800D01*
X87900Y253495D01*
Y246495D01*
X88400Y245995D01*
Y245285D01*
X87890Y244775D01*
Y242311D01*
X84900Y239321D01*
Y234679D01*
X87890Y231689D01*
Y221610D01*
X91500Y218000D01*
X95250D01*
G01X79000Y203500D02*
X80500Y205000D01*
Y240000D01*
G01X75500Y207500D02*
X78100Y210100D01*
Y242600D01*
X80500Y245000D01*
G01X102150Y225000D02*
X101650Y225500D01*
X101150D01*
G01X95250Y213000D02*
Y209250D01*
G01X88500Y212000D02*
X91000D01*
X92265Y210735D01*
X93765D01*
X95250Y209250D01*
G01X167000Y260000D02*
X166500D01*
X150000Y243500D01*
X103342D01*
X102295Y242453D01*
X93490D01*
G01X98000Y250000D02*
X142233D01*
X153300Y261067D01*
Y261533D01*
X155467Y263700D01*
X184533D01*
X188233Y260000D01*
X193000D01*
G01X98100Y245000D02*
X101500Y248400D01*
X143663D01*
X155263Y260000D01*
X157000D01*
G01X103000Y252500D02*
X109500D01*
X117000Y260000D01*
G01X90500Y237000D02*
X93500Y240000D01*
X102105D01*
X104005Y241900D01*
X164900D01*
X183000Y260000D01*
G01X101500Y234500D02*
X101700D01*
X105000Y237800D01*
Y239500D01*
G01X112422Y48600D02*
Y51700D01*
X113878D01*
G01X113342Y50202D02*
X112422D01*
G01X116250Y48600D02*
X116020Y48652D01*
X115790Y48858D01*
X115637Y49220D01*
X115560Y49633D01*
X115637Y50047D01*
X115790Y50408D01*
X116020Y50615D01*
X116250Y50667D01*
X116480Y50615D01*
X116710Y50408D01*
X116863Y50047D01*
X116902Y49633D01*
X116863Y49220D01*
X116710Y48858D01*
X116480Y48652D01*
X116250Y48600D01*
G01X118813D02*
Y50667D01*
G01Y50253D02*
X119005Y50460D01*
X119197Y50615D01*
X119465Y50667D01*
X119657Y50615D01*
X119887Y50460D01*
G01X125550Y48600D02*
X125320Y48652D01*
X125090Y48858D01*
X124937Y49220D01*
X124860Y49633D01*
X124937Y50047D01*
X125090Y50408D01*
X125320Y50615D01*
X125550Y50667D01*
X125780Y50615D01*
X126010Y50408D01*
X126163Y50047D01*
X126202Y49633D01*
X126163Y49220D01*
X126010Y48858D01*
X125780Y48652D01*
X125550Y48600D01*
G01X127960Y47567D02*
Y50667D01*
G01Y50202D02*
X128152Y50460D01*
X128343Y50615D01*
X128650Y50667D01*
X128918Y50615D01*
X129187Y50357D01*
X129302Y49995D01*
X129340Y49633D01*
X129302Y49272D01*
X129187Y48910D01*
X128957Y48703D01*
X128650Y48600D01*
X128382Y48652D01*
X128113Y48807D01*
X127960Y49013D01*
G01X131175Y49995D02*
X132402D01*
X132287Y50357D01*
X132095Y50563D01*
X131827Y50667D01*
X131558Y50615D01*
X131328Y50460D01*
X131175Y50098D01*
X131098Y49788D01*
Y49478D01*
X131175Y49168D01*
X131367Y48858D01*
X131597Y48652D01*
X131865Y48600D01*
X132133Y48703D01*
X132402Y49013D01*
G01X134198Y48600D02*
Y50667D01*
G01Y50150D02*
X134352Y50408D01*
X134582Y50615D01*
X134888Y50667D01*
X135157Y50615D01*
X135387Y50408D01*
X135502Y50047D01*
Y48600D01*
G01X138563Y50408D02*
X138295Y50615D01*
X138065Y50667D01*
X137758Y50563D01*
X137528Y50357D01*
X137375Y49995D01*
X137337Y49633D01*
X137375Y49272D01*
X137528Y48962D01*
X137758Y48703D01*
X138065Y48600D01*
X138333Y48703D01*
X138563Y48910D01*
G01X141740Y48600D02*
Y50667D01*
G01Y50305D02*
X141587Y50512D01*
X141357Y50615D01*
X141088Y50667D01*
X140820Y50563D01*
X140590Y50357D01*
X140437Y50047D01*
X140360Y49633D01*
X140437Y49220D01*
X140590Y48910D01*
X140820Y48703D01*
X141088Y48600D01*
X141357Y48652D01*
X141587Y48807D01*
X141740Y49013D01*
G01X143460Y47567D02*
Y50667D01*
G01Y50202D02*
X143652Y50460D01*
X143843Y50615D01*
X144150Y50667D01*
X144418Y50615D01*
X144687Y50357D01*
X144802Y49995D01*
X144840Y49633D01*
X144802Y49272D01*
X144687Y48910D01*
X144457Y48703D01*
X144150Y48600D01*
X143882Y48652D01*
X143613Y48807D01*
X143460Y49013D01*
G01X147250Y50667D02*
Y48600D01*
G01Y51493D02*
X147173Y51545D01*
Y51648D01*
X147250Y51700D01*
X147327Y51648D01*
Y51545D01*
X147250Y51493D01*
G01X150350Y51700D02*
Y48600D01*
G01X149813Y50667D02*
X150887D01*
G01X154140Y48600D02*
Y50667D01*
G01Y50305D02*
X153987Y50512D01*
X153757Y50615D01*
X153488Y50667D01*
X153220Y50563D01*
X152990Y50357D01*
X152837Y50047D01*
X152760Y49633D01*
X152837Y49220D01*
X152990Y48910D01*
X153220Y48703D01*
X153488Y48600D01*
X153757Y48652D01*
X153987Y48807D01*
X154140Y49013D01*
G01X156550Y48600D02*
Y51700D01*
G01X159650Y50667D02*
Y48600D01*
G01Y51493D02*
X159573Y51545D01*
Y51648D01*
X159650Y51700D01*
X159727Y51648D01*
Y51545D01*
X159650Y51493D01*
G01X162175Y48962D02*
X162367Y48755D01*
X162635Y48600D01*
X162865D01*
X163095Y48703D01*
X163248Y48858D01*
X163325Y49065D01*
X163287Y49375D01*
X163133Y49530D01*
X162443Y49840D01*
X162290Y50202D01*
X162367Y50460D01*
X162520Y50615D01*
X162750Y50667D01*
X162980Y50615D01*
X163210Y50460D01*
G01X165850Y51700D02*
Y48600D01*
G01X165313Y50667D02*
X166387D01*
G01X168950Y48497D02*
X168873Y48548D01*
Y48652D01*
X168950Y48703D01*
X169027Y48652D01*
Y48548D01*
X168950Y48497D01*
G01X172050Y48600D02*
X171820Y48652D01*
X171590Y48858D01*
X171437Y49220D01*
X171360Y49633D01*
X171437Y50047D01*
X171590Y50408D01*
X171820Y50615D01*
X172050Y50667D01*
X172280Y50615D01*
X172510Y50408D01*
X172663Y50047D01*
X172702Y49633D01*
X172663Y49220D01*
X172510Y48858D01*
X172280Y48652D01*
X172050Y48600D01*
G01X174613D02*
Y50667D01*
G01Y50253D02*
X174805Y50460D01*
X174997Y50615D01*
X175265Y50667D01*
X175457Y50615D01*
X175687Y50460D01*
G01X177713Y47825D02*
X177982Y47618D01*
X178288Y47567D01*
X178557Y47618D01*
X178787Y47877D01*
X178940Y48238D01*
Y50667D01*
G01Y50253D02*
X178787Y50460D01*
X178557Y50615D01*
X178288Y50667D01*
X177982Y50563D01*
X177790Y50357D01*
X177637Y49995D01*
X177560Y49633D01*
X177598Y49323D01*
X177752Y48962D01*
X177982Y48703D01*
X178288Y48600D01*
X178518Y48652D01*
X178787Y48858D01*
X178940Y49065D01*
G01X268098Y65400D02*
X265782D01*
X265202Y64820D01*
Y56702D01*
X249000Y40500D01*
X227721D01*
X226321Y41900D01*
X221679D01*
X219279Y39500D01*
X179858D01*
X178858Y40500D01*
X175542D01*
X174542Y39500D01*
X127402D01*
X121500Y33598D01*
Y24000D01*
G01X126000Y33000D02*
X126200D01*
X129500Y36300D01*
G01X113993Y55342D02*
X113763Y55497D01*
X113495Y55600D01*
X113188D01*
X112843Y55445D01*
X112575Y55187D01*
X112383Y54877D01*
X112230Y54360D01*
X112192Y53895D01*
X112268Y53430D01*
X112383Y53120D01*
X112613Y52810D01*
X112882Y52603D01*
X113150Y52500D01*
X113418D01*
X113687Y52603D01*
X113917Y52758D01*
X114108Y52965D01*
G01X117093Y55342D02*
X116863Y55497D01*
X116595Y55600D01*
X116288D01*
X115943Y55445D01*
X115675Y55187D01*
X115483Y54877D01*
X115330Y54360D01*
X115292Y53895D01*
X115368Y53430D01*
X115483Y53120D01*
X115713Y52810D01*
X115982Y52603D01*
X116250Y52500D01*
X116518D01*
X116787Y52603D01*
X117017Y52758D01*
X117208Y52965D01*
G01X118852Y53533D02*
X119848D01*
G01X121645Y52913D02*
X121952Y52655D01*
X122297Y52500D01*
X122603D01*
X122910Y52655D01*
X123140Y52913D01*
X123255Y53275D01*
X123178Y53637D01*
X122987Y53947D01*
X122642Y54153D01*
X122182Y54257D01*
X121913Y54463D01*
X121798Y54825D01*
X121875Y55187D01*
X122067Y55445D01*
X122335Y55600D01*
X122603D01*
X122872Y55497D01*
X123102Y55238D01*
G01X124592Y52500D02*
X125550Y55600D01*
X126508Y52500D01*
G01X126163Y53585D02*
X124937D01*
G01X131060Y52500D02*
Y55600D01*
G01Y54050D02*
X131252Y54360D01*
X131482Y54515D01*
X131712Y54567D01*
X132057Y54463D01*
X132287Y54257D01*
X132440Y53895D01*
Y53482D01*
X132363Y53068D01*
X132210Y52758D01*
X131942Y52552D01*
X131712Y52500D01*
X131482Y52552D01*
X131252Y52707D01*
X131060Y52965D01*
G01X134045Y51570D02*
X134275Y51467D01*
X134582Y51570D01*
X134773Y51777D01*
X134927Y52035D01*
X135157Y52862D01*
X135655Y54567D01*
G01X134428D02*
X135157Y52862D01*
G01X140207Y52500D02*
Y55600D01*
X140973D01*
X141280Y55445D01*
X141510Y55238D01*
X141702Y54928D01*
X141855Y54567D01*
X141893Y54050D01*
X141855Y53533D01*
X141702Y53172D01*
X141510Y52862D01*
X141280Y52655D01*
X140973Y52500D01*
X140207D01*
G01X144840D02*
Y54567D01*
G01Y54205D02*
X144687Y54412D01*
X144457Y54515D01*
X144188Y54567D01*
X143920Y54463D01*
X143690Y54257D01*
X143537Y53947D01*
X143460Y53533D01*
X143537Y53120D01*
X143690Y52810D01*
X143920Y52603D01*
X144188Y52500D01*
X144457Y52552D01*
X144687Y52707D01*
X144840Y52913D01*
G01X146713Y52500D02*
Y54567D01*
G01Y54153D02*
X146905Y54360D01*
X147097Y54515D01*
X147365Y54567D01*
X147557Y54515D01*
X147787Y54360D01*
G01X149813Y52500D02*
Y54567D01*
G01Y54153D02*
X150005Y54360D01*
X150197Y54515D01*
X150465Y54567D01*
X150657Y54515D01*
X150887Y54360D01*
G01X152875Y53895D02*
X154102D01*
X153987Y54257D01*
X153795Y54463D01*
X153527Y54567D01*
X153258Y54515D01*
X153028Y54360D01*
X152875Y53998D01*
X152798Y53688D01*
Y53378D01*
X152875Y53068D01*
X153067Y52758D01*
X153297Y52552D01*
X153565Y52500D01*
X153833Y52603D01*
X154102Y52913D01*
G01X155898Y52500D02*
Y54567D01*
G01Y54050D02*
X156052Y54308D01*
X156282Y54515D01*
X156588Y54567D01*
X156857Y54515D01*
X157087Y54308D01*
X157202Y53947D01*
Y52500D01*
G01X161792Y55600D02*
X162750Y52500D01*
X163708Y55600D01*
G01X166540Y52500D02*
Y54567D01*
G01Y54205D02*
X166387Y54412D01*
X166157Y54515D01*
X165888Y54567D01*
X165620Y54463D01*
X165390Y54257D01*
X165237Y53947D01*
X165160Y53533D01*
X165237Y53120D01*
X165390Y52810D01*
X165620Y52603D01*
X165888Y52500D01*
X166157Y52552D01*
X166387Y52707D01*
X166540Y52913D01*
G01X168298Y52500D02*
Y54567D01*
G01Y54050D02*
X168452Y54308D01*
X168682Y54515D01*
X168988Y54567D01*
X169257Y54515D01*
X169487Y54308D01*
X169602Y53947D01*
Y52500D01*
G01X172740Y55600D02*
Y52500D01*
G01Y52965D02*
X172587Y52707D01*
X172357Y52552D01*
X172088Y52500D01*
X171782Y52603D01*
X171552Y52862D01*
X171398Y53172D01*
X171360Y53533D01*
X171398Y53895D01*
X171552Y54205D01*
X171782Y54463D01*
X172088Y54567D01*
X172357Y54515D01*
X172548Y54412D01*
X172740Y54205D01*
G01X174575Y53895D02*
X175802D01*
X175687Y54257D01*
X175495Y54463D01*
X175227Y54567D01*
X174958Y54515D01*
X174728Y54360D01*
X174575Y53998D01*
X174498Y53688D01*
Y53378D01*
X174575Y53068D01*
X174767Y52758D01*
X174997Y52552D01*
X175265Y52500D01*
X175533Y52603D01*
X175802Y52913D01*
G01X177713Y52500D02*
Y54567D01*
G01Y54153D02*
X177905Y54360D01*
X178097Y54515D01*
X178365Y54567D01*
X178557Y54515D01*
X178787Y54360D01*
G01X180660Y54567D02*
X181350Y52500D01*
X182040Y54567D01*
G01X184450Y52500D02*
X184220Y52552D01*
X183990Y52758D01*
X183837Y53120D01*
X183760Y53533D01*
X183837Y53947D01*
X183990Y54308D01*
X184220Y54515D01*
X184450Y54567D01*
X184680Y54515D01*
X184910Y54308D01*
X185063Y53947D01*
X185102Y53533D01*
X185063Y53120D01*
X184910Y52758D01*
X184680Y52552D01*
X184450Y52500D01*
G01X187013D02*
Y54567D01*
G01Y54153D02*
X187205Y54360D01*
X187397Y54515D01*
X187665Y54567D01*
X187857Y54515D01*
X188087Y54360D01*
G01X190650Y55600D02*
Y52500D01*
G01X190113Y54567D02*
X191187D01*
G01X114000Y77500D02*
X111000D01*
X109500Y79000D01*
G01X126815Y63500D02*
X127000Y63685D01*
G01X126500Y63500D02*
X126815D01*
G01X127000Y118000D02*
X120500Y111500D01*
Y102500D01*
X113630D01*
G01X276970Y83000D02*
X275485Y81515D01*
X275015D01*
X275000Y81500D01*
X272048D01*
X272015Y81533D01*
X265385D01*
X265152Y81300D01*
X259395D01*
X256494Y84201D01*
X253844D01*
X253843Y84200D01*
X251510D01*
X251509Y84201D01*
X247531D01*
X247032Y84700D01*
X242520D01*
X242322Y84502D01*
X237680D01*
X237482Y84700D01*
X235582D01*
X235581Y84701D01*
X232930D01*
X231729Y83500D01*
X224271D01*
X222571Y85200D01*
X160929D01*
X159229Y83500D01*
X151771D01*
X150071Y85200D01*
X147116D01*
X141491Y90825D01*
X141300Y91781D01*
Y93699D01*
X127000Y108000D01*
G01D02*
Y103940D01*
X122000Y98940D01*
Y97500D01*
X113630D01*
G01X127000Y88000D02*
X134737D01*
X141737Y81000D01*
X145134D01*
X146134Y82000D01*
X148745D01*
X150445Y80300D01*
X160555D01*
X162255Y82000D01*
X221245D01*
X222945Y80300D01*
X233055D01*
X233885Y81129D01*
X234256Y81500D01*
X236155D01*
X236353Y81302D01*
X243648D01*
X243846Y81500D01*
X245705D01*
X246905Y80300D01*
X249484D01*
X250184Y81000D01*
X255168D01*
X258068Y78100D01*
X266478D01*
X266711Y78333D01*
X270689D01*
X270722Y78300D01*
X275489D01*
X275789Y78000D01*
X280369D01*
X280869Y77500D01*
X282000D01*
G01X127000Y88000D02*
X118030D01*
X117530Y87500D01*
X113630D01*
G01X281000Y81500D02*
X279100Y79600D01*
X276452D01*
X276152Y79900D01*
X271385D01*
X271352Y79933D01*
X266048D01*
X265815Y79700D01*
X258732D01*
X255832Y82600D01*
X246869D01*
X246369Y83100D01*
X243183D01*
X242985Y82902D01*
X237016D01*
X236818Y83100D01*
X233592D01*
X232392Y81900D01*
X223608D01*
X221908Y83600D01*
X161592D01*
X159892Y81900D01*
X151108D01*
X149408Y83600D01*
X145471D01*
X144471Y82600D01*
X142400D01*
X127000Y98000D01*
G01X113630Y92500D02*
X121500D01*
X127000Y98000D01*
G01Y128000D02*
X122101Y123101D01*
Y117760D01*
X117830Y113489D01*
Y109950D01*
X115380Y107500D01*
X113630D01*
G01X240000Y90102D02*
X236226D01*
X235426Y90902D01*
X232342D01*
X229740Y88300D01*
X226260D01*
X224560Y90000D01*
X158940D01*
X157240Y88300D01*
X153760D01*
X152060Y90000D01*
X149108D01*
X146302Y92806D01*
Y114638D01*
X127000Y133940D01*
Y138000D01*
G01D02*
X117830Y128830D01*
Y115752D01*
X115208Y113130D01*
X113630D01*
Y112500D01*
G01X127000Y118000D02*
X143100Y101900D01*
X143102Y101890D01*
Y94132D01*
X143101Y94131D01*
Y91480D01*
X147781Y86800D01*
X150734D01*
X152434Y85100D01*
X158566D01*
X160266Y86800D01*
X223234D01*
X224934Y85100D01*
X231066D01*
X232267Y86301D01*
X236244D01*
X236245Y86300D01*
X238145D01*
X238343Y86102D01*
X241658D01*
X241856Y86300D01*
X248763D01*
X254300Y91837D01*
Y93605D01*
X259395Y98700D01*
X266605D01*
X271700Y93605D01*
Y88869D01*
X274069Y86500D01*
G01X113630Y134500D02*
X117530D01*
Y136733D01*
X124597Y143800D01*
X131063D01*
X131263Y144000D01*
X139000D01*
G01X113630Y139500D02*
X118034D01*
X123934Y145400D01*
X130400D01*
X139000Y154000D01*
G01Y134000D02*
X130800Y142200D01*
X125260D01*
X122800Y139740D01*
Y136920D01*
X115380Y129500D01*
X113630D01*
G01Y121244D02*
Y124500D01*
G01Y117500D02*
Y121244D01*
G01X127000Y128000D02*
X144702Y110298D01*
Y92142D01*
X148444Y88400D01*
X151397D01*
X153097Y86700D01*
X157903D01*
X159603Y88400D01*
X223897D01*
X225597Y86700D01*
X230403D01*
X233005Y89302D01*
X234763D01*
X236164Y87901D01*
X236907D01*
X236908Y87900D01*
X238808D01*
X239006Y87702D01*
X240995D01*
X241193Y87900D01*
X244900D01*
X247000Y90000D01*
G01X139000Y184000D02*
X133000Y178000D01*
Y162500D01*
X125000Y154500D01*
X113630D01*
G01Y144500D02*
X120124D01*
X136200Y160576D01*
Y161200D01*
X139000Y164000D01*
G01X113630Y166500D02*
X117530D01*
X119500Y168470D01*
G01X121000Y164000D02*
X126500D01*
G01X139000Y174000D02*
X134600Y169600D01*
Y161239D01*
X122861Y149500D01*
X113630D01*
G01Y176500D02*
X117500D01*
X127000Y186000D01*
G01Y176000D02*
X119880D01*
X115380Y171500D01*
X113630D01*
G01Y186500D02*
X115380D01*
X121030Y192150D01*
Y200030D01*
X127000Y206000D01*
G01X145000Y166000D02*
Y178000D01*
X143200Y179800D01*
Y185740D01*
X140740Y188200D01*
X134800D01*
X127000Y196000D01*
G01D02*
Y191940D01*
X117530Y182470D01*
Y181500D01*
X113630D01*
G01X127000Y226000D02*
X123100D01*
X122550Y225450D01*
X111752D01*
X111050Y224748D01*
Y216252D01*
X111852Y215450D01*
X117748D01*
X118450Y214748D01*
Y205450D01*
X117830Y204830D01*
Y199752D01*
X117128Y199050D01*
X116180D01*
X113630Y196500D01*
G01Y191500D02*
X116180Y194050D01*
X117128D01*
X119430Y196352D01*
Y204167D01*
X122101Y206838D01*
Y211101D01*
X127000Y216000D01*
G01X146500Y217000D02*
Y217200D01*
X142700Y221000D01*
X134402D01*
X133602Y221800D01*
X125260D01*
X124060Y223000D01*
X114750D01*
G01Y218000D02*
X123060D01*
X125260Y220200D01*
X128740D01*
X131940Y217000D01*
X136500D01*
G01X114750Y213000D02*
X110500D01*
G01X114500Y207000D02*
X114300D01*
X110500Y210800D01*
Y213000D01*
G01X161500Y176000D02*
X157940D01*
X157240Y176700D01*
X152142D01*
X144800Y184042D01*
Y196305D01*
X134100Y207005D01*
Y208900D01*
X127000Y216000D01*
G01X117500Y234500D02*
X120500D01*
X122000Y233000D01*
G01X149000Y24000D02*
Y13500D01*
G01X163000Y70000D02*
Y64500D01*
X161500Y63000D01*
G01X155500Y92500D02*
X228000D01*
G01X155500Y142500D02*
X158402Y139598D01*
X211440D01*
X211842Y140000D01*
X215158D01*
X215560Y139598D01*
X215992D01*
X217291Y138300D01*
X246714D01*
X249592Y141178D01*
X296118D01*
X298397Y138900D01*
X300597Y136700D01*
X305403D01*
X307779Y139076D01*
X373221D01*
X375597Y136700D01*
X380403D01*
X381703Y138000D01*
X395992D01*
X404571Y146569D01*
X407690Y149684D01*
X430336D01*
X442020Y138000D01*
X447034D01*
X448334Y136700D01*
X457666D01*
X458966Y138000D01*
X471000D01*
X486500Y153500D01*
G01X155500Y132500D02*
X174673D01*
X180153Y137980D01*
X212085D01*
X212505Y138400D01*
X214495D01*
X214915Y137980D01*
X215330D01*
X217827Y135483D01*
Y135443D01*
X217888Y135134D01*
X218009Y134843D01*
X218169Y134603D01*
X220272Y132500D01*
X228000D01*
G01X149000Y139000D02*
X150788Y137212D01*
X153155D01*
X153499Y137165D01*
X153798Y137063D01*
X154837D01*
X155500Y136400D01*
Y132500D01*
G01X139000Y134000D02*
X144000D01*
Y136940D01*
X146600Y139540D01*
Y139995D01*
X148005Y141400D01*
X148460D01*
X153760Y146700D01*
X156700D01*
X166500Y156500D01*
G01Y117500D02*
X162000D01*
G01X160000Y166000D02*
X163899Y162100D01*
X175401D01*
X179201Y158300D01*
X230403D01*
X232003Y156700D01*
X304740D01*
X308940Y152500D01*
X378000D01*
G01X139000Y144000D02*
X144368D01*
X144505Y143863D01*
X146495D01*
X147900Y145268D01*
Y146400D01*
X149500Y148000D01*
G01X145500Y146263D02*
Y157500D01*
G01X155000Y172000D02*
X143100Y160100D01*
Y158100D01*
X139000Y154000D01*
G01X149500Y156500D02*
X151000Y158000D01*
X162342D01*
X164842Y160500D01*
X174463D01*
X178263Y156700D01*
X229740D01*
X233940Y152500D01*
X303000D01*
G01X162500Y170000D02*
X165800Y166700D01*
X229740D01*
X238140Y158300D01*
X378140D01*
X379440Y157000D01*
X432073D01*
X436573Y152500D01*
X453000D01*
G01X183200Y149500D02*
X181450D01*
X172050Y158900D01*
X165505D01*
X161863Y155258D01*
X158258D01*
X155500Y152500D01*
G01Y192500D02*
X228000D01*
G01X155500D02*
X159700Y196700D01*
Y207800D01*
X150500Y217000D01*
X146500D01*
G01X150500Y184000D02*
X153200Y186700D01*
X304740D01*
X308940Y182500D01*
X378000D01*
G01X150500Y187500D02*
X151632D01*
X152432Y188300D01*
X378140D01*
X382199Y184241D01*
Y182784D01*
X404765Y160218D01*
X433570D01*
X434488Y159300D01*
X441985D01*
X443858Y161173D01*
Y161174D01*
X446201Y163517D01*
Y165780D01*
X448800Y168379D01*
Y174240D01*
X453000Y178440D01*
Y182500D01*
G01X228000Y172500D02*
X155500D01*
G01X303000Y182500D02*
X298800Y178300D01*
X226260D01*
X226160Y178400D01*
X157340D01*
X157240Y178300D01*
X152805D01*
X146400Y184705D01*
Y198100D01*
X136500Y208000D01*
G01X228000Y182500D02*
X155500D01*
G01X163000Y202500D02*
X228000D01*
G01X136500Y217000D02*
X141000D01*
X155500Y202500D01*
G01X173500Y33000D02*
X173700D01*
X177200Y36500D01*
G01X268700Y73533D02*
Y69200D01*
X270552Y67348D01*
Y65538D01*
X270548Y65534D01*
Y65492D01*
X270541Y65485D01*
Y65431D01*
X270528Y65418D01*
Y65350D01*
X270505Y65327D01*
Y65247D01*
X270498Y65240D01*
Y64405D01*
X266900Y60807D01*
Y55005D01*
X252195Y40300D01*
X251063D01*
X249663Y38900D01*
X227058D01*
X225658Y40300D01*
X222342D01*
X219942Y37900D01*
X179195D01*
X178195Y38900D01*
X176205D01*
X175205Y37900D01*
X173302D01*
X169000Y33598D01*
Y24000D01*
G01X181000Y120500D02*
X185200D01*
G01D02*
X192000D01*
G01X186000Y125100D02*
Y121300D01*
X185200Y120500D01*
G01X191500Y129500D02*
X186800D01*
X186000Y128700D01*
G01D02*
X185200Y129500D01*
X181000D01*
G01X186000Y125100D02*
Y128700D01*
G01X187000Y142500D02*
X182500D01*
G01X190700Y149500D02*
X198800D01*
X204300Y144000D01*
X204500D01*
G01X325500Y262500D02*
X318318Y269682D01*
X284945D01*
X220363Y205100D01*
X168005D01*
X167605Y205500D01*
X165000D01*
G01X328000Y268000D02*
X324716Y271284D01*
X284284D01*
X220500Y207500D01*
X169000D01*
G01X196000Y24000D02*
Y11500D01*
G01X273500Y73500D02*
Y53500D01*
X272015Y52015D01*
X271515D01*
X258200Y38700D01*
X251726D01*
X250326Y37300D01*
X226395D01*
X224995Y38700D01*
X223005D01*
X220605Y36300D01*
X218702D01*
X216000Y33598D01*
Y24000D01*
G01X220500Y33000D02*
X220700D01*
X224000Y36300D01*
G01X228000Y152500D02*
X225242Y149742D01*
X212258D01*
X212000Y150000D01*
X210700D01*
X204700Y144000D01*
X204500D01*
G01X243000Y24000D02*
Y12000D01*
G01X228000Y92500D02*
X231900D01*
X231902Y92502D01*
X236089D01*
X236091Y92500D01*
X238605D01*
X238607Y92502D01*
X241393D01*
X241395Y92500D01*
X251877D01*
X252700Y93323D01*
Y94268D01*
X258732Y100300D01*
X267268D01*
X273300Y94268D01*
Y92500D01*
X303000D01*
G01Y132500D02*
X295829D01*
X292672Y135656D01*
X292668D01*
X291024Y137300D01*
X288745Y139578D01*
X250255D01*
X243177Y132500D01*
X228000D01*
G01X237500Y118000D02*
X241000D01*
X243500Y120500D01*
G01X263000Y122000D02*
X253000D01*
G01X257500Y129000D02*
Y129700D01*
X256700Y130500D01*
X253000D01*
G01X487000Y167000D02*
Y166098D01*
X483500Y162598D01*
Y160579D01*
X463421Y140500D01*
X459203D01*
X457003Y138300D01*
X448997D01*
X446003Y141294D01*
X440989D01*
X430999Y151284D01*
X407028D01*
X404578Y148838D01*
X402971Y147233D01*
X397024Y141294D01*
X382734D01*
X379740Y138300D01*
X376260D01*
X373884Y140676D01*
X307116D01*
X304740Y138300D01*
X301260D01*
X298800Y140760D01*
X296781Y142778D01*
X248929D01*
X248651Y142500D01*
X228000D01*
G01Y192500D02*
X258195D01*
X259395Y191300D01*
X266605D01*
X267805Y192500D01*
X303000D01*
G01Y172500D02*
X228000D01*
G01Y202500D02*
X253195D01*
X259395Y208700D01*
X266605D01*
X272805Y202500D01*
X303000D01*
G01X267500Y33000D02*
Y37000D01*
X269000Y38500D01*
G01X263000Y24000D02*
Y27400D01*
X263500Y27900D01*
Y37000D01*
X276970Y50470D01*
Y73030D01*
G01X281000Y71000D02*
Y53000D01*
X310000Y24000D01*
G01X258000Y127600D02*
Y127500D01*
X257500Y127000D01*
Y129000D01*
G01X263000Y130500D02*
X259000D01*
X257500Y129000D01*
G01X290000Y24000D02*
Y12000D01*
G01X285500Y71000D02*
X310000D01*
X357000Y24000D01*
G01X303000Y92500D02*
X378000D01*
G01Y132500D02*
X370259D01*
X365283Y137476D01*
X328213D01*
X323235Y132500D01*
X303000D01*
G01X487000Y181000D02*
X481900Y175900D01*
Y161242D01*
X465158Y144500D01*
X457537D01*
X455337Y146700D01*
X437846D01*
X431662Y152884D01*
X406364D01*
X398391Y144923D01*
X397568Y144100D01*
X382340D01*
X379740Y146700D01*
X311100D01*
X306900Y142500D01*
X303000D01*
G01Y192500D02*
X378000D01*
G01X303000Y172500D02*
X378000D01*
G01X303000Y202500D02*
X378000D01*
G01X290400Y241500D02*
Y238500D01*
G01D02*
X293400Y235500D01*
X295000D01*
G01X290400Y238500D02*
X287400Y235500D01*
X283500D01*
G01X290400Y241500D02*
Y244500D01*
G01D02*
X293900Y248000D01*
X295000D01*
G01X290400Y244500D02*
X286400Y248500D01*
X284000D01*
G01X337000Y24000D02*
Y11500D01*
G01X314500Y33000D02*
Y35500D01*
X316500Y37500D01*
G01X314000Y116000D02*
X317500D01*
G01X333000Y125100D02*
Y128700D01*
G01D02*
X333800Y129500D01*
X338500D01*
G01X327500D02*
X332200D01*
X333000Y128700D01*
G01Y125100D02*
Y121300D01*
X332200Y120500D01*
G01D02*
X339500D01*
G01X327000D02*
X332200D01*
G01X326500Y253500D02*
X329500D01*
G01X380112Y271666D02*
X339433D01*
X330267Y262500D01*
X325500D01*
G01X435000Y274000D02*
X385841D01*
X381107Y269266D01*
X378854D01*
X378720Y269400D01*
X347167D01*
X340267Y262500D01*
X335500D01*
G01X361500Y33000D02*
Y37000D01*
G01X369000Y230500D02*
Y215500D01*
X375500Y209000D01*
G01X365500Y230500D02*
Y215000D01*
X378000Y202500D01*
G01X355500Y262500D02*
X359200Y266200D01*
X377033D01*
X377167Y266066D01*
X382472D01*
X386486Y270080D01*
X427683D01*
X429663Y268100D01*
X457400D01*
X463000Y262500D01*
G01X345500D02*
X349500D01*
X354800Y267800D01*
X377696D01*
X377830Y267666D01*
X381770D01*
X385784Y271680D01*
X428346D01*
X429526Y270500D01*
X445500D01*
G01X383500Y80000D02*
Y11500D01*
G01X378000Y92500D02*
X453000D01*
G01Y132500D02*
X445257D01*
X429673Y148084D01*
X408354D01*
X406172Y145905D01*
X396655Y136400D01*
X389637D01*
X385737Y132500D01*
X378000D01*
G01X388500Y115500D02*
X391000D01*
X393000Y117500D01*
G01X402000Y128500D02*
X406700D01*
G01X401500Y119500D02*
X406700D01*
G01X378000Y192500D02*
X383799Y186701D01*
Y183447D01*
X405428Y161818D01*
X434233D01*
X435151Y160900D01*
X441321D01*
X444600Y164179D01*
Y172337D01*
X448800Y176537D01*
Y184240D01*
X453000Y188440D01*
Y192500D01*
G01X378000Y172500D02*
X391882Y158618D01*
X432907D01*
X433825Y157700D01*
X442648D01*
X445458Y160510D01*
Y160511D01*
X447801Y162854D01*
Y165117D01*
X451400Y168716D01*
Y172500D01*
G01X378000Y202500D02*
Y198440D01*
X385400Y191040D01*
Y184110D01*
X406090Y163420D01*
X434894D01*
X435814Y162500D01*
X440658D01*
X443000Y164842D01*
Y173000D01*
X447200Y177200D01*
Y192640D01*
X453000Y198440D01*
Y202500D01*
G01X385000Y146500D02*
X397705D01*
X405705Y154488D01*
X432321D01*
X438509Y148300D01*
X460305D01*
X462505Y146100D01*
X464495D01*
X480300Y161905D01*
Y187500D01*
X486800Y194000D01*
X487000D01*
G01X392250Y241500D02*
X386500D01*
G01X392250D02*
X387250Y246500D01*
G01X397400Y241500D02*
X392250D01*
G01X397400D02*
Y245900D01*
G01Y241500D02*
X399000D01*
X403500Y246000D01*
G01X383000Y263000D02*
X388478Y268478D01*
X427022D01*
X433000Y262500D01*
G01X433500Y51000D02*
Y51200D01*
X429200Y55500D01*
G01X407500Y124100D02*
Y127700D01*
X406700Y128500D01*
G01D02*
X414000D01*
G01X407500Y124100D02*
Y120300D01*
X406700Y119500D01*
G01D02*
X413500D01*
G01X408500Y166000D02*
X412500D01*
G01X417000Y166500D02*
X421000D01*
G01X441000Y177250D02*
Y178500D01*
X441400Y178100D01*
Y165505D01*
X439995Y164100D01*
X436477D01*
X434577Y166000D01*
Y166250D01*
X434375Y166452D01*
Y167452D01*
X433875Y167952D01*
Y172800D01*
X433175Y173500D01*
X433164Y173502D01*
X432702D01*
X432748Y173548D01*
X429202D01*
X428450Y174300D01*
Y180248D01*
X427798Y180900D01*
Y192225D01*
X426975Y193048D01*
X424254D01*
X423550Y193752D01*
Y201550D01*
X424500Y202500D01*
X427000D01*
G01Y209500D02*
X423000D01*
G01X427000Y215500D02*
Y215300D01*
X429237Y213063D01*
Y212361D01*
X429800Y211798D01*
Y207202D01*
X429098Y206500D01*
X428300D01*
X427000Y205200D01*
Y202500D01*
G01X431000Y221000D02*
X429500Y222500D01*
G01D02*
X427000D01*
G01Y253500D02*
X421500D01*
G01X459500Y15375D02*
Y15500D01*
X455500D01*
X452000Y19000D01*
G01X459250Y45500D02*
X456437Y48313D01*
Y49763D01*
X454200Y52000D01*
X454000D01*
G01X447000D02*
X454000D01*
G01X461000D02*
Y56000D01*
G01X462000Y114500D02*
X464500D01*
X467000Y117000D01*
G01X457000Y227000D02*
X456100Y226100D01*
Y210163D01*
X458800Y207463D01*
Y206700D01*
X460500Y205000D01*
Y155000D01*
X464000Y151500D01*
G01X437625Y169500D02*
Y169075D01*
X439000Y167700D01*
Y166500D01*
G01X487000Y207000D02*
X486800D01*
X478700Y198900D01*
Y162805D01*
X464995Y149100D01*
X464100D01*
X463500Y148500D01*
G01X453000Y174100D02*
X454300D01*
X457200Y177000D01*
Y206800D01*
X454500Y209500D01*
Y229000D01*
X455000Y229500D01*
G01X453000Y174100D02*
X451400Y172500D01*
G01X453000Y174100D02*
Y172500D01*
G01X451400D02*
X453000D01*
G01X459500Y210500D02*
X458015Y211985D01*
Y224620D01*
X459400Y226005D01*
Y227995D01*
X459565Y228160D01*
Y231532D01*
G01X452000Y232000D02*
Y208079D01*
X453000Y207079D01*
Y202500D01*
G01X445125Y206500D02*
Y211375D01*
G01X459966Y238500D02*
X476000Y254534D01*
Y255500D01*
X483000Y262500D01*
G01X458485Y257985D02*
Y240683D01*
X456302Y238500D01*
G01X453000Y262500D02*
Y244000D01*
X454500Y242500D01*
G01X451502Y238000D02*
Y243235D01*
X451400Y243337D01*
Y258867D01*
X449300Y260967D01*
Y264033D01*
X451467Y266200D01*
X454533D01*
X456700Y264033D01*
Y263567D01*
X461467Y258800D01*
X469300D01*
X473000Y262500D01*
G01X484000Y124600D02*
Y128200D01*
X483200Y129000D01*
G01D02*
X489000D01*
G01X478500D02*
X483200D01*
G01X484000Y124600D02*
Y120800D01*
X483200Y120000D01*
G01D02*
X488000D01*
G01X478500D02*
X483200D01*
G01X492500Y153500D02*
X492300D01*
X486700Y147900D01*
Y146500D01*
X486500D01*
G01X493000Y167000D02*
X492800D01*
X486700Y160900D01*
Y160500D01*
X486500D01*
G01X493000Y194000D02*
X492800D01*
X486700Y187900D01*
Y187500D01*
X486500D01*
G01X493000Y181000D02*
X492800D01*
X486700Y174900D01*
Y174000D01*
X486500D01*
G01X493000Y207000D02*
X492800D01*
X486700Y200900D01*
Y200500D01*
X486500D01*
G54D12*
X43000Y18500D03*
X36000D03*
X29000D03*
X50000D03*
X96500Y77500D03*
X90500D03*
X95500Y234500D03*
X101500D03*
X132000Y33000D03*
X126000D03*
X120000Y77500D03*
X114000D03*
X108500Y207000D03*
X114500D03*
X111500Y234500D03*
X117500D03*
X155500Y63000D03*
X161500D03*
X179500Y33000D03*
X173500D03*
X220500D03*
X211500Y144000D03*
X204500D03*
X226500Y33000D03*
X273500D03*
X267500D03*
X314500D03*
X320500D03*
Y253500D03*
X326500D03*
X367500Y33000D03*
X361500D03*
X433000Y253500D03*
X427000D03*
X440000Y52000D03*
X447000D03*
X454000D03*
X461000D03*
X493500Y160500D03*
X486500D03*
X493500Y146500D03*
X486500D03*
X493000Y167000D03*
X487000D03*
X492500Y153500D03*
X486500D03*
X493500Y174000D03*
X486500D03*
X493500Y187500D03*
X486500D03*
X493500Y200500D03*
X486500D03*
X493000Y181000D03*
X487000D03*
X493000Y194000D03*
X487000D03*
X493000Y207000D03*
X487000D03*
G54D21*
X127000Y88000D03*
Y176000D03*
X139000Y134000D03*
X155500Y202500D03*
X228000D03*
X303000D03*
X378000D03*
X453000D03*
G54D13*
X30750Y40000D03*
Y35000D03*
Y30000D03*
Y25000D03*
X50250Y35000D03*
Y40000D03*
Y30000D03*
Y25000D03*
X75250Y110000D03*
Y100000D03*
Y105000D03*
Y95000D03*
Y90000D03*
X55750Y110000D03*
Y105000D03*
Y100000D03*
Y95000D03*
Y90000D03*
X75250Y115000D03*
Y120000D03*
X55750D03*
Y115000D03*
X95250Y228000D03*
Y223000D03*
Y218000D03*
Y213000D03*
X114750Y223000D03*
Y228000D03*
Y218000D03*
Y213000D03*
X439750Y35500D03*
Y30500D03*
Y40500D03*
Y45500D03*
X459250Y30500D03*
Y35500D03*
Y40500D03*
Y45500D03*
G54D22*
X186000Y106900D03*
Y125100D03*
X258000Y109400D03*
Y127600D03*
X333000Y106900D03*
Y125100D03*
X407500Y105900D03*
Y124100D03*
X484000Y106400D03*
Y124600D03*
G54D14*
X30500Y47500D03*
Y53500D03*
X56500Y19500D03*
Y25500D03*
X83500Y110500D03*
Y116500D03*
X85500Y161500D03*
Y155500D03*
X88500Y206000D03*
Y212000D03*
X121000Y158000D03*
Y164000D03*
X146500Y224000D03*
Y217000D03*
X136500Y224000D03*
Y217000D03*
X166500Y123500D03*
Y117500D03*
X237500Y124000D03*
Y118000D03*
X314000Y122000D03*
Y116000D03*
X388500Y121500D03*
Y115500D03*
X433500Y45000D03*
Y51000D03*
X427000Y222500D03*
Y215500D03*
Y202500D03*
Y209500D03*
X462000Y120500D03*
Y114500D03*
G54D23*
X183200Y149500D03*
X190700D03*
X187000Y142500D03*
G54D15*
X29000Y71800D03*
Y257000D03*
G54D24*
X290400Y241500D03*
X308600D03*
X397400D03*
X415600D03*
G54D25*
X428375Y169500D03*
X437625D03*
X435875Y206500D03*
X445125D03*
G54D16*
X34180Y104746D03*
X23000Y99200D03*
Y110100D03*
X34180Y115646D03*
Y126546D03*
Y137446D03*
X23000Y121000D03*
Y131900D03*
Y142800D03*
X34180Y148346D03*
Y159246D03*
Y170146D03*
X23000Y153700D03*
Y164600D03*
X34180Y181046D03*
Y191946D03*
Y202846D03*
X23000Y175500D03*
Y186400D03*
Y197300D03*
X34180Y213746D03*
Y224646D03*
X23000Y208200D03*
Y219100D03*
Y230000D03*
X66500Y20000D03*
Y30000D03*
X97000Y260000D03*
X87000D03*
X77000D03*
X131500Y24000D03*
X121500D03*
X111500D03*
X113000Y70000D03*
X123000D03*
X133000D03*
X127000Y260000D03*
X117000D03*
X107000D03*
X159000Y24000D03*
X143000Y70000D03*
X153000D03*
X163000D03*
X157000Y260000D03*
X147000D03*
X137000D03*
X179000Y24000D03*
X169000D03*
X173000Y70000D03*
X183000D03*
X193000Y260000D03*
X183000D03*
X167000D03*
X226000Y24000D03*
X216000D03*
X206000D03*
X203000Y70000D03*
X213000D03*
X223000D03*
Y260000D03*
X213000D03*
X203000D03*
X253000Y24000D03*
X233000Y70000D03*
X243000D03*
X253000D03*
Y260000D03*
X243000D03*
X233000D03*
X273000Y24000D03*
X263000D03*
X310000D03*
X300000D03*
X315500Y262500D03*
X305500D03*
X295500D03*
X320000Y24000D03*
X345500Y262500D03*
X335500D03*
X325500D03*
X367000Y24000D03*
X357000D03*
X347000D03*
X375500Y262500D03*
X365500D03*
X355500D03*
X403000D03*
X433000D03*
X423000D03*
X413000D03*
X448000Y217000D03*
X438000D03*
X448000Y229000D03*
X438000D03*
X463000Y262500D03*
X453000D03*
X443000D03*
X483000D03*
X473000D03*
G54D17*
X58000Y70000D03*
X63000Y260000D03*
X263000Y90000D03*
Y200000D03*
X405500Y24000D03*
X487500Y240000D03*
G54D26*
X431000Y196750D03*
X426000D03*
Y177250D03*
X431000D03*
X436000Y196750D03*
X441000D03*
X436000Y177250D03*
X441000D03*
G54D27*
X459500Y15375D03*
Y24625D03*
G54D18*
X101500Y24000D03*
X149000D03*
X196000D03*
X243000D03*
X285500Y262500D03*
X290000Y24000D03*
X337000D03*
X393000Y262500D03*
G54D28*
G01X98000Y77500D02*
X101000Y80500D01*
Y115473D01*
X100500Y115973D01*
Y122500D01*
G01X148700Y65700D02*
X129228D01*
X128243Y66685D01*
X125757D01*
X124772Y65700D01*
X100000D01*
X99500Y66200D01*
G01D02*
X95000Y70700D01*
Y74500D01*
X98000Y77500D01*
G01X99500Y66000D02*
Y66200D01*
G01X100500Y122500D02*
Y159500D01*
X100000Y160000D01*
G01X101500Y164500D02*
Y201500D01*
X100500Y202500D01*
Y207450D01*
G01X102150Y225000D02*
Y213827D01*
X100550Y212227D01*
Y207500D01*
X100500Y207450D01*
G54D19*
X92370Y82500D03*
Y87500D03*
Y92500D03*
Y97500D03*
Y102500D03*
Y107500D03*
Y124500D03*
Y129500D03*
Y134500D03*
Y139500D03*
Y112500D03*
Y117500D03*
Y166500D03*
Y144500D03*
Y149500D03*
Y154500D03*
Y159500D03*
Y171500D03*
Y176500D03*
Y181500D03*
Y186500D03*
Y191500D03*
Y196500D03*
Y201500D03*
X113630Y107500D03*
Y102500D03*
Y97500D03*
Y92500D03*
Y87500D03*
Y82500D03*
Y139500D03*
Y134500D03*
Y129500D03*
Y124500D03*
Y117500D03*
Y112500D03*
Y166500D03*
Y159500D03*
Y154500D03*
Y149500D03*
Y144500D03*
Y196500D03*
Y191500D03*
Y186500D03*
Y181500D03*
Y176500D03*
Y171500D03*
Y201500D03*
G54D29*
G01X96500Y77500D02*
Y78370D01*
X92370Y82500D01*
G01X155500Y63000D02*
X151400D01*
X148700Y65700D01*
G01X98000Y77500D02*
X96500D01*
G01X80284Y121162D02*
Y119721D01*
G01X100000Y160000D02*
Y163000D01*
G01X83500Y116500D02*
Y117946D01*
X80284Y121162D01*
G01X77400Y117850D02*
X75250Y120000D01*
G01X83500Y116500D02*
X79763D01*
X78413Y117850D01*
X77400D01*
G01X100000Y163000D02*
X101500Y164500D01*
G01X92370Y159500D02*
X87500D01*
X85500Y161500D01*
G01D02*
X88000D01*
X89500Y163000D01*
X100000D01*
G01X88500Y206000D02*
X99050D01*
X100500Y207450D01*
G01X88500Y206000D02*
Y205370D01*
X92370Y201500D01*
G01X95500Y234500D02*
X95700D01*
X102150Y228050D01*
Y225000D01*
G01X95500Y234500D02*
Y230800D01*
X95250Y230550D01*
Y228000D01*
G01X111500Y234500D02*
X111300D01*
X107000Y230200D01*
Y215000D01*
X104000Y212000D01*
Y207000D01*
G01X107000Y163500D02*
Y200500D01*
X104000Y203500D01*
Y207000D01*
G01X132000Y33000D02*
X147263D01*
X153100Y27163D01*
Y24101D01*
X159201Y18000D01*
X187470D01*
X191900Y22430D01*
Y27163D01*
G01X131500Y24000D02*
Y28000D01*
X132000Y28500D01*
Y33000D01*
G01X120000Y77500D02*
X123100D01*
X124600Y79000D01*
X148916D01*
X149616Y78300D01*
X255039D01*
X257239Y76100D01*
X262360D01*
X262460Y76000D01*
X264200D01*
X264300Y76100D01*
X267307D01*
X267540Y76333D01*
X269860D01*
X269893Y76300D01*
X270160D01*
X270360Y76100D01*
X272140D01*
X272340Y76300D01*
X274660D01*
X274960Y76000D01*
X279540D01*
X280840Y74700D01*
X283160D01*
X284460Y76000D01*
X316800D01*
X324800Y84000D01*
X378600D01*
G01X120000Y77500D02*
X119800D01*
X116600Y74300D01*
X110240D01*
X106700Y77840D01*
Y80160D01*
X107000Y80460D01*
Y163500D01*
G01X120000Y77500D02*
X115000Y82500D01*
X113630D01*
G01Y159500D02*
X119500D01*
X121000Y158000D01*
G01D02*
Y158200D01*
X117800Y161400D01*
Y161600D01*
X115900Y163500D01*
X107000D01*
G01X114750Y228000D02*
X122494D01*
X125094Y230600D01*
X130100D01*
X136500Y224200D01*
Y224000D01*
G01X108500Y207000D02*
Y206630D01*
X113630Y201500D01*
G01X104000Y207000D02*
X108500D01*
G01X111500Y234500D02*
Y231000D01*
X114500Y228000D01*
X114750D01*
G01X155500Y63000D02*
Y67500D01*
X153000Y70000D01*
G01X155500Y122500D02*
X166500D01*
G01X136500Y224000D02*
X146500D01*
G01X179000Y24000D02*
Y29600D01*
X179500Y30100D01*
Y33000D01*
G01X238900Y27163D02*
Y22271D01*
X236529Y19900D01*
X204301D01*
X200100Y24101D01*
Y27163D01*
X199163Y28100D01*
X192837D01*
X191900Y27163D01*
G01D02*
Y28600D01*
X187500Y33000D01*
X179500D01*
G01X166500Y122500D02*
X167502D01*
X180980Y135978D01*
X212500D01*
G01X166500Y123500D02*
Y122500D01*
G01X212500Y135978D02*
X214501D01*
X215990Y134489D01*
X216237Y133895D01*
X216608Y133335D01*
X219441Y130502D01*
X219998D01*
X228000Y122500D01*
G01X213500Y136000D02*
X212522D01*
X212500Y135978D01*
G01X211500Y144000D02*
X215500D01*
X216500Y143000D01*
G01X238900Y27163D02*
X239837Y28100D01*
X246163D01*
X247100Y27163D01*
Y22271D01*
X250371Y19000D01*
X282629D01*
X285900Y22271D01*
Y27163D01*
X286837Y28100D01*
G01X226000Y24000D02*
Y28000D01*
X226500Y28500D01*
Y33000D01*
G01D02*
X237300D01*
X238900Y31400D01*
Y27163D01*
G01X237500Y124000D02*
Y124200D01*
X243800Y130500D01*
X244006D01*
X251082Y137576D01*
X287918D01*
X292161Y133334D01*
X292164D01*
X294997Y130502D01*
X295000Y130500D01*
X303000Y122500D01*
G01X228000D02*
X236000D01*
X237500Y124000D01*
G01X273000Y24000D02*
Y28000D01*
X273500Y28500D01*
Y33000D01*
G01X286837Y28100D02*
X281937Y33000D01*
X273500D01*
G01X286837Y28100D02*
X293163D01*
X294100Y27163D01*
Y24101D01*
X298886Y19315D01*
X329515D01*
X332900Y22700D01*
Y27163D01*
G01X303000Y122500D02*
X315500D01*
G01X320000Y24000D02*
Y28000D01*
X320500Y28500D01*
Y33000D01*
G01X332900Y27163D02*
X333837Y28100D01*
X340163D01*
X341100Y27163D01*
Y24101D01*
X345301Y19900D01*
X371900D01*
X377000Y25000D01*
G01X332900Y27163D02*
Y31000D01*
X330900Y33000D01*
X320500D01*
G01X315500Y122500D02*
X323499Y130499D01*
X324014D01*
X324056Y130513D01*
X324073Y130522D01*
X324138Y130577D01*
X324429Y130867D01*
X324439Y130874D01*
X329040Y135474D01*
X364454D01*
X369428Y130500D01*
X370000D01*
X378000Y122500D01*
G01X314000Y122000D02*
X315000D01*
X315500Y122500D01*
G01X320500Y227500D02*
X323500D01*
X329300Y233300D01*
X370160D01*
X375960Y227500D01*
X390200D01*
G01X315500Y262500D02*
X320500Y257500D01*
Y253500D01*
G01D02*
Y248500D01*
G01X377000Y25000D02*
X371661Y30339D01*
X370361D01*
X367700Y33000D01*
X367500D01*
G01D02*
Y24500D01*
X367000Y24000D01*
G01X378600Y84000D02*
X377000Y82400D01*
Y25000D01*
G01X433500Y44800D02*
X394300Y84000D01*
X378600D01*
G01X388500Y121500D02*
Y128566D01*
X387330Y129736D01*
Y131245D01*
X390485Y134400D01*
X397483D01*
X409180Y146082D01*
X428846D01*
X444428Y130500D01*
X445000D01*
X453000Y122500D01*
G01X378000D02*
X378430Y122070D01*
X380157D01*
X380407Y122227D01*
X380775Y122369D01*
X381163Y122435D01*
X381557Y122425D01*
X381941Y122338D01*
X382301Y122178D01*
X382584Y121979D01*
X382847Y121716D01*
X382895Y121665D01*
X382905Y121649D01*
X383054Y121500D01*
X388500D01*
G01X433500Y45000D02*
Y44800D01*
G01X433000Y233200D02*
X428300Y228500D01*
X425800D01*
G01X433000Y233200D02*
X434300Y234500D01*
X450540D01*
X450840Y234800D01*
X470863D01*
X496400Y209263D01*
Y204737D01*
X493700Y202037D01*
Y200500D01*
G01X433000Y253500D02*
Y233200D01*
G01X423000Y262500D02*
X425688Y259812D01*
X426488D01*
X432800Y253500D01*
X433000D01*
G01X437500Y254500D02*
X436500Y253500D01*
X433000D01*
G01X493500Y132900D02*
X494985Y131415D01*
Y35985D01*
X487100Y28100D01*
Y24100D01*
X486600Y23600D01*
Y17472D01*
X483028Y13900D01*
X472900D01*
X470000Y11000D01*
X453237D01*
X435650Y28587D01*
Y32650D01*
X438500Y35500D01*
G01X447000Y42000D02*
Y45200D01*
X440200Y52000D01*
X440000D01*
G01X438500Y35500D02*
X439750D01*
G01X462000Y120500D02*
X457000D01*
X455000Y122500D01*
X453000D01*
G01X493500Y132900D02*
X492950Y133450D01*
X474750D01*
X462000Y120700D01*
Y120500D01*
G01X493500Y146500D02*
Y132900D01*
G01Y146500D02*
X493700D01*
X496220Y149020D01*
Y157980D01*
X493700Y160500D01*
G01D02*
X493500D01*
G01X493700D02*
X496400Y163200D01*
Y171300D01*
X493700Y174000D01*
G01Y200500D02*
X496400Y197800D01*
Y190200D01*
X493700Y187500D01*
G01Y200500D02*
X493500D01*
G01X493700Y187500D02*
X493500D01*
G01X493700Y174000D02*
X496400Y176700D01*
Y184800D01*
X493700Y187500D01*
G01Y174000D02*
X493500D01*
M02*
