G04 ================== begin FILE IDENTIFICATION RECORD ==================*
G04 Layout Name:  steppernug_interface.brd*
G04 Film Name:    Top_Solder*
G04 File Format:  Gerber RS274X*
G04 File Origin:  Cadence Allegro 16.3-S027*
G04 Origin Date:  Fri Jul 27 14:03:25 2012*
G04 *
G04 Layer:  PIN/SOLDERMASK_TOP*
G04 Layer:  BOARD GEOMETRY/SOLDERMASK_TOP*
G04 Layer:  PACKAGE GEOMETRY/SOLDERMASK_TOP*
G04 *
G04 Offset:    (0.00 0.00)*
G04 Mirror:    No*
G04 Mode:      Positive*
G04 Rotation:  0*
G04 FullContactRelief:  No*
G04 UndefLineWidth:     6.00*
G04 ================== end FILE IDENTIFICATION RECORD ====================*
%FSLAX55Y55*MOIN*%
%IR0*IPPOS*OFA0.00000B0.00000*MIA0B0*SFA1.00000B1.00000*%
%ADD24R,.153X.05*%
%ADD22R,.05X.153*%
%ADD16C,.05*%
%ADD15C,.06*%
%ADD20C,.075*%
%ADD18R,.05X.05*%
%ADD21R,.075X.075*%
%ADD23R,.022X.025*%
%ADD10C,.12*%
%ADD26R,.03X.055*%
%ADD12R,.055X.03*%
%ADD19R,.065X.03*%
%ADD13R,.042X.046*%
%ADD17C,.17*%
%ADD14C,.26*%
%ADD11R,.046X.042*%
%ADD27R,.059X.049*%
%ADD25R,.049X.059*%
%LPD*%
G75*
G54D10*
X15000Y39780D03*
Y26000D03*
X480500Y20000D03*
Y35000D03*
Y50000D03*
G54D11*
X43000Y18500D03*
X36000D03*
X29000D03*
X50000D03*
X96500Y77500D03*
X90500D03*
X95500Y234500D03*
X101500D03*
X132000Y33000D03*
X126000D03*
X120000Y77500D03*
X114000D03*
X108500Y207000D03*
X114500D03*
X111500Y234500D03*
X117500D03*
X155500Y63000D03*
X161500D03*
X179500Y33000D03*
X173500D03*
X220500D03*
X211500Y144000D03*
X204500D03*
X226500Y33000D03*
X273500D03*
X267500D03*
X314500D03*
X320500D03*
Y253500D03*
X326500D03*
X367500Y33000D03*
X361500D03*
X433000Y253500D03*
X427000D03*
X440000Y52000D03*
X447000D03*
X454000D03*
X461000D03*
X493500Y160500D03*
X486500D03*
X493500Y146500D03*
X486500D03*
X493000Y167000D03*
X487000D03*
X492500Y153500D03*
X486500D03*
X493500Y174000D03*
X486500D03*
X493500Y187500D03*
X486500D03*
X493500Y200500D03*
X486500D03*
X493000Y181000D03*
X487000D03*
X493000Y194000D03*
X487000D03*
X493000Y207000D03*
X487000D03*
G54D20*
X127000Y108000D03*
Y98000D03*
Y138000D03*
Y128000D03*
Y118000D03*
Y196000D03*
Y186000D03*
Y226000D03*
Y216000D03*
Y206000D03*
X155500Y92500D03*
Y102500D03*
Y112500D03*
X139000Y144000D03*
X155500Y122500D03*
Y132500D03*
Y142500D03*
X139000Y174000D03*
Y164000D03*
Y154000D03*
X155500Y152500D03*
Y162500D03*
Y172500D03*
X139000Y184000D03*
X155500Y182500D03*
Y192500D03*
X228000Y92500D03*
Y102500D03*
Y112500D03*
Y122500D03*
Y132500D03*
Y142500D03*
Y152500D03*
Y162500D03*
Y172500D03*
Y182500D03*
Y192500D03*
X303000Y92500D03*
Y102500D03*
Y112500D03*
Y122500D03*
Y132500D03*
Y142500D03*
Y152500D03*
Y162500D03*
Y172500D03*
Y182500D03*
Y192500D03*
X378000Y92500D03*
Y102500D03*
Y112500D03*
Y122500D03*
Y132500D03*
Y142500D03*
Y152500D03*
Y162500D03*
Y172500D03*
Y182500D03*
Y192500D03*
X453000Y92500D03*
Y102500D03*
Y112500D03*
Y122500D03*
Y132500D03*
Y142500D03*
Y152500D03*
Y162500D03*
Y172500D03*
Y182500D03*
Y192500D03*
G54D12*
X30750Y40000D03*
Y35000D03*
Y30000D03*
Y25000D03*
X50250Y35000D03*
Y40000D03*
Y30000D03*
Y25000D03*
X75250Y110000D03*
Y100000D03*
Y105000D03*
Y95000D03*
Y90000D03*
X55750Y110000D03*
Y105000D03*
Y100000D03*
Y95000D03*
Y90000D03*
X75250Y115000D03*
Y120000D03*
X55750D03*
Y115000D03*
X95250Y228000D03*
Y223000D03*
Y218000D03*
Y213000D03*
X114750Y223000D03*
Y228000D03*
Y218000D03*
Y213000D03*
X439750Y35500D03*
Y30500D03*
Y40500D03*
Y45500D03*
X459250Y30500D03*
Y35500D03*
Y40500D03*
Y45500D03*
G54D21*
X127000Y88000D03*
Y176000D03*
X139000Y134000D03*
X155500Y202500D03*
X228000D03*
X303000D03*
X378000D03*
X453000D03*
G54D13*
X30500Y47500D03*
Y53500D03*
X56500Y19500D03*
Y25500D03*
X83500Y110500D03*
Y116500D03*
X85500Y161500D03*
Y155500D03*
X88500Y206000D03*
Y212000D03*
X121000Y158000D03*
Y164000D03*
X146500Y224000D03*
Y217000D03*
X136500Y224000D03*
Y217000D03*
X166500Y123500D03*
Y117500D03*
X237500Y124000D03*
Y118000D03*
X314000Y122000D03*
Y116000D03*
X388500Y121500D03*
Y115500D03*
X433500Y45000D03*
Y51000D03*
X427000Y222500D03*
Y215500D03*
Y202500D03*
Y209500D03*
X462000Y120500D03*
Y114500D03*
G54D22*
X186000Y106900D03*
Y125100D03*
X258000Y109400D03*
Y127600D03*
X333000Y106900D03*
Y125100D03*
X407500Y105900D03*
Y124100D03*
X484000Y106400D03*
Y124600D03*
G54D14*
X29000Y71800D03*
Y257000D03*
G54D23*
X183200Y149500D03*
X190700D03*
X187000Y142500D03*
G54D15*
X34180Y104746D03*
X23000Y99200D03*
Y110100D03*
X34180Y115646D03*
Y126546D03*
Y137446D03*
X23000Y121000D03*
Y131900D03*
Y142800D03*
X34180Y148346D03*
Y159246D03*
Y170146D03*
X23000Y153700D03*
Y164600D03*
X34180Y181046D03*
Y191946D03*
Y202846D03*
X23000Y175500D03*
Y186400D03*
Y197300D03*
X34180Y213746D03*
Y224646D03*
X23000Y208200D03*
Y219100D03*
Y230000D03*
G54D24*
X290400Y241500D03*
X308600D03*
X397400D03*
X415600D03*
G54D25*
X428375Y169500D03*
X437625D03*
X435875Y206500D03*
X445125D03*
G54D16*
X66500Y20000D03*
Y30000D03*
X97000Y260000D03*
X87000D03*
X77000D03*
X131500Y24000D03*
X121500D03*
X111500D03*
X113000Y70000D03*
X123000D03*
X133000D03*
X127000Y260000D03*
X117000D03*
X107000D03*
X159000Y24000D03*
X143000Y70000D03*
X153000D03*
X163000D03*
X157000Y260000D03*
X147000D03*
X137000D03*
X179000Y24000D03*
X169000D03*
X173000Y70000D03*
X183000D03*
X193000Y260000D03*
X183000D03*
X167000D03*
X226000Y24000D03*
X216000D03*
X206000D03*
X203000Y70000D03*
X213000D03*
X223000D03*
Y260000D03*
X213000D03*
X203000D03*
X253000Y24000D03*
X233000Y70000D03*
X243000D03*
X253000D03*
Y260000D03*
X243000D03*
X233000D03*
X273000Y24000D03*
X263000D03*
X310000D03*
X300000D03*
X315500Y262500D03*
X305500D03*
X295500D03*
X320000Y24000D03*
X345500Y262500D03*
X335500D03*
X325500D03*
X367000Y24000D03*
X357000D03*
X347000D03*
X375500Y262500D03*
X365500D03*
X355500D03*
X403000D03*
X433000D03*
X423000D03*
X413000D03*
X448000Y217000D03*
X438000D03*
X448000Y229000D03*
X438000D03*
X463000Y262500D03*
X453000D03*
X443000D03*
X483000D03*
X473000D03*
G54D17*
X58000Y70000D03*
X63000Y260000D03*
X263000Y90000D03*
Y200000D03*
X405500Y24000D03*
X487500Y240000D03*
G54D26*
X431000Y196750D03*
X426000D03*
Y177250D03*
X431000D03*
X436000Y196750D03*
X441000D03*
X436000Y177250D03*
X441000D03*
G54D27*
X459500Y15375D03*
Y24625D03*
G54D18*
X101500Y24000D03*
X149000D03*
X196000D03*
X243000D03*
X285500Y262500D03*
X290000Y24000D03*
X337000D03*
X393000Y262500D03*
G54D19*
X92370Y82500D03*
Y87500D03*
Y92500D03*
Y97500D03*
Y102500D03*
Y107500D03*
Y124500D03*
Y129500D03*
Y134500D03*
Y139500D03*
Y112500D03*
Y117500D03*
Y166500D03*
Y144500D03*
Y149500D03*
Y154500D03*
Y159500D03*
Y171500D03*
Y176500D03*
Y181500D03*
Y186500D03*
Y191500D03*
Y196500D03*
Y201500D03*
X113630Y107500D03*
Y102500D03*
Y97500D03*
Y92500D03*
Y87500D03*
Y82500D03*
Y139500D03*
Y134500D03*
Y129500D03*
Y124500D03*
Y117500D03*
Y112500D03*
Y166500D03*
Y159500D03*
Y154500D03*
Y149500D03*
Y144500D03*
Y196500D03*
Y191500D03*
Y186500D03*
Y181500D03*
Y176500D03*
Y171500D03*
Y201500D03*
M02*
