G04 ================== begin FILE IDENTIFICATION RECORD ==================*
G04 Layout Name:  steppernug_interface.brd*
G04 Film Name:    Top_Silk*
G04 File Format:  Gerber RS274X*
G04 File Origin:  Cadence Allegro 16.3-S027*
G04 Origin Date:  Fri Jul 27 13:40:14 2012*
G04 *
G04 Layer:  PACKAGE GEOMETRY/SILKSCREEN_TOP*
G04 Layer:  MANUFACTURING/AUTOSILK_TOP*
G04 *
G04 Offset:    (0.00 0.00)*
G04 Mirror:    No*
G04 Mode:      Positive*
G04 Rotation:  0*
G04 FullContactRelief:  No*
G04 UndefLineWidth:     6.00*
G04 ================== end FILE IDENTIFICATION RECORD ====================*
%FSLAX55Y55*MOIN*%
%IR0*IPPOS*OFA0.00000B0.00000*MIA0B0*SFA1.00000B1.00000*%
%ADD10C,.006*%
G75*
%LPD*%
G75*
G36*
G01X438000Y165500D02*
Y173500D01*
X428000D01*
Y165500D01*
X438000D01*
G37*
G36*
G01X455500Y15000D02*
X463500D01*
Y25000D01*
X455500D01*
Y15000D01*
G37*
G36*
G01X445500Y202500D02*
Y210500D01*
X435500D01*
Y202500D01*
X445500D01*
G37*
G54D10*
G01X19700Y16750D02*
X-16500D01*
Y49030D01*
X19700D01*
Y16750D01*
G01D02*
X-16500D01*
Y49030D01*
X19700D01*
Y43508D01*
G01X14500Y56267D02*
X14750Y56400D01*
X14917Y56560D01*
X15000Y56747D01*
X14917Y56960D01*
X14750Y57120D01*
X14500Y57280D01*
X14167Y57333D01*
X12500D01*
G01X14625Y58413D02*
X14833Y58573D01*
X14958Y58760D01*
X15000Y59000D01*
X14917Y59240D01*
X14750Y59427D01*
X14458Y59560D01*
X14125Y59587D01*
X13792Y59533D01*
X13583Y59400D01*
X13417Y59213D01*
X13375Y59027D01*
X13417Y58840D01*
X13583Y58600D01*
X12500Y58680D01*
Y59400D01*
G01X29500Y17000D02*
X35500D01*
Y20000D01*
X29500D01*
Y17000D01*
G01X31299D02*
X33701D01*
G01X19700Y22272D02*
Y16750D01*
G01X32963Y46000D02*
Y44208D01*
X33070Y43833D01*
X33283Y43583D01*
X33550Y43500D01*
X33817Y43583D01*
X34030Y43833D01*
X34137Y44208D01*
Y46000D01*
G01X35163Y43875D02*
X35323Y43667D01*
X35510Y43542D01*
X35750Y43500D01*
X35990Y43583D01*
X36177Y43750D01*
X36310Y44042D01*
X36337Y44375D01*
X36283Y44708D01*
X36150Y44917D01*
X35963Y45083D01*
X35777Y45125D01*
X35590Y45083D01*
X35350Y44917D01*
X35430Y46000D01*
X36150D01*
G01X33750Y22500D02*
Y42500D01*
X47250D01*
Y22500D01*
X33750D01*
G01X37750Y40000D02*
G03I-1000J0D01*
G01X35500Y42500D02*
Y22500D01*
G01Y42500D02*
Y22500D01*
G01X37750Y40000D02*
G03I-1000J0D01*
G01X33750Y22500D02*
X47250D01*
Y42500D01*
X33750D01*
Y22500D01*
G01X36060Y50616D02*
X35680Y50866D01*
X35237Y51033D01*
X34730D01*
X34160Y50783D01*
X33717Y50366D01*
X33400Y49866D01*
X33147Y49033D01*
X33084Y48283D01*
X33210Y47533D01*
X33400Y47033D01*
X33780Y46533D01*
X34224Y46200D01*
X34667Y46033D01*
X35110D01*
X35554Y46200D01*
X35934Y46450D01*
X36250Y46783D01*
G01X39767Y46033D02*
Y51033D01*
X39007Y50033D01*
G01Y46033D02*
X40527D01*
G01X43474Y46783D02*
X43854Y46366D01*
X44297Y46116D01*
X44867Y46033D01*
X45437Y46200D01*
X45880Y46533D01*
X46197Y47116D01*
X46260Y47783D01*
X46134Y48450D01*
X45817Y48866D01*
X45374Y49200D01*
X44930Y49283D01*
X44487Y49200D01*
X43917Y48866D01*
X44107Y51033D01*
X45817D01*
G01X29000Y53500D02*
Y47500D01*
X32000D01*
Y53500D01*
X29000D01*
G01Y51201D02*
Y49799D01*
G01X32000D02*
Y51201D01*
G01X46967Y22900D02*
X41967D01*
Y24484D01*
X42217Y24990D01*
X42550Y25307D01*
X43217Y25434D01*
X43884Y25307D01*
X44300Y24927D01*
X44550Y24484D01*
Y22900D01*
G01Y24484D02*
X46967Y25434D01*
G01X42800Y28064D02*
X42300Y28444D01*
X42050Y28887D01*
X41967Y29394D01*
X42134Y30027D01*
X42550Y30470D01*
X43050Y30597D01*
X43550Y30534D01*
X43967Y30280D01*
X44800Y29014D01*
X45384Y28444D01*
X46217Y28064D01*
X46967Y27937D01*
Y30597D01*
G01Y34367D02*
X46884Y34810D01*
X46634Y35317D01*
X46217Y35634D01*
X45634Y35760D01*
X45050Y35634D01*
X44550Y35254D01*
X44300Y34684D01*
Y34050D01*
X44134Y33670D01*
X43717Y33354D01*
X43134Y33227D01*
X42550Y33417D01*
X42134Y33860D01*
X41967Y34367D01*
X42134Y34874D01*
X42550Y35317D01*
X43134Y35507D01*
X43717Y35380D01*
X44134Y35064D01*
X44300Y34684D01*
Y34050D01*
X44550Y33480D01*
X45050Y33100D01*
X45634Y32974D01*
X46217Y33100D01*
X46634Y33417D01*
X46884Y33924D01*
X46967Y34367D01*
G01X41467Y22900D02*
X36467D01*
Y24484D01*
X36717Y24990D01*
X37050Y25307D01*
X37717Y25434D01*
X38384Y25307D01*
X38800Y24927D01*
X39050Y24484D01*
Y22900D01*
G01Y24484D02*
X41467Y25434D01*
G01X37300Y28064D02*
X36800Y28444D01*
X36550Y28887D01*
X36467Y29394D01*
X36634Y30027D01*
X37050Y30470D01*
X37550Y30597D01*
X38050Y30534D01*
X38467Y30280D01*
X39300Y29014D01*
X39884Y28444D01*
X40717Y28064D01*
X41467Y27937D01*
Y30597D01*
G01X40884Y33290D02*
X41300Y33734D01*
X41467Y34240D01*
X41300Y34747D01*
X40800Y35190D01*
X40050Y35507D01*
X39300Y35634D01*
X38384D01*
X37634Y35507D01*
X36967Y35190D01*
X36634Y34810D01*
X36467Y34367D01*
X36634Y33860D01*
X36967Y33480D01*
X37467Y33227D01*
X38134Y33100D01*
X38717Y33227D01*
X39300Y33544D01*
X39634Y33924D01*
X39717Y34367D01*
X39550Y34874D01*
X39134Y35254D01*
X38384Y35634D01*
G01X33701Y20000D02*
X31299D01*
G01X19700Y36052D02*
Y29728D01*
G01X58000Y19500D02*
Y25500D01*
X55000D01*
Y19500D01*
X58000D01*
G01X43500Y17000D02*
X49500D01*
Y20000D01*
X43500D01*
Y17000D01*
G01X45299D02*
X47701D01*
G01X62633Y11500D02*
X62950Y11000D01*
X63330Y10667D01*
X63773Y10500D01*
X64280Y10667D01*
X64660Y11000D01*
X65040Y11500D01*
X65167Y12167D01*
Y15500D01*
G01X67797Y14667D02*
X68177Y15167D01*
X68620Y15417D01*
X69127Y15500D01*
X69760Y15333D01*
X70203Y14917D01*
X70330Y14417D01*
X70267Y13917D01*
X70013Y13500D01*
X68747Y12667D01*
X68177Y12083D01*
X67797Y11250D01*
X67670Y10500D01*
X70330D01*
G01X72707Y11500D02*
X73087Y10917D01*
X73593Y10583D01*
X74163Y10500D01*
X74670Y10583D01*
X75177Y11000D01*
X75493Y11500D01*
X75557Y12000D01*
X75430Y12583D01*
X74987Y13000D01*
X74543Y13167D01*
X73973D01*
G01X74543D02*
X74923Y13417D01*
X75240Y13833D01*
X75367Y14333D01*
X75240Y14833D01*
X74923Y15250D01*
X74353Y15500D01*
X73783Y15417D01*
X73213Y15083D01*
G01X61000Y17500D02*
X72000D01*
Y32500D01*
X61000D01*
Y17500D01*
G01X63641D02*
X72000D01*
Y32500D01*
X61000D01*
Y19141D01*
G01X54917Y33793D02*
X54667Y33413D01*
X54500Y32970D01*
Y32463D01*
X54750Y31893D01*
X55167Y31450D01*
X55667Y31133D01*
X56500Y30880D01*
X57250Y30817D01*
X58000Y30943D01*
X58500Y31133D01*
X59000Y31513D01*
X59333Y31957D01*
X59500Y32400D01*
Y32843D01*
X59333Y33287D01*
X59083Y33667D01*
X58750Y33983D01*
G01X59500Y37500D02*
X54500D01*
X55500Y36740D01*
G01X59500D02*
Y38260D01*
G01X57417Y41397D02*
X56833Y41840D01*
X56500Y42220D01*
X56333Y42727D01*
X56500Y43170D01*
X56833Y43487D01*
X57333Y43740D01*
X57917Y43803D01*
X58417Y43740D01*
X58917Y43487D01*
X59333Y43107D01*
X59500Y42663D01*
X59333Y42157D01*
X58833Y41713D01*
X58083Y41460D01*
X57250Y41397D01*
X56167Y41523D01*
X55583Y41713D01*
X55000Y42030D01*
X54583Y42473D01*
X54500Y42917D01*
X54667Y43360D01*
X55083Y43677D01*
G01X58000Y21799D02*
Y23201D01*
G01X55000D02*
Y21799D01*
G01X47701Y20000D02*
X45299D01*
G01X48500Y79767D02*
X46000D01*
Y80407D01*
X46125Y80620D01*
X46417Y80780D01*
X46750Y80833D01*
X47083Y80780D01*
X47333Y80647D01*
X47458Y80407D01*
Y79767D01*
G01X48500Y82500D02*
X46000D01*
X46500Y82180D01*
G01X48500D02*
Y82820D01*
G01X58750Y87500D02*
Y122500D01*
X72250D01*
Y87500D01*
X58750D01*
G01X60500Y122500D02*
Y87500D01*
G01Y122500D02*
Y91608D01*
G01Y88392D02*
Y87500D01*
G01X58750D02*
X72250D01*
Y88668D01*
G01Y91332D02*
Y122500D01*
X58750D01*
Y87500D01*
G01X57463Y126000D02*
Y124208D01*
X57570Y123833D01*
X57783Y123583D01*
X58050Y123500D01*
X58317Y123583D01*
X58530Y123833D01*
X58637Y124208D01*
Y126000D01*
G01X60250Y123500D02*
X60437Y123542D01*
X60650Y123667D01*
X60783Y123875D01*
X60837Y124167D01*
X60783Y124458D01*
X60623Y124708D01*
X60383Y124833D01*
X60117D01*
X59957Y124917D01*
X59823Y125125D01*
X59770Y125417D01*
X59850Y125708D01*
X60037Y125917D01*
X60250Y126000D01*
X60463Y125917D01*
X60650Y125708D01*
X60730Y125417D01*
X60677Y125125D01*
X60543Y124917D01*
X60383Y124833D01*
X60117D01*
X59877Y124708D01*
X59717Y124458D01*
X59663Y124167D01*
X59717Y123875D01*
X59850Y123667D01*
X60063Y123542D01*
X60250Y123500D01*
G01X63250Y120000D02*
G03I-1000J0D01*
G01D02*
G03I-1000J0D01*
G01X72713Y267000D02*
Y265208D01*
X72820Y264833D01*
X73033Y264583D01*
X73300Y264500D01*
X73567Y264583D01*
X73780Y264833D01*
X73887Y265208D01*
Y267000D01*
G01X75447Y264500D02*
X75500Y265042D01*
X75580Y265500D01*
X75687Y265917D01*
X75820Y266375D01*
X76033Y267000D01*
X74967D01*
G01X134000Y18500D02*
Y29500D01*
X99000D01*
Y18500D01*
X134000D01*
G01D02*
Y29500D01*
X99000D01*
Y18500D01*
X134000D01*
G01X99007Y78500D02*
Y74917D01*
X99260Y74167D01*
X99766Y73667D01*
X100399Y73500D01*
X101033Y73667D01*
X101539Y74167D01*
X101792Y74917D01*
Y78500D01*
G01X104105Y74500D02*
X104484Y73917D01*
X104991Y73583D01*
X105561Y73500D01*
X106067Y73583D01*
X106574Y74000D01*
X106890Y74500D01*
X106954Y75000D01*
X106827Y75583D01*
X106384Y76000D01*
X105941Y76167D01*
X105371D01*
G01X105941D02*
X106321Y76417D01*
X106637Y76833D01*
X106764Y77333D01*
X106637Y77833D01*
X106321Y78250D01*
X105751Y78500D01*
X105181Y78417D01*
X104611Y78083D01*
G01X77793Y77583D02*
X77413Y77833D01*
X76970Y78000D01*
X76463D01*
X75893Y77750D01*
X75450Y77333D01*
X75133Y76833D01*
X74880Y76000D01*
X74817Y75250D01*
X74943Y74500D01*
X75133Y74000D01*
X75513Y73500D01*
X75957Y73167D01*
X76400Y73000D01*
X76843D01*
X77287Y73167D01*
X77667Y73417D01*
X77983Y73750D01*
G01X81500Y73000D02*
Y78000D01*
X80740Y77000D01*
G01Y73000D02*
X82260D01*
G01X85523Y73583D02*
X85967Y73167D01*
X86473Y73000D01*
X86980Y73167D01*
X87423Y73667D01*
X87740Y74417D01*
X87867Y75167D01*
Y76083D01*
X87740Y76833D01*
X87423Y77500D01*
X87043Y77833D01*
X86600Y78000D01*
X86093Y77833D01*
X85713Y77500D01*
X85460Y77000D01*
X85333Y76333D01*
X85460Y75750D01*
X85777Y75167D01*
X86157Y74833D01*
X86600Y74750D01*
X87107Y74917D01*
X87487Y75333D01*
X87867Y76083D01*
G01X90500Y76000D02*
X96500D01*
Y79000D01*
X90500D01*
Y76000D01*
G01X92799D02*
X94201D01*
G01Y79000D02*
X92799D01*
G01X110677Y119488D02*
X95323D01*
Y80512D01*
X110677D01*
Y119488D01*
G01X95323Y111001D02*
Y108999D01*
G01Y106001D02*
Y103999D01*
G01Y101001D02*
Y98999D01*
G01Y96001D02*
Y93999D01*
G01Y91001D02*
Y88999D01*
G01Y86001D02*
Y83999D01*
G01Y81001D02*
Y80512D01*
X107903D01*
G01X81417Y96793D02*
X81167Y96413D01*
X81000Y95970D01*
Y95463D01*
X81250Y94893D01*
X81667Y94450D01*
X82167Y94133D01*
X83000Y93880D01*
X83750Y93817D01*
X84500Y93943D01*
X85000Y94133D01*
X85500Y94513D01*
X85833Y94957D01*
X86000Y95400D01*
Y95843D01*
X85833Y96287D01*
X85583Y96667D01*
X85250Y96983D01*
G01X81833Y99297D02*
X81333Y99677D01*
X81083Y100120D01*
X81000Y100627D01*
X81167Y101260D01*
X81583Y101703D01*
X82083Y101830D01*
X82583Y101767D01*
X83000Y101513D01*
X83833Y100247D01*
X84417Y99677D01*
X85250Y99297D01*
X86000Y99170D01*
Y101830D01*
G01X81000Y105600D02*
X81167Y105093D01*
X81583Y104713D01*
X82083Y104460D01*
X82750Y104270D01*
X83500Y104207D01*
X84250Y104270D01*
X84917Y104460D01*
X85417Y104713D01*
X85833Y105093D01*
X86000Y105600D01*
X85833Y106107D01*
X85417Y106487D01*
X84917Y106740D01*
X84250Y106930D01*
X83500Y106993D01*
X82750Y106930D01*
X82083Y106740D01*
X81583Y106487D01*
X81167Y106107D01*
X81000Y105600D01*
G01X83000Y138007D02*
X86583D01*
X87333Y138260D01*
X87833Y138766D01*
X88000Y139399D01*
X87833Y140033D01*
X87333Y140539D01*
X86583Y140792D01*
X83000D01*
G01X83833Y143294D02*
X83333Y143674D01*
X83083Y144118D01*
X83000Y144624D01*
X83167Y145257D01*
X83583Y145701D01*
X84083Y145827D01*
X84583Y145764D01*
X85000Y145511D01*
X85833Y144244D01*
X86417Y143674D01*
X87250Y143294D01*
X88000Y143168D01*
Y145827D01*
G01X95323Y122512D02*
X110677D01*
Y161488D01*
X95323D01*
Y122512D01*
G01D02*
X98301D01*
G01X102699D02*
X110677D01*
Y123001D01*
G01X95323Y138001D02*
Y135999D01*
G01Y133001D02*
Y130999D01*
G01Y128001D02*
Y127422D01*
G01Y123001D02*
Y122512D01*
G01X110677Y119488D02*
X95323D01*
Y118999D01*
G01Y116001D02*
Y113999D01*
G01X85000Y110500D02*
Y116500D01*
X82000D01*
Y110500D01*
X85000D01*
G01Y112799D02*
Y114201D01*
G01X82000D02*
Y112799D01*
G01X95323Y164512D02*
X110677D01*
Y203488D01*
X95323D01*
Y164512D01*
G01X96940D02*
X110677D01*
Y165001D01*
G01X95323Y170001D02*
Y168592D01*
G01X110677Y160999D02*
Y161488D01*
X95323D01*
Y160999D01*
G01Y158001D02*
Y155999D01*
G01Y153001D02*
Y150999D01*
G01Y148001D02*
Y145999D01*
G01Y143001D02*
Y140999D01*
G01X78817Y160593D02*
X78567Y160213D01*
X78400Y159770D01*
Y159263D01*
X78650Y158693D01*
X79067Y158250D01*
X79567Y157933D01*
X80400Y157680D01*
X81150Y157617D01*
X81900Y157743D01*
X82400Y157933D01*
X82900Y158313D01*
X83233Y158757D01*
X83400Y159200D01*
Y159643D01*
X83233Y160087D01*
X82983Y160467D01*
X82650Y160783D01*
G01X83400Y164300D02*
X78400D01*
X79400Y163540D01*
G01X83400D02*
Y165060D01*
G01Y169400D02*
X83317Y169843D01*
X83067Y170350D01*
X82650Y170667D01*
X82067Y170793D01*
X81483Y170667D01*
X80983Y170287D01*
X80733Y169717D01*
Y169083D01*
X80567Y168703D01*
X80150Y168387D01*
X79567Y168260D01*
X78983Y168450D01*
X78567Y168893D01*
X78400Y169400D01*
X78567Y169907D01*
X78983Y170350D01*
X79567Y170540D01*
X80150Y170413D01*
X80567Y170097D01*
X80733Y169717D01*
Y169083D01*
X80983Y168513D01*
X81483Y168133D01*
X82067Y168007D01*
X82650Y168133D01*
X83067Y168450D01*
X83317Y168957D01*
X83400Y169400D01*
G01X87000Y155500D02*
Y161500D01*
X84000D01*
Y155500D01*
X87000D01*
G01Y157799D02*
Y159201D01*
G01X84000D02*
Y157799D01*
G01X82500Y196007D02*
X86083D01*
X86833Y196260D01*
X87333Y196766D01*
X87500Y197399D01*
X87333Y198033D01*
X86833Y198539D01*
X86083Y198792D01*
X82500D01*
G01X87500Y202497D02*
X82500D01*
X83500Y201738D01*
G01X87500D02*
Y203257D01*
G01X95323Y200001D02*
Y197999D01*
G01Y195001D02*
Y192999D01*
G01Y190001D02*
Y187999D01*
G01Y185001D02*
Y182999D01*
G01Y180001D02*
Y177999D01*
G01Y175001D02*
Y172999D01*
G01X101284Y198026D02*
X101034Y197646D01*
X100867Y197203D01*
Y196696D01*
X101117Y196126D01*
X101534Y195683D01*
X102034Y195366D01*
X102867Y195113D01*
X103617Y195050D01*
X104367Y195176D01*
X104867Y195366D01*
X105367Y195746D01*
X105700Y196190D01*
X105867Y196633D01*
Y197076D01*
X105700Y197520D01*
X105450Y197900D01*
X105117Y198216D01*
G01X104867Y200340D02*
X105450Y200720D01*
X105784Y201226D01*
X105867Y201796D01*
X105784Y202303D01*
X105367Y202810D01*
X104867Y203126D01*
X104367Y203190D01*
X103784Y203063D01*
X103367Y202620D01*
X103200Y202176D01*
Y201606D01*
G01Y202176D02*
X102950Y202556D01*
X102534Y202873D01*
X102034Y203000D01*
X101534Y202873D01*
X101117Y202556D01*
X100867Y201986D01*
X100950Y201416D01*
X101284Y200846D01*
G01X105867Y206833D02*
X100867D01*
X101867Y206073D01*
G01X105867D02*
Y207593D01*
G01X110677Y202999D02*
Y203488D01*
X95323D01*
Y202999D01*
G01X92463Y232000D02*
Y230208D01*
X92570Y229833D01*
X92783Y229583D01*
X93050Y229500D01*
X93317Y229583D01*
X93530Y229833D01*
X93637Y230208D01*
Y232000D01*
G01X95250Y229500D02*
Y232000D01*
X94930Y231500D01*
G01Y229500D02*
X95570D01*
G01X97450Y232000D02*
X97237Y231917D01*
X97077Y231708D01*
X96970Y231458D01*
X96890Y231125D01*
X96863Y230750D01*
X96890Y230375D01*
X96970Y230042D01*
X97077Y229792D01*
X97237Y229583D01*
X97450Y229500D01*
X97663Y229583D01*
X97823Y229792D01*
X97930Y230042D01*
X98010Y230375D01*
X98037Y230750D01*
X98010Y231125D01*
X97930Y231458D01*
X97823Y231708D01*
X97663Y231917D01*
X97450Y232000D01*
G01X98250Y210500D02*
Y230500D01*
X111750D01*
Y210500D01*
X98250D01*
G01X102250Y228000D02*
G03I-1000J0D01*
G01X100000Y230500D02*
Y210500D01*
G01Y230500D02*
Y210500D01*
G01X102250Y228000D02*
G03I-1000J0D01*
G01X98250Y210500D02*
X111750D01*
Y211191D01*
G01Y214809D02*
Y230500D01*
X98250D01*
Y210500D01*
G01X82060Y214116D02*
X81680Y214366D01*
X81237Y214533D01*
X80730D01*
X80160Y214283D01*
X79717Y213866D01*
X79400Y213366D01*
X79147Y212533D01*
X79084Y211783D01*
X79210Y211033D01*
X79400Y210533D01*
X79780Y210033D01*
X80224Y209700D01*
X80667Y209533D01*
X81110D01*
X81554Y209700D01*
X81934Y209950D01*
X82250Y210283D01*
G01X85767Y209533D02*
Y214533D01*
X85007Y213533D01*
G01Y209533D02*
X86527D01*
G01X90740D02*
X90867Y210616D01*
X91057Y211533D01*
X91310Y212366D01*
X91627Y213283D01*
X92134Y214533D01*
X89600D01*
G01X87000Y212000D02*
Y206000D01*
X90000D01*
Y212000D01*
X87000D01*
G01Y209701D02*
Y208299D01*
G01X90000D02*
Y209701D01*
G01X87784Y225026D02*
X87534Y224646D01*
X87367Y224203D01*
Y223696D01*
X87617Y223126D01*
X88034Y222683D01*
X88534Y222366D01*
X89367Y222113D01*
X90117Y222050D01*
X90867Y222176D01*
X91367Y222366D01*
X91867Y222746D01*
X92200Y223190D01*
X92367Y223633D01*
Y224076D01*
X92200Y224520D01*
X91950Y224900D01*
X91617Y225216D01*
G01X88200Y227530D02*
X87700Y227910D01*
X87450Y228353D01*
X87367Y228860D01*
X87534Y229493D01*
X87950Y229936D01*
X88450Y230063D01*
X88950Y230000D01*
X89367Y229746D01*
X90200Y228480D01*
X90784Y227910D01*
X91617Y227530D01*
X92367Y227403D01*
Y230063D01*
G01X88200Y232630D02*
X87700Y233010D01*
X87450Y233453D01*
X87367Y233960D01*
X87534Y234593D01*
X87950Y235036D01*
X88450Y235163D01*
X88950Y235100D01*
X89367Y234846D01*
X90200Y233580D01*
X90784Y233010D01*
X91617Y232630D01*
X92367Y232503D01*
Y235163D01*
G01X101500Y236000D02*
X95500D01*
Y233000D01*
X101500D01*
Y236000D01*
G01X99201D02*
X97799D01*
G01Y233000D02*
X99201D01*
G01X104133Y13500D02*
X104450Y13000D01*
X104830Y12667D01*
X105273Y12500D01*
X105780Y12667D01*
X106160Y13000D01*
X106540Y13500D01*
X106667Y14167D01*
Y17500D01*
G01X109297Y16667D02*
X109677Y17167D01*
X110120Y17417D01*
X110627Y17500D01*
X111260Y17333D01*
X111703Y16917D01*
X111830Y16417D01*
X111767Y15917D01*
X111513Y15500D01*
X110247Y14667D01*
X109677Y14083D01*
X109297Y13250D01*
X109170Y12500D01*
X111830D01*
G01X114397Y16667D02*
X114777Y17167D01*
X115220Y17417D01*
X115727Y17500D01*
X116360Y17333D01*
X116803Y16917D01*
X116930Y16417D01*
X116867Y15917D01*
X116613Y15500D01*
X115347Y14667D01*
X114777Y14083D01*
X114397Y13250D01*
X114270Y12500D01*
X116930D01*
G01X133593Y41683D02*
X133213Y41933D01*
X132770Y42100D01*
X132263D01*
X131693Y41850D01*
X131250Y41433D01*
X130933Y40933D01*
X130680Y40100D01*
X130617Y39350D01*
X130743Y38600D01*
X130933Y38100D01*
X131313Y37600D01*
X131757Y37267D01*
X132200Y37100D01*
X132643D01*
X133087Y37267D01*
X133467Y37517D01*
X133783Y37850D01*
G01X135907Y38100D02*
X136287Y37517D01*
X136793Y37183D01*
X137363Y37100D01*
X137870Y37183D01*
X138377Y37600D01*
X138693Y38100D01*
X138757Y38600D01*
X138630Y39183D01*
X138187Y39600D01*
X137743Y39767D01*
X137173D01*
G01X137743D02*
X138123Y40017D01*
X138440Y40433D01*
X138567Y40933D01*
X138440Y41433D01*
X138123Y41850D01*
X137553Y42100D01*
X136983Y42017D01*
X136413Y41683D01*
G01X141007Y37850D02*
X141387Y37433D01*
X141830Y37183D01*
X142400Y37100D01*
X142970Y37267D01*
X143413Y37600D01*
X143730Y38183D01*
X143793Y38850D01*
X143667Y39517D01*
X143350Y39933D01*
X142907Y40267D01*
X142463Y40350D01*
X142020Y40267D01*
X141450Y39933D01*
X141640Y42100D01*
X143350D01*
G01X126000Y31500D02*
X132000D01*
Y34500D01*
X126000D01*
Y31500D01*
G01X128299D02*
X129701D01*
G01X116293Y74583D02*
X115913Y74833D01*
X115470Y75000D01*
X114963D01*
X114393Y74750D01*
X113950Y74333D01*
X113633Y73833D01*
X113380Y73000D01*
X113317Y72250D01*
X113443Y71500D01*
X113633Y71000D01*
X114013Y70500D01*
X114457Y70167D01*
X114900Y70000D01*
X115343D01*
X115787Y70167D01*
X116167Y70417D01*
X116483Y70750D01*
G01X118607Y71000D02*
X118987Y70417D01*
X119493Y70083D01*
X120063Y70000D01*
X120570Y70083D01*
X121077Y70500D01*
X121393Y71000D01*
X121457Y71500D01*
X121330Y72083D01*
X120887Y72500D01*
X120443Y72667D01*
X119873D01*
G01X120443D02*
X120823Y72917D01*
X121140Y73333D01*
X121267Y73833D01*
X121140Y74333D01*
X120823Y74750D01*
X120253Y75000D01*
X119683Y74917D01*
X119113Y74583D01*
G01X123897Y74167D02*
X124277Y74667D01*
X124720Y74917D01*
X125227Y75000D01*
X125860Y74833D01*
X126303Y74417D01*
X126430Y73917D01*
X126367Y73417D01*
X126113Y73000D01*
X124847Y72167D01*
X124277Y71583D01*
X123897Y70750D01*
X123770Y70000D01*
X126430D01*
G01X114000Y76000D02*
X120000D01*
Y79000D01*
X114000D01*
Y76000D01*
G01X116299D02*
X117701D01*
G01Y79000D02*
X116299D01*
G01X110677Y80857D02*
Y81001D01*
G01Y83999D02*
Y86001D01*
G01Y88999D02*
Y91001D01*
G01Y93999D02*
Y96001D01*
G01Y98999D02*
Y101001D01*
G01Y103999D02*
Y106001D01*
G01Y108999D02*
Y111001D01*
G01X129500Y80500D02*
X132000Y83000D01*
Y143000D01*
X122000D01*
Y83000D01*
X124500Y80500D01*
X129500D01*
G01D02*
X132000Y83000D01*
Y143000D01*
X122000D01*
Y83000D01*
X124500Y80500D01*
X129500D01*
G01X110677Y125999D02*
Y128001D01*
G01Y130999D02*
Y133001D01*
G01Y135999D02*
Y138001D01*
G01Y113999D02*
Y116001D01*
G01Y118999D02*
Y119488D01*
G01Y167999D02*
Y170001D01*
G01Y140999D02*
Y143001D01*
G01Y145999D02*
Y148001D01*
G01Y150999D02*
Y153001D01*
G01Y155999D02*
Y158001D01*
G01X129500Y168500D02*
X132000Y171000D01*
Y231000D01*
X122000D01*
Y171000D01*
X124500Y168500D01*
X129500D01*
G01D02*
X132000Y171000D01*
Y231000D01*
X122914D01*
G01X122000Y230801D02*
Y171000D01*
X124500Y168500D01*
X129500D01*
G01X125417Y157793D02*
X125167Y157413D01*
X125000Y156970D01*
Y156463D01*
X125250Y155893D01*
X125667Y155450D01*
X126167Y155133D01*
X127000Y154880D01*
X127750Y154817D01*
X128500Y154943D01*
X129000Y155133D01*
X129500Y155513D01*
X129833Y155957D01*
X130000Y156400D01*
Y156843D01*
X129833Y157287D01*
X129583Y157667D01*
X129250Y157983D01*
G01X129000Y160107D02*
X129583Y160487D01*
X129917Y160993D01*
X130000Y161563D01*
X129917Y162070D01*
X129500Y162577D01*
X129000Y162893D01*
X128500Y162957D01*
X127917Y162830D01*
X127500Y162387D01*
X127333Y161943D01*
Y161373D01*
G01Y161943D02*
X127083Y162323D01*
X126667Y162640D01*
X126167Y162767D01*
X125667Y162640D01*
X125250Y162323D01*
X125000Y161753D01*
X125083Y161183D01*
X125417Y160613D01*
G01X129000Y165207D02*
X129583Y165587D01*
X129917Y166093D01*
X130000Y166663D01*
X129917Y167170D01*
X129500Y167677D01*
X129000Y167993D01*
X128500Y168057D01*
X127917Y167930D01*
X127500Y167487D01*
X127333Y167043D01*
Y166473D01*
G01Y167043D02*
X127083Y167423D01*
X126667Y167740D01*
X126167Y167867D01*
X125667Y167740D01*
X125250Y167423D01*
X125000Y166853D01*
X125083Y166283D01*
X125417Y165713D01*
G01X119500Y164000D02*
Y158000D01*
X122500D01*
Y164000D01*
X119500D01*
G01Y161701D02*
Y160299D01*
G01X122500D02*
Y161701D01*
G01X110677Y172999D02*
Y175001D01*
G01Y177999D02*
Y180001D01*
G01Y182999D02*
Y185001D01*
G01Y187999D02*
Y190001D01*
G01Y192999D02*
Y195001D01*
G01Y197999D02*
Y200001D01*
G01X136500Y195683D02*
X137000Y196000D01*
X137333Y196380D01*
X137500Y196823D01*
X137333Y197330D01*
X137000Y197710D01*
X136500Y198090D01*
X135833Y198217D01*
X132500D01*
G01X133333Y200847D02*
X132833Y201227D01*
X132583Y201670D01*
X132500Y202177D01*
X132667Y202810D01*
X133083Y203253D01*
X133583Y203380D01*
X134083Y203317D01*
X134500Y203063D01*
X135333Y201797D01*
X135917Y201227D01*
X136750Y200847D01*
X137500Y200720D01*
Y203380D01*
G01X104284Y225026D02*
X104034Y224646D01*
X103867Y224203D01*
Y223696D01*
X104117Y223126D01*
X104534Y222683D01*
X105034Y222366D01*
X105867Y222113D01*
X106617Y222050D01*
X107367Y222176D01*
X107867Y222366D01*
X108367Y222746D01*
X108700Y223190D01*
X108867Y223633D01*
Y224076D01*
X108700Y224520D01*
X108450Y224900D01*
X108117Y225216D01*
G01X107867Y227340D02*
X108450Y227720D01*
X108784Y228226D01*
X108867Y228796D01*
X108784Y229303D01*
X108367Y229810D01*
X107867Y230126D01*
X107367Y230190D01*
X106784Y230063D01*
X106367Y229620D01*
X106200Y229176D01*
Y228606D01*
G01Y229176D02*
X105950Y229556D01*
X105534Y229873D01*
X105034Y230000D01*
X104534Y229873D01*
X104117Y229556D01*
X103867Y228986D01*
X103950Y228416D01*
X104284Y227846D01*
G01X103867Y233833D02*
X104034Y233326D01*
X104450Y232946D01*
X104950Y232693D01*
X105617Y232503D01*
X106367Y232440D01*
X107117Y232503D01*
X107784Y232693D01*
X108284Y232946D01*
X108700Y233326D01*
X108867Y233833D01*
X108700Y234340D01*
X108284Y234720D01*
X107784Y234973D01*
X107117Y235163D01*
X106367Y235226D01*
X105617Y235163D01*
X104950Y234973D01*
X104450Y234720D01*
X104034Y234340D01*
X103867Y233833D01*
G01X114500Y208500D02*
X108500D01*
Y205500D01*
X114500D01*
Y208500D01*
G01X112201D02*
X110799D01*
G01Y205500D02*
X112201D01*
G01X132366Y226633D02*
Y231633D01*
X133950D01*
X134456Y231383D01*
X134773Y231050D01*
X134900Y230383D01*
X134773Y229716D01*
X134393Y229300D01*
X133950Y229050D01*
X132366D01*
G01X133950D02*
X134900Y226633D01*
G01X137340Y227633D02*
X137720Y227050D01*
X138226Y226716D01*
X138796Y226633D01*
X139303Y226716D01*
X139810Y227133D01*
X140126Y227633D01*
X140190Y228133D01*
X140063Y228716D01*
X139620Y229133D01*
X139176Y229300D01*
X138606D01*
G01X139176D02*
X139556Y229550D01*
X139873Y229966D01*
X140000Y230466D01*
X139873Y230966D01*
X139556Y231383D01*
X138986Y231633D01*
X138416Y231550D01*
X137846Y231216D01*
G01X143833Y226633D02*
Y231633D01*
X143073Y230633D01*
G01Y226633D02*
X144593D01*
G01X117500Y236000D02*
X111500D01*
Y233000D01*
X117500D01*
Y236000D01*
G01X115201D02*
X113799D01*
G01Y233000D02*
X115201D01*
G01X152133Y13000D02*
X152450Y12500D01*
X152830Y12167D01*
X153273Y12000D01*
X153780Y12167D01*
X154160Y12500D01*
X154540Y13000D01*
X154667Y13667D01*
Y17000D01*
G01X158500Y12000D02*
Y17000D01*
X157740Y16000D01*
G01Y12000D02*
X159260D01*
G01X163473D02*
X163600Y13083D01*
X163790Y14000D01*
X164043Y14833D01*
X164360Y15750D01*
X164867Y17000D01*
X162333D01*
G01X181500Y18500D02*
Y29500D01*
X146500D01*
Y18500D01*
X181500D01*
G01D02*
Y29500D01*
X146500D01*
Y18500D01*
X181500D01*
G01X137000Y79683D02*
X137500Y80000D01*
X137833Y80380D01*
X138000Y80823D01*
X137833Y81330D01*
X137500Y81710D01*
X137000Y82090D01*
X136333Y82217D01*
X133000D01*
G01X138000Y86810D02*
X133000D01*
X136583Y84467D01*
Y87633D01*
G01X148284Y54026D02*
X148034Y53646D01*
X147867Y53203D01*
Y52696D01*
X148117Y52126D01*
X148534Y51683D01*
X149034Y51366D01*
X149867Y51113D01*
X150617Y51050D01*
X151367Y51176D01*
X151867Y51366D01*
X152367Y51746D01*
X152700Y52190D01*
X152867Y52633D01*
Y53076D01*
X152700Y53520D01*
X152450Y53900D01*
X152117Y54216D01*
G01X148700Y56530D02*
X148200Y56910D01*
X147950Y57353D01*
X147867Y57860D01*
X148034Y58493D01*
X148450Y58936D01*
X148950Y59063D01*
X149450Y59000D01*
X149867Y58746D01*
X150700Y57480D01*
X151284Y56910D01*
X152117Y56530D01*
X152867Y56403D01*
Y59063D01*
G01Y62833D02*
X147867D01*
X148867Y62073D01*
G01X152867D02*
Y63593D01*
G01X161500Y64500D02*
X155500D01*
Y61500D01*
X161500D01*
Y64500D01*
G01X159201D02*
X157799D01*
G01Y61500D02*
X159201D01*
G01X153000Y210000D02*
X150500Y207500D01*
Y87500D01*
X160500D01*
Y207500D01*
X158000Y210000D01*
X153000D01*
G01X150500Y137392D02*
Y87500D01*
X160500D01*
Y115892D01*
G01X143500Y117183D02*
X144000Y117500D01*
X144333Y117880D01*
X144500Y118323D01*
X144333Y118830D01*
X144000Y119210D01*
X143500Y119590D01*
X142833Y119717D01*
X139500D01*
G01X143500Y122157D02*
X144083Y122537D01*
X144417Y123043D01*
X144500Y123613D01*
X144417Y124120D01*
X144000Y124627D01*
X143500Y124943D01*
X143000Y125007D01*
X142417Y124880D01*
X142000Y124437D01*
X141833Y123993D01*
Y123423D01*
G01Y123993D02*
X141583Y124373D01*
X141167Y124690D01*
X140667Y124817D01*
X140167Y124690D01*
X139750Y124373D01*
X139500Y123803D01*
X139583Y123233D01*
X139917Y122663D01*
G01X141500Y126500D02*
X144000Y129000D01*
Y189000D01*
X134000D01*
Y129000D01*
X136500Y126500D01*
X141500D01*
G01D02*
X144000Y129000D01*
Y144655D01*
G01Y167958D02*
Y189000D01*
X134000D01*
Y129000D01*
X136500Y126500D01*
X141500D01*
G01X160500Y119108D02*
Y163859D01*
G01X163526Y133216D02*
X163146Y133466D01*
X162703Y133633D01*
X162196D01*
X161626Y133383D01*
X161183Y132966D01*
X160866Y132466D01*
X160613Y131633D01*
X160550Y130883D01*
X160676Y130133D01*
X160866Y129633D01*
X161246Y129133D01*
X161690Y128800D01*
X162133Y128633D01*
X162576D01*
X163020Y128800D01*
X163400Y129050D01*
X163716Y129383D01*
G01X166030Y132800D02*
X166410Y133300D01*
X166853Y133550D01*
X167360Y133633D01*
X167993Y133466D01*
X168436Y133050D01*
X168563Y132550D01*
X168500Y132050D01*
X168246Y131633D01*
X166980Y130800D01*
X166410Y130216D01*
X166030Y129383D01*
X165903Y128633D01*
X168563D01*
G01X171256Y129216D02*
X171700Y128800D01*
X172206Y128633D01*
X172713Y128800D01*
X173156Y129300D01*
X173473Y130050D01*
X173600Y130800D01*
Y131716D01*
X173473Y132466D01*
X173156Y133133D01*
X172776Y133466D01*
X172333Y133633D01*
X171826Y133466D01*
X171446Y133133D01*
X171193Y132633D01*
X171066Y131966D01*
X171193Y131383D01*
X171510Y130800D01*
X171890Y130466D01*
X172333Y130383D01*
X172840Y130550D01*
X173220Y130966D01*
X173600Y131716D01*
G01X144000Y147871D02*
Y155892D01*
G01Y159108D02*
Y164042D01*
G01X150500Y181801D02*
Y158458D01*
G01Y154542D02*
Y149958D01*
G01Y146042D02*
Y140608D01*
G01X160500Y168141D02*
Y169086D01*
G01X153000Y210000D02*
X150500Y207500D01*
Y189699D01*
G01X160500Y170914D02*
Y174042D01*
G01Y177958D02*
Y207500D01*
X158000Y210000D01*
X153000D01*
G01X143900Y213433D02*
X138900D01*
Y215017D01*
X139150Y215523D01*
X139483Y215840D01*
X140150Y215967D01*
X140817Y215840D01*
X141233Y215460D01*
X141483Y215017D01*
Y213433D01*
G01Y215017D02*
X143900Y215967D01*
G01X142900Y218407D02*
X143483Y218787D01*
X143817Y219293D01*
X143900Y219863D01*
X143817Y220370D01*
X143400Y220877D01*
X142900Y221193D01*
X142400Y221257D01*
X141817Y221130D01*
X141400Y220687D01*
X141233Y220243D01*
Y219673D01*
G01Y220243D02*
X140983Y220623D01*
X140567Y220940D01*
X140067Y221067D01*
X139567Y220940D01*
X139150Y220623D01*
X138900Y220053D01*
X138983Y219483D01*
X139317Y218913D01*
G01X138900Y224900D02*
X139067Y224393D01*
X139483Y224013D01*
X139983Y223760D01*
X140650Y223570D01*
X141400Y223507D01*
X142150Y223570D01*
X142817Y223760D01*
X143317Y224013D01*
X143733Y224393D01*
X143900Y224900D01*
X143733Y225407D01*
X143317Y225787D01*
X142817Y226040D01*
X142150Y226230D01*
X141400Y226293D01*
X140650Y226230D01*
X139983Y226040D01*
X139483Y225787D01*
X139067Y225407D01*
X138900Y224900D01*
G01X148000Y217500D02*
Y223500D01*
X145000D01*
Y217500D01*
X148000D01*
G01Y219299D02*
Y221701D01*
G01X145000D02*
Y219299D01*
G01X138000Y217500D02*
Y223500D01*
X135000D01*
Y217500D01*
X138000D01*
G01Y219299D02*
Y221701D01*
G01X135000D02*
Y219299D01*
G01X181093Y42183D02*
X180713Y42433D01*
X180270Y42600D01*
X179763D01*
X179193Y42350D01*
X178750Y41933D01*
X178433Y41433D01*
X178180Y40600D01*
X178117Y39850D01*
X178243Y39100D01*
X178433Y38600D01*
X178813Y38100D01*
X179257Y37767D01*
X179700Y37600D01*
X180143D01*
X180587Y37767D01*
X180967Y38017D01*
X181283Y38350D01*
G01X183407Y38600D02*
X183787Y38017D01*
X184293Y37683D01*
X184863Y37600D01*
X185370Y37683D01*
X185877Y38100D01*
X186193Y38600D01*
X186257Y39100D01*
X186130Y39683D01*
X185687Y40100D01*
X185243Y40267D01*
X184673D01*
G01X185243D02*
X185623Y40517D01*
X185940Y40933D01*
X186067Y41433D01*
X185940Y41933D01*
X185623Y42350D01*
X185053Y42600D01*
X184483Y42517D01*
X183913Y42183D01*
G01X189773Y37600D02*
X189900Y38683D01*
X190090Y39600D01*
X190343Y40433D01*
X190660Y41350D01*
X191167Y42600D01*
X188633D01*
G01X173500Y31500D02*
X179500D01*
Y34500D01*
X173500D01*
Y31500D01*
G01X175799D02*
X177201D01*
G01X176286Y34500D02*
X175799D01*
G01X191887Y102426D02*
X191727Y102551D01*
X191540Y102634D01*
X191327D01*
X191087Y102509D01*
X190900Y102301D01*
X190767Y102051D01*
X190660Y101634D01*
X190633Y101259D01*
X190687Y100884D01*
X190767Y100634D01*
X190927Y100384D01*
X191113Y100217D01*
X191300Y100134D01*
X191487D01*
X191673Y100217D01*
X191833Y100342D01*
X191967Y100509D01*
G01X192913Y100634D02*
X193073Y100342D01*
X193287Y100176D01*
X193527Y100134D01*
X193740Y100176D01*
X193953Y100384D01*
X194087Y100634D01*
X194113Y100884D01*
X194060Y101176D01*
X193873Y101384D01*
X193687Y101467D01*
X193447D01*
G01X193687D02*
X193847Y101592D01*
X193980Y101801D01*
X194033Y102051D01*
X193980Y102301D01*
X193847Y102509D01*
X193607Y102634D01*
X193367Y102592D01*
X193127Y102426D01*
G01X173000Y107346D02*
Y129000D01*
X199000D01*
Y107139D01*
X194861Y103000D01*
X177142D01*
Y103204D01*
X173000Y107346D01*
G01D02*
Y129000D01*
X178859D01*
G01X193641D02*
X199000D01*
Y107139D01*
X194861Y103000D01*
X188499D01*
G01X183501D02*
X177142D01*
Y103204D01*
X173000Y107346D01*
G01X183141Y129000D02*
X183501D01*
G01X188499D02*
X189359D01*
G01X168000Y117500D02*
Y123500D01*
X165000D01*
Y117500D01*
X168000D01*
G01Y119799D02*
Y121201D01*
G01X165000D02*
Y119799D01*
G01X191400Y152500D02*
X190893Y152583D01*
X190450Y152917D01*
X190070Y153417D01*
X189817Y154000D01*
X189690Y154667D01*
Y155333D01*
X189817Y156000D01*
X190070Y156583D01*
X190450Y157083D01*
X190893Y157417D01*
X191400Y157500D01*
X191907Y157417D01*
X192350Y157083D01*
X192730Y156583D01*
X192983Y156000D01*
X193110Y155333D01*
Y154667D01*
X192983Y154000D01*
X192730Y153417D01*
X192350Y152917D01*
X191907Y152583D01*
X191400Y152500D01*
G01X191907Y153833D02*
X192667Y152500D01*
G01X196500D02*
Y157500D01*
X195740Y156500D01*
G01Y152500D02*
X197260D01*
G01X167000Y196633D02*
X167500Y196950D01*
X167833Y197330D01*
X168000Y197773D01*
X167833Y198280D01*
X167500Y198660D01*
X167000Y199040D01*
X166333Y199167D01*
X163000D01*
G01X168000Y203000D02*
X163000D01*
X164000Y202240D01*
G01X168000D02*
Y203760D01*
G01X167250Y206707D02*
X167667Y207087D01*
X167917Y207530D01*
X168000Y208100D01*
X167833Y208670D01*
X167500Y209113D01*
X166917Y209430D01*
X166250Y209493D01*
X165583Y209367D01*
X165167Y209050D01*
X164833Y208607D01*
X164750Y208163D01*
X164833Y207720D01*
X165167Y207150D01*
X163000Y207340D01*
Y209050D01*
G01X199633Y13000D02*
X199950Y12500D01*
X200330Y12167D01*
X200773Y12000D01*
X201280Y12167D01*
X201660Y12500D01*
X202040Y13000D01*
X202167Y13667D01*
Y17000D01*
G01X206000Y12000D02*
Y17000D01*
X205240Y16000D01*
G01Y12000D02*
X206760D01*
G01X211100D02*
X211543Y12083D01*
X212050Y12333D01*
X212367Y12750D01*
X212493Y13333D01*
X212367Y13917D01*
X211987Y14417D01*
X211417Y14667D01*
X210783D01*
X210403Y14833D01*
X210087Y15250D01*
X209960Y15833D01*
X210150Y16417D01*
X210593Y16833D01*
X211100Y17000D01*
X211607Y16833D01*
X212050Y16417D01*
X212240Y15833D01*
X212113Y15250D01*
X211797Y14833D01*
X211417Y14667D01*
X210783D01*
X210213Y14417D01*
X209833Y13917D01*
X209707Y13333D01*
X209833Y12750D01*
X210150Y12333D01*
X210657Y12083D01*
X211100Y12000D01*
G01X228500Y18500D02*
Y29500D01*
X193500D01*
Y18500D01*
X228500D01*
G01D02*
Y29500D01*
X193500D01*
Y18500D01*
X228500D01*
G01X220500Y31500D02*
X226500D01*
Y34500D01*
X220500D01*
Y31500D01*
G01X222799D02*
X224201D01*
G01X205133Y147500D02*
Y152500D01*
X206717D01*
X207223Y152250D01*
X207540Y151917D01*
X207667Y151250D01*
X207540Y150583D01*
X207160Y150167D01*
X206717Y149917D01*
X205133D01*
G01X206717D02*
X207667Y147500D01*
G01X210107Y148500D02*
X210487Y147917D01*
X210993Y147583D01*
X211563Y147500D01*
X212070Y147583D01*
X212577Y148000D01*
X212893Y148500D01*
X212957Y149000D01*
X212830Y149583D01*
X212387Y150000D01*
X211943Y150167D01*
X211373D01*
G01X211943D02*
X212323Y150417D01*
X212640Y150833D01*
X212767Y151333D01*
X212640Y151833D01*
X212323Y152250D01*
X211753Y152500D01*
X211183Y152417D01*
X210613Y152083D01*
G01X215207Y148250D02*
X215587Y147833D01*
X216030Y147583D01*
X216600Y147500D01*
X217170Y147667D01*
X217613Y148000D01*
X217930Y148583D01*
X217993Y149250D01*
X217867Y149917D01*
X217550Y150333D01*
X217107Y150667D01*
X216663Y150750D01*
X216220Y150667D01*
X215650Y150333D01*
X215840Y152500D01*
X217550D01*
G01X205000Y142500D02*
X211000D01*
Y145500D01*
X205000D01*
Y142500D01*
G01X206799D02*
X209201D01*
G01Y145500D02*
X206799D01*
G01X246633Y13000D02*
X246950Y12500D01*
X247330Y12167D01*
X247773Y12000D01*
X248280Y12167D01*
X248660Y12500D01*
X249040Y13000D01*
X249167Y13667D01*
Y17000D01*
G01X253000Y12000D02*
Y17000D01*
X252240Y16000D01*
G01Y12000D02*
X253760D01*
G01X257023Y12583D02*
X257467Y12167D01*
X257973Y12000D01*
X258480Y12167D01*
X258923Y12667D01*
X259240Y13417D01*
X259367Y14167D01*
Y15083D01*
X259240Y15833D01*
X258923Y16500D01*
X258543Y16833D01*
X258100Y17000D01*
X257593Y16833D01*
X257213Y16500D01*
X256960Y16000D01*
X256833Y15333D01*
X256960Y14750D01*
X257277Y14167D01*
X257657Y13833D01*
X258100Y13750D01*
X258607Y13917D01*
X258987Y14333D01*
X259367Y15083D01*
G01X275500Y18500D02*
Y29500D01*
X240500D01*
Y18500D01*
X275500D01*
G01D02*
Y29500D01*
X240500D01*
Y18500D01*
X275500D01*
G01X228093Y41683D02*
X227713Y41933D01*
X227270Y42100D01*
X226763D01*
X226193Y41850D01*
X225750Y41433D01*
X225433Y40933D01*
X225180Y40100D01*
X225117Y39350D01*
X225243Y38600D01*
X225433Y38100D01*
X225813Y37600D01*
X226257Y37267D01*
X226700Y37100D01*
X227143D01*
X227587Y37267D01*
X227967Y37517D01*
X228283Y37850D01*
G01X230407Y38100D02*
X230787Y37517D01*
X231293Y37183D01*
X231863Y37100D01*
X232370Y37183D01*
X232877Y37600D01*
X233193Y38100D01*
X233257Y38600D01*
X233130Y39183D01*
X232687Y39600D01*
X232243Y39767D01*
X231673D01*
G01X232243D02*
X232623Y40017D01*
X232940Y40433D01*
X233067Y40933D01*
X232940Y41433D01*
X232623Y41850D01*
X232053Y42100D01*
X231483Y42017D01*
X230913Y41683D01*
G01X236900Y37100D02*
X237343Y37183D01*
X237850Y37433D01*
X238167Y37850D01*
X238293Y38433D01*
X238167Y39017D01*
X237787Y39517D01*
X237217Y39767D01*
X236583D01*
X236203Y39933D01*
X235887Y40350D01*
X235760Y40933D01*
X235950Y41517D01*
X236393Y41933D01*
X236900Y42100D01*
X237407Y41933D01*
X237850Y41517D01*
X238040Y40933D01*
X237913Y40350D01*
X237597Y39933D01*
X237217Y39767D01*
X236583D01*
X236013Y39517D01*
X235633Y39017D01*
X235507Y38433D01*
X235633Y37850D01*
X235950Y37433D01*
X236457Y37183D01*
X236900Y37100D01*
G01X225500Y210000D02*
X223000Y207500D01*
Y87500D01*
X233000D01*
Y207500D01*
X230500Y210000D01*
X225500D01*
G01D02*
X223000Y207500D01*
Y87500D01*
X233000D01*
Y207500D01*
X230500Y210000D01*
X225500D01*
G01X245000Y109846D02*
Y131500D01*
X271000D01*
Y109639D01*
X266861Y105500D01*
X249142D01*
Y105704D01*
X245000Y109846D01*
G01D02*
Y118892D01*
G01X255501Y105500D02*
X249142D01*
Y105704D01*
X245000Y109846D01*
G01Y122108D02*
Y131500D01*
X251042D01*
G01X237317Y129593D02*
X237067Y129213D01*
X236900Y128770D01*
Y128263D01*
X237150Y127693D01*
X237567Y127250D01*
X238067Y126933D01*
X238900Y126680D01*
X239650Y126617D01*
X240400Y126743D01*
X240900Y126933D01*
X241400Y127313D01*
X241733Y127757D01*
X241900Y128200D01*
Y128643D01*
X241733Y129087D01*
X241483Y129467D01*
X241150Y129783D01*
G01X237733Y132097D02*
X237233Y132477D01*
X236983Y132920D01*
X236900Y133427D01*
X237067Y134060D01*
X237483Y134503D01*
X237983Y134630D01*
X238483Y134567D01*
X238900Y134313D01*
X239733Y133047D01*
X240317Y132477D01*
X241150Y132097D01*
X241900Y131970D01*
Y134630D01*
G01Y138400D02*
X241817Y138843D01*
X241567Y139350D01*
X241150Y139667D01*
X240567Y139793D01*
X239983Y139667D01*
X239483Y139287D01*
X239233Y138717D01*
Y138083D01*
X239067Y137703D01*
X238650Y137387D01*
X238067Y137260D01*
X237483Y137450D01*
X237067Y137893D01*
X236900Y138400D01*
X237067Y138907D01*
X237483Y139350D01*
X238067Y139540D01*
X238650Y139413D01*
X239067Y139097D01*
X239233Y138717D01*
Y138083D01*
X239483Y137513D01*
X239983Y137133D01*
X240567Y137007D01*
X241150Y137133D01*
X241567Y137450D01*
X241817Y137957D01*
X241900Y138400D01*
G01X239000Y118000D02*
Y124000D01*
X236000D01*
Y118000D01*
X239000D01*
G01Y120299D02*
Y121701D01*
G01X236000D02*
Y120299D01*
G01X239000Y194633D02*
X239500Y194950D01*
X239833Y195330D01*
X240000Y195773D01*
X239833Y196280D01*
X239500Y196660D01*
X239000Y197040D01*
X238333Y197167D01*
X235000D01*
G01X240000Y201000D02*
X235000D01*
X236000Y200240D01*
G01X240000D02*
Y201760D01*
G01Y206100D02*
X235000D01*
X236000Y205340D01*
G01X240000D02*
Y206860D01*
G01X274093Y39683D02*
X273713Y39933D01*
X273270Y40100D01*
X272763D01*
X272193Y39850D01*
X271750Y39433D01*
X271433Y38933D01*
X271180Y38100D01*
X271117Y37350D01*
X271243Y36600D01*
X271433Y36100D01*
X271813Y35600D01*
X272257Y35267D01*
X272700Y35100D01*
X273143D01*
X273587Y35267D01*
X273967Y35517D01*
X274283Y35850D01*
G01X276407Y36100D02*
X276787Y35517D01*
X277293Y35183D01*
X277863Y35100D01*
X278370Y35183D01*
X278877Y35600D01*
X279193Y36100D01*
X279257Y36600D01*
X279130Y37183D01*
X278687Y37600D01*
X278243Y37767D01*
X277673D01*
G01X278243D02*
X278623Y38017D01*
X278940Y38433D01*
X279067Y38933D01*
X278940Y39433D01*
X278623Y39850D01*
X278053Y40100D01*
X277483Y40017D01*
X276913Y39683D01*
G01X281823Y35683D02*
X282267Y35267D01*
X282773Y35100D01*
X283280Y35267D01*
X283723Y35767D01*
X284040Y36517D01*
X284167Y37267D01*
Y38183D01*
X284040Y38933D01*
X283723Y39600D01*
X283343Y39933D01*
X282900Y40100D01*
X282393Y39933D01*
X282013Y39600D01*
X281760Y39100D01*
X281633Y38433D01*
X281760Y37850D01*
X282077Y37267D01*
X282457Y36933D01*
X282900Y36850D01*
X283407Y37017D01*
X283787Y37433D01*
X284167Y38183D01*
G01X267500Y31500D02*
X273500D01*
Y34500D01*
X267500D01*
Y31500D01*
G01X269799D02*
X271201D01*
G01Y34500D02*
X269799D01*
G01X263887Y104926D02*
X263727Y105051D01*
X263540Y105134D01*
X263327D01*
X263087Y105009D01*
X262900Y104801D01*
X262767Y104551D01*
X262660Y104134D01*
X262633Y103759D01*
X262687Y103384D01*
X262767Y103134D01*
X262927Y102884D01*
X263113Y102717D01*
X263300Y102634D01*
X263487D01*
X263673Y102717D01*
X263833Y102842D01*
X263967Y103009D01*
G01X265820Y102634D02*
Y105134D01*
X264833Y103342D01*
X266167D01*
G01X264958Y131500D02*
X271000D01*
Y109639D01*
X266861Y105500D01*
X260499D01*
G01X254958Y131500D02*
X255501D01*
G01X260499D02*
X261042D01*
G01X272633Y255000D02*
X272950Y254500D01*
X273330Y254167D01*
X273773Y254000D01*
X274280Y254167D01*
X274660Y254500D01*
X275040Y255000D01*
X275167Y255667D01*
Y259000D01*
G01X277797Y258167D02*
X278177Y258667D01*
X278620Y258917D01*
X279127Y259000D01*
X279760Y258833D01*
X280203Y258417D01*
X280330Y257917D01*
X280267Y257417D01*
X280013Y257000D01*
X278747Y256167D01*
X278177Y255583D01*
X277797Y254750D01*
X277670Y254000D01*
X280330D01*
G01X284860D02*
Y259000D01*
X282517Y255417D01*
X285683D01*
G01X292633Y13500D02*
X292950Y13000D01*
X293330Y12667D01*
X293773Y12500D01*
X294280Y12667D01*
X294660Y13000D01*
X295040Y13500D01*
X295167Y14167D01*
Y17500D01*
G01X297797Y16667D02*
X298177Y17167D01*
X298620Y17417D01*
X299127Y17500D01*
X299760Y17333D01*
X300203Y16917D01*
X300330Y16417D01*
X300267Y15917D01*
X300013Y15500D01*
X298747Y14667D01*
X298177Y14083D01*
X297797Y13250D01*
X297670Y12500D01*
X300330D01*
G01X304100Y17500D02*
X303593Y17333D01*
X303213Y16917D01*
X302960Y16417D01*
X302770Y15750D01*
X302707Y15000D01*
X302770Y14250D01*
X302960Y13583D01*
X303213Y13083D01*
X303593Y12667D01*
X304100Y12500D01*
X304607Y12667D01*
X304987Y13083D01*
X305240Y13583D01*
X305430Y14250D01*
X305493Y15000D01*
X305430Y15750D01*
X305240Y16417D01*
X304987Y16917D01*
X304607Y17333D01*
X304100Y17500D01*
G01X322500Y18500D02*
Y29500D01*
X287500D01*
Y18500D01*
X322500D01*
G01D02*
Y29500D01*
X287500D01*
Y18500D01*
X322500D01*
G01X300500Y210000D02*
X298000Y207500D01*
Y87500D01*
X308000D01*
Y207500D01*
X305500Y210000D01*
X300500D01*
G01D02*
X298000Y207500D01*
Y87500D01*
X308000D01*
Y207500D01*
X305500Y210000D01*
X300500D01*
G01X314793Y137083D02*
X314413Y137333D01*
X313970Y137500D01*
X313463D01*
X312893Y137250D01*
X312450Y136833D01*
X312133Y136333D01*
X311880Y135500D01*
X311817Y134750D01*
X311943Y134000D01*
X312133Y133500D01*
X312513Y133000D01*
X312957Y132667D01*
X313400Y132500D01*
X313843D01*
X314287Y132667D01*
X314667Y132917D01*
X314983Y133250D01*
G01X317297Y136667D02*
X317677Y137167D01*
X318120Y137417D01*
X318627Y137500D01*
X319260Y137333D01*
X319703Y136917D01*
X319830Y136417D01*
X319767Y135917D01*
X319513Y135500D01*
X318247Y134667D01*
X317677Y134083D01*
X317297Y133250D01*
X317170Y132500D01*
X319830D01*
G01X323473D02*
X323600Y133583D01*
X323790Y134500D01*
X324043Y135333D01*
X324360Y136250D01*
X324867Y137500D01*
X322333D01*
G01X315500Y116000D02*
Y122000D01*
X312500D01*
Y116000D01*
X315500D01*
G01X312500Y119701D02*
Y118299D01*
G01X315000Y194133D02*
X315500Y194450D01*
X315833Y194830D01*
X316000Y195273D01*
X315833Y195780D01*
X315500Y196160D01*
X315000Y196540D01*
X314333Y196667D01*
X311000D01*
G01X316000Y200500D02*
X311000D01*
X312000Y199740D01*
G01X316000D02*
Y201260D01*
G01X313917Y204397D02*
X313333Y204840D01*
X313000Y205220D01*
X312833Y205727D01*
X313000Y206170D01*
X313333Y206487D01*
X313833Y206740D01*
X314417Y206803D01*
X314917Y206740D01*
X315417Y206487D01*
X315833Y206107D01*
X316000Y205663D01*
X315833Y205157D01*
X315333Y204713D01*
X314583Y204460D01*
X313750Y204397D01*
X312667Y204523D01*
X312083Y204713D01*
X311500Y205030D01*
X311083Y205473D01*
X311000Y205917D01*
X311167Y206360D01*
X311583Y206677D01*
G01X308154Y228500D02*
X286500D01*
Y254500D01*
X308361D01*
X312500Y250361D01*
Y232642D01*
X312296D01*
X308154Y228500D01*
G01D02*
X286500D01*
Y239001D01*
G01X312500D02*
Y232642D01*
X312296D01*
X308154Y228500D01*
G01X378000Y257000D02*
Y268000D01*
X283000D01*
Y257000D01*
X378000D01*
G01X325801Y268000D02*
X283000D01*
Y257000D01*
X378000D01*
G01X312019Y249358D02*
X311859Y249483D01*
X311672Y249566D01*
X311459D01*
X311219Y249441D01*
X311032Y249233D01*
X310899Y248983D01*
X310792Y248566D01*
X310765Y248191D01*
X310819Y247816D01*
X310899Y247566D01*
X311059Y247316D01*
X311245Y247149D01*
X311432Y247066D01*
X311619D01*
X311805Y247149D01*
X311965Y247274D01*
X312099Y247441D01*
G01X313632Y247066D02*
X313819Y247108D01*
X314032Y247233D01*
X314165Y247441D01*
X314219Y247733D01*
X314165Y248024D01*
X314005Y248274D01*
X313765Y248399D01*
X313499D01*
X313339Y248483D01*
X313205Y248691D01*
X313152Y248983D01*
X313232Y249274D01*
X313419Y249483D01*
X313632Y249566D01*
X313845Y249483D01*
X314032Y249274D01*
X314112Y248983D01*
X314059Y248691D01*
X313925Y248483D01*
X313765Y248399D01*
X313499D01*
X313259Y248274D01*
X313099Y248024D01*
X313045Y247733D01*
X313099Y247441D01*
X313232Y247233D01*
X313445Y247108D01*
X313632Y247066D01*
G01X286500Y243999D02*
Y254500D01*
X308361D01*
X312500Y250361D01*
Y243999D01*
G01X341133Y13000D02*
X341450Y12500D01*
X341830Y12167D01*
X342273Y12000D01*
X342780Y12167D01*
X343160Y12500D01*
X343540Y13000D01*
X343667Y13667D01*
Y17000D01*
G01X346297Y16167D02*
X346677Y16667D01*
X347120Y16917D01*
X347627Y17000D01*
X348260Y16833D01*
X348703Y16417D01*
X348830Y15917D01*
X348767Y15417D01*
X348513Y15000D01*
X347247Y14167D01*
X346677Y13583D01*
X346297Y12750D01*
X346170Y12000D01*
X348830D01*
G01X352600D02*
Y17000D01*
X351840Y16000D01*
G01Y12000D02*
X353360D01*
G01X369500Y18500D02*
Y29500D01*
X334500D01*
Y18500D01*
X369500D01*
G01D02*
Y29500D01*
X334500D01*
Y18500D01*
X369500D01*
G01X321593Y40683D02*
X321213Y40933D01*
X320770Y41100D01*
X320263D01*
X319693Y40850D01*
X319250Y40433D01*
X318933Y39933D01*
X318680Y39100D01*
X318617Y38350D01*
X318743Y37600D01*
X318933Y37100D01*
X319313Y36600D01*
X319757Y36267D01*
X320200Y36100D01*
X320643D01*
X321087Y36267D01*
X321467Y36517D01*
X321783Y36850D01*
G01X323907Y37100D02*
X324287Y36517D01*
X324793Y36183D01*
X325363Y36100D01*
X325870Y36183D01*
X326377Y36600D01*
X326693Y37100D01*
X326757Y37600D01*
X326630Y38183D01*
X326187Y38600D01*
X325743Y38767D01*
X325173D01*
G01X325743D02*
X326123Y39017D01*
X326440Y39433D01*
X326567Y39933D01*
X326440Y40433D01*
X326123Y40850D01*
X325553Y41100D01*
X324983Y41017D01*
X324413Y40683D01*
G01X331160Y36100D02*
Y41100D01*
X328817Y37517D01*
X331983D01*
G01X314500Y31500D02*
X320500D01*
Y34500D01*
X314500D01*
Y31500D01*
G01X316799D02*
X318201D01*
G01Y34500D02*
X316799D01*
G01X338887Y102426D02*
X338727Y102551D01*
X338540Y102634D01*
X338327D01*
X338087Y102509D01*
X337900Y102301D01*
X337767Y102051D01*
X337660Y101634D01*
X337633Y101259D01*
X337687Y100884D01*
X337767Y100634D01*
X337927Y100384D01*
X338113Y100217D01*
X338300Y100134D01*
X338487D01*
X338673Y100217D01*
X338833Y100342D01*
X338967Y100509D01*
G01X339913D02*
X340073Y100301D01*
X340260Y100176D01*
X340500Y100134D01*
X340740Y100217D01*
X340927Y100384D01*
X341060Y100676D01*
X341087Y101009D01*
X341033Y101342D01*
X340900Y101551D01*
X340713Y101717D01*
X340527Y101759D01*
X340340Y101717D01*
X340100Y101551D01*
X340180Y102634D01*
X340900D01*
G01X320000Y107346D02*
Y129000D01*
X346000D01*
Y107139D01*
X341861Y103000D01*
X324142D01*
Y103204D01*
X320000Y107346D01*
G01D02*
Y129000D01*
X325359D01*
G01X340641D02*
X346000D01*
Y107139D01*
X341861Y103000D01*
X335499D01*
G01X330501D02*
X324142D01*
Y103204D01*
X320000Y107346D01*
G01X329641Y129000D02*
X330501D01*
G01X335499D02*
X336359D01*
G01X315500Y118299D02*
Y119701D01*
G01X319493Y246149D02*
X319113Y246399D01*
X318670Y246566D01*
X318163D01*
X317593Y246316D01*
X317150Y245899D01*
X316833Y245399D01*
X316580Y244566D01*
X316517Y243816D01*
X316643Y243066D01*
X316833Y242566D01*
X317213Y242066D01*
X317657Y241733D01*
X318100Y241566D01*
X318543D01*
X318987Y241733D01*
X319367Y241983D01*
X319683Y242316D01*
G01X321997Y245733D02*
X322377Y246233D01*
X322820Y246483D01*
X323327Y246566D01*
X323960Y246399D01*
X324403Y245983D01*
X324530Y245483D01*
X324467Y244983D01*
X324213Y244566D01*
X322947Y243733D01*
X322377Y243149D01*
X321997Y242316D01*
X321870Y241566D01*
X324530D01*
G01X326907Y242566D02*
X327287Y241983D01*
X327793Y241649D01*
X328363Y241566D01*
X328870Y241649D01*
X329377Y242066D01*
X329693Y242566D01*
X329757Y243066D01*
X329630Y243649D01*
X329187Y244066D01*
X328743Y244233D01*
X328173D01*
G01X328743D02*
X329123Y244483D01*
X329440Y244899D01*
X329567Y245399D01*
X329440Y245899D01*
X329123Y246316D01*
X328553Y246566D01*
X327983Y246483D01*
X327413Y246149D01*
G01X326500Y255000D02*
X320500D01*
Y252000D01*
X326500D01*
Y255000D01*
G01X324201D02*
X322799D01*
G01Y252000D02*
X324201D01*
G01X378000Y257000D02*
Y268000D01*
X330199D01*
G01X367093Y39683D02*
X366713Y39933D01*
X366270Y40100D01*
X365763D01*
X365193Y39850D01*
X364750Y39433D01*
X364433Y38933D01*
X364180Y38100D01*
X364117Y37350D01*
X364243Y36600D01*
X364433Y36100D01*
X364813Y35600D01*
X365257Y35267D01*
X365700Y35100D01*
X366143D01*
X366587Y35267D01*
X366967Y35517D01*
X367283Y35850D01*
G01X371560Y35100D02*
Y40100D01*
X369217Y36517D01*
X372383D01*
G01X375900Y40100D02*
X375393Y39933D01*
X375013Y39517D01*
X374760Y39017D01*
X374570Y38350D01*
X374507Y37600D01*
X374570Y36850D01*
X374760Y36183D01*
X375013Y35683D01*
X375393Y35267D01*
X375900Y35100D01*
X376407Y35267D01*
X376787Y35683D01*
X377040Y36183D01*
X377230Y36850D01*
X377293Y37600D01*
X377230Y38350D01*
X377040Y39017D01*
X376787Y39517D01*
X376407Y39933D01*
X375900Y40100D01*
G01X361500Y31500D02*
X367500D01*
Y34500D01*
X361500D01*
Y31500D01*
G01X363799D02*
X365201D01*
G01Y34500D02*
X363799D01*
G01X375500Y210000D02*
X373000Y207500D01*
Y87500D01*
X383000D01*
Y207500D01*
X380500Y210000D01*
X375500D01*
G01X373528Y208028D02*
X373000Y207500D01*
Y87500D01*
X383000D01*
Y145586D01*
G01X394500Y106346D02*
Y128000D01*
X420500D01*
Y106139D01*
X416361Y102000D01*
X398642D01*
Y102204D01*
X394500Y106346D01*
G01D02*
Y115892D01*
G01X405001Y102000D02*
X398642D01*
Y102204D01*
X394500Y106346D01*
G01Y119108D02*
Y128000D01*
X399859D01*
G01X386526Y132716D02*
X386146Y132966D01*
X385703Y133133D01*
X385196D01*
X384626Y132883D01*
X384183Y132466D01*
X383866Y131966D01*
X383613Y131133D01*
X383550Y130383D01*
X383676Y129633D01*
X383866Y129133D01*
X384246Y128633D01*
X384690Y128300D01*
X385133Y128133D01*
X385576D01*
X386020Y128300D01*
X386400Y128550D01*
X386716Y128883D01*
G01X389030Y132300D02*
X389410Y132800D01*
X389853Y133050D01*
X390360Y133133D01*
X390993Y132966D01*
X391436Y132550D01*
X391563Y132050D01*
X391500Y131550D01*
X391246Y131133D01*
X389980Y130300D01*
X389410Y129716D01*
X389030Y128883D01*
X388903Y128133D01*
X391563D01*
G01X394130Y130216D02*
X394573Y130800D01*
X394953Y131133D01*
X395460Y131300D01*
X395903Y131133D01*
X396220Y130800D01*
X396473Y130300D01*
X396536Y129716D01*
X396473Y129216D01*
X396220Y128716D01*
X395840Y128300D01*
X395396Y128133D01*
X394890Y128300D01*
X394446Y128800D01*
X394193Y129550D01*
X394130Y130383D01*
X394256Y131466D01*
X394446Y132050D01*
X394763Y132633D01*
X395206Y133050D01*
X395650Y133133D01*
X396093Y132966D01*
X396410Y132550D01*
G01X390000Y115500D02*
Y121500D01*
X387000D01*
Y115500D01*
X390000D01*
G01Y117799D02*
Y119201D01*
G01X387000D02*
Y117799D01*
G01X383000Y147414D02*
Y207500D01*
X380500Y210000D01*
X377458D01*
G01X389500Y193633D02*
X390000Y193950D01*
X390333Y194330D01*
X390500Y194773D01*
X390333Y195280D01*
X390000Y195660D01*
X389500Y196040D01*
X388833Y196167D01*
X385500D01*
G01X390500Y200000D02*
X385500D01*
X386500Y199240D01*
G01X390500D02*
Y200760D01*
G01X389500Y203707D02*
X390083Y204087D01*
X390417Y204593D01*
X390500Y205163D01*
X390417Y205670D01*
X390000Y206177D01*
X389500Y206493D01*
X389000Y206557D01*
X388417Y206430D01*
X388000Y205987D01*
X387833Y205543D01*
Y204973D01*
G01Y205543D02*
X387583Y205923D01*
X387167Y206240D01*
X386667Y206367D01*
X386167Y206240D01*
X385750Y205923D01*
X385500Y205353D01*
X385583Y204783D01*
X385917Y204213D01*
G01X415154Y228500D02*
X393500D01*
Y254500D01*
X415361D01*
X419500Y250361D01*
Y232642D01*
X419296D01*
X415154Y228500D01*
G01D02*
X393500D01*
Y239001D01*
G01X377633Y252000D02*
X377950Y251500D01*
X378330Y251167D01*
X378773Y251000D01*
X379280Y251167D01*
X379660Y251500D01*
X380040Y252000D01*
X380167Y252667D01*
Y256000D01*
G01X382797Y255167D02*
X383177Y255667D01*
X383620Y255917D01*
X384127Y256000D01*
X384760Y255833D01*
X385203Y255417D01*
X385330Y254917D01*
X385267Y254417D01*
X385013Y254000D01*
X383747Y253167D01*
X383177Y252583D01*
X382797Y251750D01*
X382670Y251000D01*
X385330D01*
G01X387707Y251750D02*
X388087Y251333D01*
X388530Y251083D01*
X389100Y251000D01*
X389670Y251167D01*
X390113Y251500D01*
X390430Y252083D01*
X390493Y252750D01*
X390367Y253417D01*
X390050Y253833D01*
X389607Y254167D01*
X389163Y254250D01*
X388720Y254167D01*
X388150Y253833D01*
X388340Y256000D01*
X390050D01*
G01X485500Y257000D02*
Y268000D01*
X390500D01*
Y257000D01*
X485500D01*
G01D02*
Y268000D01*
X390500D01*
Y257000D01*
X456519D01*
G01X393500Y243999D02*
Y254500D01*
X415361D01*
X419500Y250361D01*
Y243999D01*
G01X430851Y31993D02*
X430601Y31613D01*
X430434Y31170D01*
Y30663D01*
X430684Y30093D01*
X431101Y29650D01*
X431601Y29333D01*
X432434Y29080D01*
X433184Y29017D01*
X433934Y29143D01*
X434434Y29333D01*
X434934Y29713D01*
X435267Y30157D01*
X435434Y30600D01*
Y31043D01*
X435267Y31487D01*
X435017Y31867D01*
X434684Y32183D01*
G01X435434Y35700D02*
X430434D01*
X431434Y34940D01*
G01X435434D02*
Y36460D01*
G01Y41560D02*
X430434D01*
X434017Y39217D01*
Y42383D01*
G01X432000Y51000D02*
Y45000D01*
X435000D01*
Y51000D01*
X432000D01*
G01Y48701D02*
Y47299D01*
G01X417208Y98387D02*
X417083Y98227D01*
X417000Y98040D01*
Y97827D01*
X417125Y97587D01*
X417333Y97400D01*
X417583Y97267D01*
X418000Y97160D01*
X418375Y97133D01*
X418750Y97187D01*
X419000Y97267D01*
X419250Y97427D01*
X419417Y97613D01*
X419500Y97800D01*
Y97987D01*
X419417Y98173D01*
X419292Y98333D01*
X419125Y98467D01*
G01X418458Y99493D02*
X418167Y99680D01*
X418000Y99840D01*
X417917Y100053D01*
X418000Y100240D01*
X418167Y100373D01*
X418417Y100480D01*
X418708Y100507D01*
X418958Y100480D01*
X419208Y100373D01*
X419417Y100213D01*
X419500Y100027D01*
X419417Y99813D01*
X419167Y99627D01*
X418792Y99520D01*
X418375Y99493D01*
X417833Y99547D01*
X417542Y99627D01*
X417250Y99760D01*
X417042Y99947D01*
X417000Y100133D01*
X417083Y100320D01*
X417292Y100453D01*
G01X416141Y128000D02*
X420500D01*
Y106139D01*
X416361Y102000D01*
X409999D01*
G01X404141Y128000D02*
X405001D01*
G01X409999D02*
X411859D01*
G01X428387Y164125D02*
X428227Y164250D01*
X428040Y164333D01*
X427827D01*
X427587Y164208D01*
X427400Y164000D01*
X427267Y163750D01*
X427160Y163333D01*
X427133Y162958D01*
X427187Y162583D01*
X427267Y162333D01*
X427427Y162083D01*
X427613Y161916D01*
X427800Y161833D01*
X427987D01*
X428173Y161916D01*
X428333Y162041D01*
X428467Y162208D01*
G01X430320Y161833D02*
Y164333D01*
X429333Y162541D01*
X430667D01*
G01X432200Y161833D02*
Y164333D01*
X431880Y163833D01*
G01Y161833D02*
X432520D01*
G01X420000Y179463D02*
X421792D01*
X422167Y179570D01*
X422417Y179783D01*
X422500Y180050D01*
X422417Y180317D01*
X422167Y180530D01*
X421792Y180637D01*
X420000D01*
G01X421458Y181743D02*
X421167Y181930D01*
X421000Y182090D01*
X420917Y182303D01*
X421000Y182490D01*
X421167Y182623D01*
X421417Y182730D01*
X421708Y182757D01*
X421958Y182730D01*
X422208Y182623D01*
X422417Y182463D01*
X422500Y182277D01*
X422417Y182063D01*
X422167Y181877D01*
X421792Y181770D01*
X421375Y181743D01*
X420833Y181797D01*
X420542Y181877D01*
X420250Y182010D01*
X420042Y182197D01*
X420000Y182383D01*
X420083Y182570D01*
X420292Y182703D01*
G01X443500Y180250D02*
X423500D01*
Y193750D01*
X443500D01*
Y180250D01*
G01X427000Y183250D02*
G03I-1000J0D01*
G01X423500Y182000D02*
X443500D01*
G01X423500D02*
X443500D01*
G01X427000Y183250D02*
G03I-1000J0D01*
G01X443500Y180250D02*
Y193750D01*
X423500D01*
Y180250D01*
X443500D01*
G01X424434Y194333D02*
X419434D01*
Y195917D01*
X419684Y196423D01*
X420017Y196740D01*
X420684Y196867D01*
X421351Y196740D01*
X421767Y196360D01*
X422017Y195917D01*
Y194333D01*
G01Y195917D02*
X424434Y196867D01*
G01X423434Y199307D02*
X424017Y199687D01*
X424351Y200193D01*
X424434Y200763D01*
X424351Y201270D01*
X423934Y201777D01*
X423434Y202093D01*
X422934Y202157D01*
X422351Y202030D01*
X421934Y201587D01*
X421767Y201143D01*
Y200573D01*
G01Y201143D02*
X421517Y201523D01*
X421101Y201840D01*
X420601Y201967D01*
X420101Y201840D01*
X419684Y201523D01*
X419434Y200953D01*
X419517Y200383D01*
X419851Y199813D01*
G01X423434Y204407D02*
X424017Y204787D01*
X424351Y205293D01*
X424434Y205863D01*
X424351Y206370D01*
X423934Y206877D01*
X423434Y207193D01*
X422934Y207257D01*
X422351Y207130D01*
X421934Y206687D01*
X421767Y206243D01*
Y205673D01*
G01Y206243D02*
X421517Y206623D01*
X421101Y206940D01*
X420601Y207067D01*
X420101Y206940D01*
X419684Y206623D01*
X419434Y206053D01*
X419517Y205483D01*
X419851Y204913D01*
G01X419500Y239001D02*
Y232642D01*
X419296D01*
X415154Y228500D01*
G01X423400Y216933D02*
X418400D01*
Y218517D01*
X418650Y219023D01*
X418983Y219340D01*
X419650Y219467D01*
X420317Y219340D01*
X420733Y218960D01*
X420983Y218517D01*
Y216933D01*
G01Y218517D02*
X423400Y219467D01*
G01X422400Y221907D02*
X422983Y222287D01*
X423317Y222793D01*
X423400Y223363D01*
X423317Y223870D01*
X422900Y224377D01*
X422400Y224693D01*
X421900Y224757D01*
X421317Y224630D01*
X420900Y224187D01*
X420733Y223743D01*
Y223173D01*
G01Y223743D02*
X420483Y224123D01*
X420067Y224440D01*
X419567Y224567D01*
X419067Y224440D01*
X418650Y224123D01*
X418400Y223553D01*
X418483Y222983D01*
X418817Y222413D01*
G01X419233Y227197D02*
X418733Y227577D01*
X418483Y228020D01*
X418400Y228527D01*
X418567Y229160D01*
X418983Y229603D01*
X419483Y229730D01*
X419983Y229667D01*
X420400Y229413D01*
X421233Y228147D01*
X421817Y227577D01*
X422650Y227197D01*
X423400Y227070D01*
Y229730D01*
G01X428500Y216000D02*
Y222000D01*
X425500D01*
Y216000D01*
X428500D01*
G01Y217799D02*
Y220201D01*
G01X425500D02*
Y217799D01*
G01Y209000D02*
Y203000D01*
X428500D01*
Y209000D01*
X425500D01*
G01Y207201D02*
Y204799D01*
G01X428500D02*
Y207201D01*
G01X419019Y249358D02*
X418859Y249483D01*
X418672Y249566D01*
X418459D01*
X418219Y249441D01*
X418032Y249233D01*
X417899Y248983D01*
X417792Y248566D01*
X417765Y248191D01*
X417819Y247816D01*
X417899Y247566D01*
X418059Y247316D01*
X418245Y247149D01*
X418432Y247066D01*
X418619D01*
X418805Y247149D01*
X418965Y247274D01*
X419099Y247441D01*
G01X420179Y247358D02*
X420365Y247149D01*
X420579Y247066D01*
X420792Y247149D01*
X420979Y247399D01*
X421112Y247774D01*
X421165Y248149D01*
Y248608D01*
X421112Y248983D01*
X420979Y249316D01*
X420819Y249483D01*
X420632Y249566D01*
X420419Y249483D01*
X420259Y249316D01*
X420152Y249066D01*
X420099Y248733D01*
X420152Y248441D01*
X420285Y248149D01*
X420445Y247983D01*
X420632Y247941D01*
X420845Y248024D01*
X421005Y248233D01*
X421165Y248608D01*
G01X427000Y252000D02*
X433000D01*
Y255000D01*
X427000D01*
Y252000D01*
G01X429299D02*
X430701D01*
G01Y255000D02*
X429299D01*
G01X453684Y24479D02*
X455476D01*
X455851Y24586D01*
X456101Y24799D01*
X456184Y25066D01*
X456101Y25333D01*
X455851Y25546D01*
X455476Y25653D01*
X453684D01*
G01X456184Y27586D02*
X453684D01*
X455476Y26599D01*
Y27933D01*
G01X456250Y48000D02*
Y28000D01*
X442750D01*
Y48000D01*
X456250D01*
G01X454250Y30500D02*
G03I-1000J0D01*
G01X454500Y28000D02*
Y48000D01*
G01Y28000D02*
Y48000D01*
G01X454250Y30500D02*
G03I-1000J0D01*
G01X456250Y48000D02*
X442750D01*
Y28000D01*
X456250D01*
Y48000D01*
G01X435000Y47299D02*
Y48701D01*
G01X449387Y23292D02*
X449227Y23417D01*
X449040Y23500D01*
X448827D01*
X448587Y23375D01*
X448400Y23167D01*
X448267Y22917D01*
X448160Y22500D01*
X448133Y22125D01*
X448187Y21750D01*
X448267Y21500D01*
X448427Y21250D01*
X448613Y21083D01*
X448800Y21000D01*
X448987D01*
X449173Y21083D01*
X449333Y21208D01*
X449467Y21375D01*
G01X451000Y21000D02*
Y23500D01*
X450680Y23000D01*
G01Y21000D02*
X451320D01*
G01X452613Y21500D02*
X452773Y21208D01*
X452987Y21042D01*
X453227Y21000D01*
X453440Y21042D01*
X453653Y21250D01*
X453787Y21500D01*
X453813Y21750D01*
X453760Y22042D01*
X453573Y22250D01*
X453387Y22333D01*
X453147D01*
G01X453387D02*
X453547Y22458D01*
X453680Y22667D01*
X453733Y22917D01*
X453680Y23167D01*
X453547Y23375D01*
X453307Y23500D01*
X453067Y23458D01*
X452827Y23292D01*
G01X450500Y202530D02*
X455500D01*
G01Y199870D02*
X450500D01*
G01X453000D02*
Y202530D01*
G01X450500Y194833D02*
Y197367D01*
X455500D01*
Y194833D01*
G01X453083Y195847D02*
Y197367D01*
G01X450500Y192583D02*
X455500Y191000D01*
X450500Y189417D01*
G01X452250Y189987D02*
Y192013D01*
G01X450500Y187293D02*
X455500D01*
Y186027D01*
X455250Y185520D01*
X454917Y185140D01*
X454417Y184823D01*
X453833Y184570D01*
X453000Y184507D01*
X452167Y184570D01*
X451583Y184823D01*
X451083Y185140D01*
X450750Y185520D01*
X450500Y186027D01*
Y187293D01*
G01Y179533D02*
Y182067D01*
X455500D01*
Y179533D01*
G01X453083Y180547D02*
Y182067D01*
G01X450500Y176967D02*
X455500D01*
Y175383D01*
X455250Y174877D01*
X454917Y174560D01*
X454250Y174433D01*
X453583Y174560D01*
X453167Y174940D01*
X452917Y175383D01*
Y176967D01*
G01Y175383D02*
X450500Y174433D01*
G01Y165500D02*
X455500D01*
X454500Y166260D01*
G01X450500D02*
Y164740D01*
G01X454667Y161603D02*
X455167Y161223D01*
X455417Y160780D01*
X455500Y160273D01*
X455333Y159640D01*
X454917Y159197D01*
X454417Y159070D01*
X453917Y159133D01*
X453500Y159387D01*
X452667Y160653D01*
X452083Y161223D01*
X451250Y161603D01*
X450500Y161730D01*
Y159070D01*
G01X448833Y157200D02*
Y153400D01*
G01X451167Y151530D02*
X450750Y151023D01*
X450500Y150453D01*
Y149947D01*
X450750Y149440D01*
X451167Y149060D01*
X451750Y148870D01*
X452333Y148997D01*
X452833Y149313D01*
X453167Y149883D01*
X453333Y150643D01*
X453667Y151087D01*
X454250Y151277D01*
X454833Y151150D01*
X455250Y150833D01*
X455500Y150390D01*
Y149947D01*
X455333Y149503D01*
X454917Y149123D01*
G01X455500Y145860D02*
Y144340D01*
G01Y145100D02*
X450500D01*
G01Y145860D02*
Y144340D01*
G01Y141267D02*
X455500D01*
Y139747D01*
X455250Y139240D01*
X454667Y138860D01*
X454000Y138733D01*
X453333Y138860D01*
X452833Y139177D01*
X452583Y139747D01*
Y141267D01*
G01X450500Y134900D02*
X455500D01*
X454500Y135660D01*
G01X450500D02*
Y134140D01*
G01X454667Y131003D02*
X455167Y130623D01*
X455417Y130180D01*
X455500Y129673D01*
X455333Y129040D01*
X454917Y128597D01*
X454417Y128470D01*
X453917Y128533D01*
X453500Y128787D01*
X452667Y130053D01*
X452083Y130623D01*
X451250Y131003D01*
X450500Y131130D01*
Y128470D01*
G01X448833Y126600D02*
Y122800D01*
G01X450500Y120930D02*
X455500D01*
G01Y118270D02*
X450500D01*
G01X453000D02*
Y120930D01*
G01X450500Y113233D02*
Y115767D01*
X455500D01*
Y113233D01*
G01X453083Y114247D02*
Y115767D01*
G01X450500Y110983D02*
X455500Y109400D01*
X450500Y107817D01*
G01X452250Y108387D02*
Y110413D01*
G01X450500Y105693D02*
X455500D01*
Y104427D01*
X455250Y103920D01*
X454917Y103540D01*
X454417Y103223D01*
X453833Y102970D01*
X453000Y102907D01*
X452167Y102970D01*
X451583Y103223D01*
X451083Y103540D01*
X450750Y103920D01*
X450500Y104427D01*
Y105693D01*
G01Y97933D02*
Y100467D01*
X455500D01*
Y97933D01*
G01X453083Y98947D02*
Y100467D01*
G01X450500Y95367D02*
X455500D01*
Y93783D01*
X455250Y93277D01*
X454917Y92960D01*
X454250Y92833D01*
X453583Y92960D01*
X453167Y93340D01*
X452917Y93783D01*
Y95367D01*
G01Y93783D02*
X450500Y92833D01*
G01Y83900D02*
X455500D01*
X454500Y84660D01*
G01X450500D02*
Y83140D01*
G01X454667Y80003D02*
X455167Y79623D01*
X455417Y79180D01*
X455500Y78673D01*
X455333Y78040D01*
X454917Y77597D01*
X454417Y77470D01*
X453917Y77533D01*
X453500Y77787D01*
X452667Y79053D01*
X452083Y79623D01*
X451250Y80003D01*
X450500Y80130D01*
Y77470D01*
G01X436133Y55000D02*
Y60000D01*
X437717D01*
X438223Y59750D01*
X438540Y59417D01*
X438667Y58750D01*
X438540Y58083D01*
X438160Y57667D01*
X437717Y57417D01*
X436133D01*
G01X437717D02*
X438667Y55000D01*
G01X441297Y59167D02*
X441677Y59667D01*
X442120Y59917D01*
X442627Y60000D01*
X443260Y59833D01*
X443703Y59417D01*
X443830Y58917D01*
X443767Y58417D01*
X443513Y58000D01*
X442247Y57167D01*
X441677Y56583D01*
X441297Y55750D01*
X441170Y55000D01*
X443830D01*
G01X447600D02*
Y60000D01*
X446840Y59000D01*
G01Y55000D02*
X448360D01*
G01X446500Y53500D02*
X440500D01*
Y50500D01*
X446500D01*
Y53500D01*
G01X444701D02*
X442299D01*
G01Y50500D02*
X444701D01*
G01X452633Y55000D02*
Y60000D01*
X454217D01*
X454723Y59750D01*
X455040Y59417D01*
X455167Y58750D01*
X455040Y58083D01*
X454660Y57667D01*
X454217Y57417D01*
X452633D01*
G01X454217D02*
X455167Y55000D01*
G01X457797Y59167D02*
X458177Y59667D01*
X458620Y59917D01*
X459127Y60000D01*
X459760Y59833D01*
X460203Y59417D01*
X460330Y58917D01*
X460267Y58417D01*
X460013Y58000D01*
X458747Y57167D01*
X458177Y56583D01*
X457797Y55750D01*
X457670Y55000D01*
X460330D01*
G01X462897Y59167D02*
X463277Y59667D01*
X463720Y59917D01*
X464227Y60000D01*
X464860Y59833D01*
X465303Y59417D01*
X465430Y58917D01*
X465367Y58417D01*
X465113Y58000D01*
X463847Y57167D01*
X463277Y56583D01*
X462897Y55750D01*
X462770Y55000D01*
X465430D01*
G01X460500Y53500D02*
X454500D01*
Y50500D01*
X460500D01*
Y53500D01*
G01X458701D02*
X456299D01*
G01Y50500D02*
X458701D01*
G01X450500Y210000D02*
X448000Y207500D01*
Y87500D01*
X458000D01*
Y207500D01*
X455500Y210000D01*
X450500D01*
G01D02*
X448000Y207500D01*
Y87500D01*
X458000D01*
Y207500D01*
X455500Y210000D01*
X450500D01*
G01X461817Y126093D02*
X461567Y125713D01*
X461400Y125270D01*
Y124763D01*
X461650Y124193D01*
X462067Y123750D01*
X462567Y123433D01*
X463400Y123180D01*
X464150Y123117D01*
X464900Y123243D01*
X465400Y123433D01*
X465900Y123813D01*
X466233Y124257D01*
X466400Y124700D01*
Y125143D01*
X466233Y125587D01*
X465983Y125967D01*
X465650Y126283D01*
G01X462233Y128597D02*
X461733Y128977D01*
X461483Y129420D01*
X461400Y129927D01*
X461567Y130560D01*
X461983Y131003D01*
X462483Y131130D01*
X462983Y131067D01*
X463400Y130813D01*
X464233Y129547D01*
X464817Y128977D01*
X465650Y128597D01*
X466400Y128470D01*
Y131130D01*
G01X465650Y133507D02*
X466067Y133887D01*
X466317Y134330D01*
X466400Y134900D01*
X466233Y135470D01*
X465900Y135913D01*
X465317Y136230D01*
X464650Y136293D01*
X463983Y136167D01*
X463567Y135850D01*
X463233Y135407D01*
X463150Y134963D01*
X463233Y134520D01*
X463567Y133950D01*
X461400Y134140D01*
Y135850D01*
G01X463500Y114500D02*
Y120500D01*
X460500D01*
Y114500D01*
X463500D01*
G01X460500Y118201D02*
Y116799D01*
G01X446834Y162633D02*
X447334Y162950D01*
X447667Y163330D01*
X447834Y163773D01*
X447667Y164280D01*
X447334Y164660D01*
X446834Y165040D01*
X446167Y165167D01*
X442834D01*
G01X447834Y169000D02*
X442834D01*
X443834Y168240D01*
G01X447834D02*
Y169760D01*
G01Y174860D02*
X442834D01*
X446417Y172517D01*
Y175683D01*
G01X436887Y202125D02*
X436727Y202250D01*
X436540Y202333D01*
X436327D01*
X436087Y202208D01*
X435900Y202000D01*
X435767Y201750D01*
X435660Y201333D01*
X435633Y200958D01*
X435687Y200583D01*
X435767Y200333D01*
X435927Y200083D01*
X436113Y199916D01*
X436300Y199833D01*
X436487D01*
X436673Y199916D01*
X436833Y200041D01*
X436967Y200208D01*
G01X438820Y199833D02*
Y202333D01*
X437833Y200541D01*
X439167D01*
G01X440193Y201916D02*
X440353Y202166D01*
X440540Y202291D01*
X440753Y202333D01*
X441020Y202250D01*
X441207Y202041D01*
X441260Y201791D01*
X441233Y201541D01*
X441127Y201333D01*
X440593Y200916D01*
X440353Y200625D01*
X440193Y200208D01*
X440140Y199833D01*
X441260D01*
G01X443500Y219733D02*
X444000Y220050D01*
X444333Y220430D01*
X444500Y220873D01*
X444333Y221380D01*
X444000Y221760D01*
X443500Y222140D01*
X442833Y222267D01*
X439500D01*
G01X440333Y224897D02*
X439833Y225277D01*
X439583Y225720D01*
X439500Y226227D01*
X439667Y226860D01*
X440083Y227303D01*
X440583Y227430D01*
X441083Y227367D01*
X441500Y227113D01*
X442333Y225847D01*
X442917Y225277D01*
X443750Y224897D01*
X444500Y224770D01*
Y227430D01*
G01X442417Y229997D02*
X441833Y230440D01*
X441500Y230820D01*
X441333Y231327D01*
X441500Y231770D01*
X441833Y232087D01*
X442333Y232340D01*
X442917Y232403D01*
X443417Y232340D01*
X443917Y232087D01*
X444333Y231707D01*
X444500Y231263D01*
X444333Y230757D01*
X443833Y230313D01*
X443083Y230060D01*
X442250Y229997D01*
X441167Y230123D01*
X440583Y230313D01*
X440000Y230630D01*
X439583Y231073D01*
X439500Y231517D01*
X439667Y231960D01*
X440083Y232277D01*
G01X450500Y211500D02*
Y222500D01*
X435500D01*
Y211500D01*
X450500D01*
G01D02*
Y222500D01*
X435500D01*
Y211500D01*
X442930D01*
G01X447320D02*
X450500D01*
G01Y223500D02*
Y234500D01*
X435500D01*
Y223500D01*
X450500D01*
G01D02*
Y230392D01*
G01Y233608D02*
Y234500D01*
X435500D01*
Y223500D01*
X450500D01*
G01X460451Y257000D02*
X485500D01*
G01X435884Y255060D02*
X435634Y254680D01*
X435467Y254237D01*
Y253730D01*
X435717Y253160D01*
X436134Y252717D01*
X436634Y252400D01*
X437467Y252147D01*
X438217Y252084D01*
X438967Y252210D01*
X439467Y252400D01*
X439967Y252780D01*
X440300Y253224D01*
X440467Y253667D01*
Y254110D01*
X440300Y254554D01*
X440050Y254934D01*
X439717Y255250D01*
G01X436300Y257564D02*
X435800Y257944D01*
X435550Y258387D01*
X435467Y258894D01*
X435634Y259527D01*
X436050Y259970D01*
X436550Y260097D01*
X437050Y260034D01*
X437467Y259780D01*
X438300Y258514D01*
X438884Y257944D01*
X439717Y257564D01*
X440467Y257437D01*
Y260097D01*
G01Y264627D02*
X435467D01*
X439050Y262284D01*
Y265450D01*
G01X442000Y236233D02*
X442500Y236550D01*
X442833Y236930D01*
X443000Y237373D01*
X442833Y237880D01*
X442500Y238260D01*
X442000Y238640D01*
X441333Y238767D01*
X438000D01*
G01X438833Y241397D02*
X438333Y241777D01*
X438083Y242220D01*
X438000Y242727D01*
X438167Y243360D01*
X438583Y243803D01*
X439083Y243930D01*
X439583Y243867D01*
X440000Y243613D01*
X440833Y242347D01*
X441417Y241777D01*
X442250Y241397D01*
X443000Y241270D01*
Y243930D01*
G01Y247573D02*
X441917Y247700D01*
X441000Y247890D01*
X440167Y248143D01*
X439250Y248460D01*
X438000Y248967D01*
Y246433D01*
G01X475500Y60000D02*
X512000D01*
Y10000D01*
X475500D01*
Y60000D01*
G01D02*
X512000D01*
Y10000D01*
X475500D01*
Y16685D01*
G01X473500Y23767D02*
X473750Y23900D01*
X473917Y24060D01*
X474000Y24247D01*
X473917Y24460D01*
X473750Y24620D01*
X473500Y24780D01*
X473167Y24833D01*
X471500D01*
G01X471917Y25993D02*
X471667Y26153D01*
X471542Y26340D01*
X471500Y26553D01*
X471583Y26820D01*
X471792Y27007D01*
X472042Y27060D01*
X472292Y27033D01*
X472500Y26927D01*
X472917Y26393D01*
X473208Y26153D01*
X473625Y25993D01*
X474000Y25940D01*
Y27060D01*
G01Y28700D02*
X473958Y28887D01*
X473833Y29100D01*
X473625Y29233D01*
X473333Y29287D01*
X473042Y29233D01*
X472792Y29073D01*
X472667Y28833D01*
Y28567D01*
X472583Y28407D01*
X472375Y28273D01*
X472083Y28220D01*
X471792Y28300D01*
X471583Y28487D01*
X471500Y28700D01*
X471583Y28913D01*
X471792Y29100D01*
X472083Y29180D01*
X472375Y29127D01*
X472583Y28993D01*
X472667Y28833D01*
Y28567D01*
X472792Y28327D01*
X473042Y28167D01*
X473333Y28113D01*
X473625Y28167D01*
X473833Y28300D01*
X473958Y28513D01*
X474000Y28700D01*
G01X475500Y23315D02*
Y31685D01*
G01Y38315D02*
Y46685D01*
G01Y53315D02*
Y60000D01*
G01X489208Y97387D02*
X489083Y97227D01*
X489000Y97040D01*
Y96827D01*
X489125Y96587D01*
X489333Y96400D01*
X489583Y96267D01*
X490000Y96160D01*
X490375Y96133D01*
X490750Y96187D01*
X491000Y96267D01*
X491250Y96427D01*
X491417Y96613D01*
X491500Y96800D01*
Y96987D01*
X491417Y97173D01*
X491292Y97333D01*
X491125Y97467D01*
G01X491500Y98947D02*
X490958Y99000D01*
X490500Y99080D01*
X490083Y99187D01*
X489625Y99320D01*
X489000Y99533D01*
Y98467D01*
G01X471000Y106846D02*
Y128500D01*
X497000D01*
Y106639D01*
X492861Y102500D01*
X475142D01*
Y102704D01*
X471000Y106846D01*
G01D02*
Y128500D01*
X476359D01*
G01X491141D02*
X497000D01*
Y106639D01*
X492861Y102500D01*
X486499D01*
G01X481501D02*
X475142D01*
Y102704D01*
X471000Y106846D01*
G01X480641Y128500D02*
X481501D01*
G01X486499D02*
X486859D01*
G01X463500Y116799D02*
Y118201D01*
G01X470133Y157500D02*
Y162500D01*
X471717D01*
X472223Y162250D01*
X472540Y161917D01*
X472667Y161250D01*
X472540Y160583D01*
X472160Y160167D01*
X471717Y159917D01*
X470133D01*
G01X471717D02*
X472667Y157500D01*
G01X475297Y161667D02*
X475677Y162167D01*
X476120Y162417D01*
X476627Y162500D01*
X477260Y162333D01*
X477703Y161917D01*
X477830Y161417D01*
X477767Y160917D01*
X477513Y160500D01*
X476247Y159667D01*
X475677Y159083D01*
X475297Y158250D01*
X475170Y157500D01*
X477830D01*
G01X480207Y158500D02*
X480587Y157917D01*
X481093Y157583D01*
X481663Y157500D01*
X482170Y157583D01*
X482677Y158000D01*
X482993Y158500D01*
X483057Y159000D01*
X482930Y159583D01*
X482487Y160000D01*
X482043Y160167D01*
X481473D01*
G01X482043D02*
X482423Y160417D01*
X482740Y160833D01*
X482867Y161333D01*
X482740Y161833D01*
X482423Y162250D01*
X481853Y162500D01*
X481283Y162417D01*
X480713Y162083D01*
G01X487000Y159000D02*
X493000D01*
Y162000D01*
X487000D01*
Y159000D01*
G01X488799D02*
X491201D01*
G01Y162000D02*
X488799D01*
G01X470133Y171500D02*
Y176500D01*
X471717D01*
X472223Y176250D01*
X472540Y175917D01*
X472667Y175250D01*
X472540Y174583D01*
X472160Y174167D01*
X471717Y173917D01*
X470133D01*
G01X471717D02*
X472667Y171500D01*
G01X475297Y175667D02*
X475677Y176167D01*
X476120Y176417D01*
X476627Y176500D01*
X477260Y176333D01*
X477703Y175917D01*
X477830Y175417D01*
X477767Y174917D01*
X477513Y174500D01*
X476247Y173667D01*
X475677Y173083D01*
X475297Y172250D01*
X475170Y171500D01*
X477830D01*
G01X482360D02*
Y176500D01*
X480017Y172917D01*
X483183D01*
G01X470633Y144000D02*
Y149000D01*
X472217D01*
X472723Y148750D01*
X473040Y148417D01*
X473167Y147750D01*
X473040Y147083D01*
X472660Y146667D01*
X472217Y146417D01*
X470633D01*
G01X472217D02*
X473167Y144000D01*
G01X475797Y148167D02*
X476177Y148667D01*
X476620Y148917D01*
X477127Y149000D01*
X477760Y148833D01*
X478203Y148417D01*
X478330Y147917D01*
X478267Y147417D01*
X478013Y147000D01*
X476747Y146167D01*
X476177Y145583D01*
X475797Y144750D01*
X475670Y144000D01*
X478330D01*
G01X481973D02*
X482100Y145083D01*
X482290Y146000D01*
X482543Y146833D01*
X482860Y147750D01*
X483367Y149000D01*
X480833D01*
G01X487000Y145000D02*
X493000D01*
Y148000D01*
X487000D01*
Y145000D01*
G01X488799D02*
X491201D01*
G01Y148000D02*
X488799D01*
G01X476007Y164500D02*
Y169500D01*
X477273D01*
X477780Y169250D01*
X478160Y168917D01*
X478477Y168417D01*
X478730Y167833D01*
X478793Y167000D01*
X478730Y166167D01*
X478477Y165583D01*
X478160Y165083D01*
X477780Y164750D01*
X477273Y164500D01*
X476007D01*
G01X481297Y168667D02*
X481677Y169167D01*
X482120Y169417D01*
X482627Y169500D01*
X483260Y169333D01*
X483703Y168917D01*
X483830Y168417D01*
X483767Y167917D01*
X483513Y167500D01*
X482247Y166667D01*
X481677Y166083D01*
X481297Y165250D01*
X481170Y164500D01*
X483830D01*
G01X487000Y165500D02*
X493000D01*
Y168500D01*
X487000D01*
Y165500D01*
G01X489299D02*
X490701D01*
G01Y168500D02*
X489299D01*
G01X476007Y151000D02*
Y156000D01*
X477273D01*
X477780Y155750D01*
X478160Y155417D01*
X478477Y154917D01*
X478730Y154333D01*
X478793Y153500D01*
X478730Y152667D01*
X478477Y152083D01*
X478160Y151583D01*
X477780Y151250D01*
X477273Y151000D01*
X476007D01*
G01X481297Y153083D02*
X481740Y153667D01*
X482120Y154000D01*
X482627Y154167D01*
X483070Y154000D01*
X483387Y153667D01*
X483640Y153167D01*
X483703Y152583D01*
X483640Y152083D01*
X483387Y151583D01*
X483007Y151167D01*
X482563Y151000D01*
X482057Y151167D01*
X481613Y151667D01*
X481360Y152417D01*
X481297Y153250D01*
X481423Y154333D01*
X481613Y154917D01*
X481930Y155500D01*
X482373Y155917D01*
X482817Y156000D01*
X483260Y155833D01*
X483577Y155417D01*
G01X486500Y152000D02*
X492500D01*
Y155000D01*
X486500D01*
Y152000D01*
G01X488799D02*
X490201D01*
G01Y155000D02*
X488799D01*
G01X487000Y172500D02*
X493000D01*
Y175500D01*
X487000D01*
Y172500D01*
G01X488799D02*
X491201D01*
G01Y175500D02*
X488799D01*
G01X470133Y184000D02*
Y189000D01*
X471717D01*
X472223Y188750D01*
X472540Y188417D01*
X472667Y187750D01*
X472540Y187083D01*
X472160Y186667D01*
X471717Y186417D01*
X470133D01*
G01X471717D02*
X472667Y184000D01*
G01X475297Y188167D02*
X475677Y188667D01*
X476120Y188917D01*
X476627Y189000D01*
X477260Y188833D01*
X477703Y188417D01*
X477830Y187917D01*
X477767Y187417D01*
X477513Y187000D01*
X476247Y186167D01*
X475677Y185583D01*
X475297Y184750D01*
X475170Y184000D01*
X477830D01*
G01X480207Y184750D02*
X480587Y184333D01*
X481030Y184083D01*
X481600Y184000D01*
X482170Y184167D01*
X482613Y184500D01*
X482930Y185083D01*
X482993Y185750D01*
X482867Y186417D01*
X482550Y186833D01*
X482107Y187167D01*
X481663Y187250D01*
X481220Y187167D01*
X480650Y186833D01*
X480840Y189000D01*
X482550D01*
G01X487000Y186000D02*
X493000D01*
Y189000D01*
X487000D01*
Y186000D01*
G01X488799D02*
X491201D01*
G01Y189000D02*
X488799D01*
G01X471133Y197500D02*
Y202500D01*
X472717D01*
X473223Y202250D01*
X473540Y201917D01*
X473667Y201250D01*
X473540Y200583D01*
X473160Y200167D01*
X472717Y199917D01*
X471133D01*
G01X472717D02*
X473667Y197500D01*
G01X476297Y201667D02*
X476677Y202167D01*
X477120Y202417D01*
X477627Y202500D01*
X478260Y202333D01*
X478703Y201917D01*
X478830Y201417D01*
X478767Y200917D01*
X478513Y200500D01*
X477247Y199667D01*
X476677Y199083D01*
X476297Y198250D01*
X476170Y197500D01*
X478830D01*
G01X481397Y199583D02*
X481840Y200167D01*
X482220Y200500D01*
X482727Y200667D01*
X483170Y200500D01*
X483487Y200167D01*
X483740Y199667D01*
X483803Y199083D01*
X483740Y198583D01*
X483487Y198083D01*
X483107Y197667D01*
X482663Y197500D01*
X482157Y197667D01*
X481713Y198167D01*
X481460Y198917D01*
X481397Y199750D01*
X481523Y200833D01*
X481713Y201417D01*
X482030Y202000D01*
X482473Y202417D01*
X482917Y202500D01*
X483360Y202333D01*
X483677Y201917D01*
G01X487000Y199000D02*
X493000D01*
Y202000D01*
X487000D01*
Y199000D01*
G01X488799D02*
X491201D01*
G01X475007Y178000D02*
Y183000D01*
X476273D01*
X476780Y182750D01*
X477160Y182417D01*
X477477Y181917D01*
X477730Y181333D01*
X477793Y180500D01*
X477730Y179667D01*
X477477Y179083D01*
X477160Y178583D01*
X476780Y178250D01*
X476273Y178000D01*
X475007D01*
G01X480107Y179000D02*
X480487Y178417D01*
X480993Y178083D01*
X481563Y178000D01*
X482070Y178083D01*
X482577Y178500D01*
X482893Y179000D01*
X482957Y179500D01*
X482830Y180083D01*
X482387Y180500D01*
X481943Y180667D01*
X481373D01*
G01X481943D02*
X482323Y180917D01*
X482640Y181333D01*
X482767Y181833D01*
X482640Y182333D01*
X482323Y182750D01*
X481753Y183000D01*
X481183Y182917D01*
X480613Y182583D01*
G01X487000Y179500D02*
X493000D01*
Y182500D01*
X487000D01*
Y179500D01*
G01X489299D02*
X490701D01*
G01Y182500D02*
X489299D01*
G01X475507Y191000D02*
Y196000D01*
X476773D01*
X477280Y195750D01*
X477660Y195417D01*
X477977Y194917D01*
X478230Y194333D01*
X478293Y193500D01*
X478230Y192667D01*
X477977Y192083D01*
X477660Y191583D01*
X477280Y191250D01*
X476773Y191000D01*
X475507D01*
G01X482760D02*
Y196000D01*
X480417Y192417D01*
X483583D01*
G01X487000Y192500D02*
X493000D01*
Y195500D01*
X487000D01*
Y192500D01*
G01X489299D02*
X490701D01*
G01Y195500D02*
X489299D01*
G01X491201Y202000D02*
X488799D01*
G01X476007Y204500D02*
Y209500D01*
X477273D01*
X477780Y209250D01*
X478160Y208917D01*
X478477Y208417D01*
X478730Y207833D01*
X478793Y207000D01*
X478730Y206167D01*
X478477Y205583D01*
X478160Y205083D01*
X477780Y204750D01*
X477273Y204500D01*
X476007D01*
G01X481107Y205250D02*
X481487Y204833D01*
X481930Y204583D01*
X482500Y204500D01*
X483070Y204667D01*
X483513Y205000D01*
X483830Y205583D01*
X483893Y206250D01*
X483767Y206917D01*
X483450Y207333D01*
X483007Y207667D01*
X482563Y207750D01*
X482120Y207667D01*
X481550Y207333D01*
X481740Y209500D01*
X483450D01*
G01X487000Y205500D02*
X493000D01*
Y208500D01*
X487000D01*
Y205500D01*
G01X489299D02*
X490701D01*
G01Y208500D02*
X489299D01*
M02*
